<svg width="96" height="96" viewBox="0 0 96 96" fill="none" xmlns="http://www.w3.org/2000/svg">
<path d="M72 63.1666C72.0001 79.8229 60.2987 87 48.4999 87C36.7011 87 25 78.3333 25 63.1666C25 48.5246 41.5109 20.3716 46.8535 11.645C47.616 10.3995 49.3817 10.4012 50.1425 11.6477C55.4812 20.3949 71.9999 48.6343 72 63.1666Z" fill="#F16B6B"/>
<path fill-rule="evenodd" clip-rule="evenodd" d="M65.9966 82.8301C61.1604 87.0905 54.7827 89 48.4999 89C35.7498 89 23 79.5852 23 63.1666C23 59.1832 24.1119 54.4357 25.7683 49.527C27.4351 44.5873 29.7029 39.3424 32.1213 34.3198C36.9586 24.2737 42.4611 14.9892 45.1478 10.6007C46.6916 8.0791 50.3103 8.08366 51.8497 10.6058C54.5342 15.0042 60.0371 24.3149 64.8755 34.3706C67.2944 39.3979 69.5628 44.6434 71.2301 49.5755C72.8867 54.4758 74 59.2091 74 63.1666C74.0001 72.0018 70.8759 78.5318 65.9966 82.8301ZM48.4999 87C60.2987 87 72.0001 79.8229 72 63.1666C71.9999 48.6343 55.4812 20.3949 50.1425 11.6477C49.3817 10.4012 47.616 10.3995 46.8535 11.645C41.5109 20.3716 25 48.5246 25 63.1666C25 78.3333 36.7011 87 48.4999 87Z" fill="#820E06"/>
<path fill-rule="evenodd" clip-rule="evenodd" d="M45.4999 77C55.7925 77 66.0001 70.7431 66 56.2223C65.9999 43.6187 51.739 19.189 47.006 11.4283C47.8306 10.4045 49.4288 10.4783 50.1425 11.6478C55.4812 20.395 71.9999 48.6343 72 63.1667C72.0001 79.823 60.2987 87 48.4999 87C36.7011 87 25 78.3334 25 63.1667C25 62.0951 25.0884 60.9511 25.2545 59.7477C26.8909 70.7788 36.1603 77 45.4999 77Z" fill="#DC5050"/>
<path fill-rule="evenodd" clip-rule="evenodd" d="M46.9998 83.0002C58.5476 83.0002 70.0001 75.9152 70 59.4724C69.9999 50.5217 63.7063 36.3035 57.7035 24.7778C64.2909 36.9149 71.9998 53.2393 71.9999 63.1669C72 79.8232 60.2986 87.0002 48.4998 87.0002C38.0583 87.0002 27.6933 80.2128 25.4468 68.1397C28.8791 77.699 37.9098 83.0002 46.9998 83.0002Z" fill="#A22B2B"/>
<path d="M60 55.7778C60.0001 64.3194 54.0249 68 47.9999 68C41.975 68 36 63.5555 36 55.7778C36 48.8948 43.0844 36.1897 46.3665 30.673C47.1149 29.415 48.8828 29.4164 49.6296 30.6753C52.9102 36.2048 60 48.9453 60 55.7778Z" fill="#E43660"/>
<path d="M61 61.5C61 62.3284 60.3284 63 59.5 63C58.6716 63 58 62.3284 58 61.5C58 60.6716 58.6716 60 59.5 60C60.3284 60 61 60.6716 61 61.5Z" fill="#FF8C8C"/>
<path d="M64 65C64 65.5523 63.5523 66 63 66C62.4477 66 62 65.5523 62 65C62 64.4477 62.4477 64 63 64C63.5523 64 64 64.4477 64 65Z" fill="#FF8C8C"/>
<path d="M58 67C58 67.5523 57.5523 68 57 68C56.4477 68 56 67.5523 56 67C56 66.4477 56.4477 66 57 66C57.5523 66 58 66.4477 58 67Z" fill="#FF8C8C"/>
<path d="M59 71C59 71.5523 58.5523 72 58 72C57.4477 72 57 71.5523 57 71C57 70.4477 57.4477 70 58 70C58.5523 70 59 70.4477 59 71Z" fill="#FF8C8C"/>
<path d="M63 71C63 71.5523 62.5523 72 62 72C61.4477 72 61 71.5523 61 71C61 70.4477 61.4477 70 62 70C62.5523 70 63 70.4477 63 71Z" fill="#FF8C8C"/>
<path d="M47 73C47 73.5523 46.5523 74 46 74C45.4477 74 45 73.5523 45 73C45 72.4477 45.4477 72 46 72C46.5523 72 47 72.4477 47 73Z" fill="#FF8C8C"/>
<path d="M57 77C57 77.5523 56.5523 78 56 78C55.4477 78 55 77.5523 55 77C55 76.4477 55.4477 76 56 76C56.5523 76 57 76.4477 57 77Z" fill="#FF8C8C"/>
<path d="M54 72C54 72.5523 53.5523 73 53 73C52.4477 73 52 72.5523 52 72C52 71.4477 52.4477 71 53 71C53.5523 71 54 71.4477 54 72Z" fill="#FF8C8C"/>
<path d="M50 70.5C50 70.7761 49.7761 71 49.5 71C49.2239 71 49 70.7761 49 70.5C49 70.2239 49.2239 70 49.5 70C49.7761 70 50 70.2239 50 70.5Z" fill="#FF8C8C"/>
<path d="M55 69.5C55 69.7761 54.7761 70 54.5 70C54.2239 70 54 69.7761 54 69.5C54 69.2239 54.2239 69 54.5 69C54.7761 69 55 69.2239 55 69.5Z" fill="#FF8C8C"/>
<path d="M52 75.5C52 75.7761 51.7761 76 51.5 76C51.2239 76 51 75.7761 51 75.5C51 75.2239 51.2239 75 51.5 75C51.7761 75 52 75.2239 52 75.5Z" fill="#FF8C8C"/>
<path d="M56 73.5C56 73.7761 55.7761 74 55.5 74C55.2239 74 55 73.7761 55 73.5C55 73.2239 55.2239 73 55.5 73C55.7761 73 56 73.2239 56 73.5Z" fill="#FF8C8C"/>
<path d="M62 74.5C62 74.7761 61.7761 75 61.5 75C61.2239 75 61 74.7761 61 74.5C61 74.2239 61.2239 74 61.5 74C61.7761 74 62 74.2239 62 74.5Z" fill="#FF8C8C"/>
<path d="M61 67.5C61 67.7761 60.7761 68 60.5 68C60.2239 68 60 67.7761 60 67.5C60 67.2239 60.2239 67 60.5 67C60.7761 67 61 67.2239 61 67.5Z" fill="#FF8C8C"/>
<path d="M66 67.5C66 67.7761 65.7761 68 65.5 68C65.2239 68 65 67.7761 65 67.5C65 67.2239 65.2239 67 65.5 67C65.7761 67 66 67.2239 66 67.5Z" fill="#FF8C8C"/>
<path d="M66 60.5C66 60.7761 65.7761 61 65.5 61C65.2239 61 65 60.7761 65 60.5C65 60.2239 65.2239 60 65.5 60C65.7761 60 66 60.2239 66 60.5Z" fill="#FF8C8C"/>
<path d="M63 61.5C63 61.7761 62.7761 62 62.5 62C62.2239 62 62 61.7761 62 61.5C62 61.2239 62.2239 61 62.5 61C62.7761 61 63 61.2239 63 61.5Z" fill="#FF8C8C"/>
<path d="M62 57.5C62 57.7761 61.7761 58 61.5 58C61.2239 58 61 57.7761 61 57.5C61 57.2239 61.2239 57 61.5 57C61.7761 57 62 57.2239 62 57.5Z" fill="#FF8C8C"/>
<path d="M60 55.5C60 55.7761 59.7761 56 59.5 56C59.2239 56 59 55.7761 59 55.5C59 55.2239 59.2239 55 59.5 55C59.7761 55 60 55.2239 60 55.5Z" fill="#FF8C8C"/>
<path d="M57 64.5C57 64.7761 56.7761 65 56.5 65C56.2239 65 56 64.7761 56 64.5C56 64.2239 56.2239 64 56.5 64C56.7761 64 57 64.2239 57 64.5Z" fill="#FF8C8C"/>
<path d="M54 67.5C54 67.7761 53.7761 68 53.5 68C53.2239 68 53 67.7761 53 67.5C53 67.2239 53.2239 67 53.5 67C53.7761 67 54 67.2239 54 67.5Z" fill="#FF8C8C"/>
<path d="M51 72.5C51 72.7761 50.7761 73 50.5 73C50.2239 73 50 72.7761 50 72.5C50 72.2239 50.2239 72 50.5 72C50.7761 72 51 72.2239 51 72.5Z" fill="#FF8C8C"/>
<path d="M50 78.5C50 78.7761 49.7761 79 49.5 79C49.2239 79 49 78.7761 49 78.5C49 78.2239 49.2239 78 49.5 78C49.7761 78 50 78.2239 50 78.5Z" fill="#FF8C8C"/>
<path d="M46 76.5C46 76.7761 45.7761 77 45.5 77C45.2239 77 45 76.7761 45 76.5C45 76.2239 45.2239 76 45.5 76C45.7761 76 46 76.2239 46 76.5Z" fill="#FF8C8C"/>
<path d="M42 72.5C42 72.7761 41.7761 73 41.5 73C41.2239 73 41 72.7761 41 72.5C41 72.2239 41.2239 72 41.5 72C41.7761 72 42 72.2239 42 72.5Z" fill="#FF8C8C"/>
<path d="M46.5561 43.8545C44.4293 55.1952 41.4472 67.9812 35.9894 66.5403C30.5317 65.0993 27.8512 52.6097 32.3859 40.1507C36.4506 28.9827 40.7849 23.1038 46.5563 23.6487C50.2785 24.0001 48.1516 35.3467 46.5561 43.8545Z" fill="#FF9090"/>
<path d="M44.0797 46.324C42.2074 54.3939 38.0728 60.3287 34.8448 59.5798C31.6168 58.8309 30.5179 51.6818 32.3902 43.6119C34.2625 35.542 38.3971 29.6071 41.625 30.356C44.853 31.105 45.952 38.2541 44.0797 46.324Z" fill="#FFB9B9"/>
<path fill-rule="evenodd" clip-rule="evenodd" d="M38.4629 34.1135C38.9525 34.369 39.1422 34.9731 38.8866 35.4627C38.1577 36.8591 37.1207 39.5307 36.164 42.5157C35.2098 45.4928 34.362 48.6991 33.9887 51.1505C33.9056 51.6965 33.3956 52.0717 32.8496 51.9886C32.3036 51.9054 31.9284 51.3954 32.0115 50.8495C32.4075 48.2482 33.2905 44.9282 34.2594 41.9053C35.2257 38.8903 36.3041 36.0882 37.1136 34.5372C37.3692 34.0476 37.9733 33.8579 38.4629 34.1135Z" fill="#FFDDD8"/>
<path fill-rule="evenodd" clip-rule="evenodd" d="M34.7232 42.0406C35.2531 42.1964 35.5563 42.7523 35.4004 43.2821C34.7768 45.4025 34.2735 47.4426 33.9865 49.1644C33.8958 49.7091 33.3805 50.0771 32.8358 49.9864C32.291 49.8956 31.923 49.3803 32.0138 48.8356C32.3187 47.0062 32.8451 44.8822 33.4817 42.7178C33.6375 42.1879 34.1934 41.8848 34.7232 42.0406Z" fill="white"/>
</svg>
