<svg width="96" height="96" viewBox="0 0 96 96" fill="none" xmlns="http://www.w3.org/2000/svg">
<path d="M20 32H76V34C76 36.2091 74.2091 38 72 38H24C21.7909 38 20 36.2091 20 34V32Z" fill="#B9D2E7"/>
<path fill-rule="evenodd" clip-rule="evenodd" d="M18 32C18 30.8954 18.8954 30 20 30H76C77.1046 30 78 30.8954 78 32V34C78 37.3137 75.3137 40 72 40H24C20.6863 40 18 37.3137 18 34V32ZM20 32V34C20 36.2091 21.7909 38 24 38H72C74.2091 38 76 36.2091 76 34V32H20Z" fill="#0C4667"/>
<path fill-rule="evenodd" clip-rule="evenodd" d="M22 35C22 34.4477 22.4477 34 23 34H47.5C48.0523 34 48.5 34.4477 48.5 35C48.5 35.5523 48.0523 36 47.5 36H23C22.4477 36 22 35.5523 22 35Z" fill="#ECF6FF"/>
<path fill-rule="evenodd" clip-rule="evenodd" d="M76 32H20V34L76 34V32Z" fill="#628AAC"/>
<path fill-rule="evenodd" clip-rule="evenodd" d="M18 8C16.8954 8 16 8.89543 16 10V20V22V26C16 28.2091 17.7909 30 20 30H76C78.2091 30 80 28.2091 80 26V22V20V10C80 8.89543 79.1046 8 78 8H74C72.8954 8 72 8.89543 72 10V18H66V12C66 10.8954 65.1046 10 64 10H60C58.8954 10 58 10.8954 58 12V18H52V10C52 8.89543 51.1046 8 50 8H46C44.8954 8 44 8.89543 44 10V18H38V12C38 10.8954 37.1046 10 36 10H32C30.8954 10 30 10.8954 30 12V18H24V10C24 8.89543 23.1046 8 22 8H18Z" fill="#CAE7FE"/>
<path fill-rule="evenodd" clip-rule="evenodd" d="M14 10C14 7.79086 15.7909 6 18 6H22C24.2091 6 26 7.79086 26 10V16H28V12C28 9.79086 29.7909 8 32 8H36C38.2091 8 40 9.79086 40 12V16H42V10C42 7.79086 43.7909 6 46 6H50C52.2091 6 54 7.79086 54 10V16H56V12C56 9.79086 57.7909 8 60 8H64C66.2091 8 68 9.79086 68 12V16H70V10C70 7.79086 71.7909 6 74 6H78C80.2091 6 82 7.79086 82 10V26C82 29.3137 79.3137 32 76 32H20C16.6863 32 14 29.3137 14 26V10ZM72 10C72 8.89543 72.8954 8 74 8H78C79.1046 8 80 8.89543 80 10V26C80 28.2091 78.2091 30 76 30H20C17.7909 30 16 28.2091 16 26V10C16 8.89543 16.8954 8 18 8H22C23.1046 8 24 8.89543 24 10V18H30V12C30 10.8954 30.8954 10 32 10H36C37.1046 10 38 10.8954 38 12V18H44V10C44 8.89543 44.8954 8 46 8H50C51.1046 8 52 8.89543 52 10V18H58V12C58 10.8954 58.8954 10 60 10H64C65.1046 10 66 10.8954 66 12V18H72V10Z" fill="#0C4667"/>
<path d="M20 86C20 84.8954 20.8954 84 22 84H74C75.1046 84 76 84.8954 76 86C76 87.1046 75.1046 88 74 88H22C20.8954 88 20 87.1046 20 86Z" fill="#B9D2E7"/>
<path fill-rule="evenodd" clip-rule="evenodd" d="M22 82H74C76.2091 82 78 83.7909 78 86C78 88.2091 76.2091 90 74 90H22C19.7909 90 18 88.2091 18 86C18 83.7909 19.7909 82 22 82ZM22 84C20.8954 84 20 84.8954 20 86C20 87.1046 20.8954 88 22 88H74C75.1046 88 76 87.1046 76 86C76 84.8954 75.1046 84 74 84H22Z" fill="#0C4667"/>
<path fill-rule="evenodd" clip-rule="evenodd" d="M21 85C21 84.4477 21.4477 84 22 84H46.5C47.0523 84 47.5 84.4477 47.5 85C47.5 85.5523 47.0523 86 46.5 86H22C21.4477 86 21 85.5523 21 85Z" fill="#ECF6FF"/>
<path d="M70 40H26V82H70V40Z" fill="#A4C0D7"/>
<path fill-rule="evenodd" clip-rule="evenodd" d="M24 40C24 38.8954 24.8954 38 26 38H70C71.1046 38 72 38.8954 72 40V82C72 83.1046 71.1046 84 70 84H26C24.8954 84 24 83.1046 24 82V40ZM70 82H26V40H70V82Z" fill="#0C4667"/>
<path d="M70 40H26V42H70V40Z" fill="#628BAC"/>
<path d="M40 66C40 61.5817 43.5817 58 48 58C52.4183 58 56 61.5817 56 66V82H40V66Z" fill="#AF7347"/>
<path fill-rule="evenodd" clip-rule="evenodd" d="M58 84H38V66C38 60.4772 42.4772 56 48 56C53.5228 56 58 60.4772 58 66V84ZM48 58C43.5817 58 40 61.5817 40 66V82H56V66C56 61.5817 52.4183 58 48 58Z" fill="#0C4667"/>
<path fill-rule="evenodd" clip-rule="evenodd" d="M42 71C42.5523 71 43 71.4477 43 72V80C43 80.5523 42.5523 81 42 81C41.4477 81 41 80.5523 41 80V72C41 71.4477 41.4477 71 42 71Z" fill="#8D5D39"/>
<path fill-rule="evenodd" clip-rule="evenodd" d="M46 69C46.5523 69 47 69.4477 47 70V80C47 80.5523 46.5523 81 46 81C45.4477 81 45 80.5523 45 80V70C45 69.4477 45.4477 69 46 69Z" fill="#8D5D39"/>
<path fill-rule="evenodd" clip-rule="evenodd" d="M47.9998 61C45.063 61 43.5014 63.0835 42.9136 64.4061C42.6893 64.9108 42.0983 65.1381 41.5936 64.9138C41.0889 64.6895 40.8616 64.0985 41.0859 63.5939C41.8314 61.9165 43.9365 59 47.9998 59C48.552 59 48.9998 59.4477 48.9998 60C48.9998 60.5523 48.552 61 47.9998 61Z" fill="#D09366"/>
<path fill-rule="evenodd" clip-rule="evenodd" d="M50 69C50.5523 69 51 69.4477 51 70V80C51 80.5523 50.5523 81 50 81C49.4477 81 49 80.5523 49 80V70C49 69.4477 49.4477 69 50 69Z" fill="#8D5D39"/>
<path fill-rule="evenodd" clip-rule="evenodd" d="M54 71C54.5523 71 55 71.4477 55 72V80C55 80.5523 54.5523 81 54 81C53.4477 81 53 80.5523 53 80V72C53 71.4477 53.4477 71 54 71Z" fill="#8D5D39"/>
<path fill-rule="evenodd" clip-rule="evenodd" d="M31 52C31 51.4477 31.4477 51 32 51H38C38.5523 51 39 51.4477 39 52C39 52.5523 38.5523 53 38 53H32C31.4477 53 31 52.5523 31 52Z" fill="#7A97AD"/>
<path fill-rule="evenodd" clip-rule="evenodd" d="M42 45C42 44.4477 42.4477 44 43 44H49C49.5523 44 50 44.4477 50 45C50 45.5523 49.5523 46 49 46H43C42.4477 46 42 45.5523 42 45Z" fill="#7A97AD"/>
<path fill-rule="evenodd" clip-rule="evenodd" d="M26 43C26 42.4477 26.4477 42 27 42H33C33.5523 42 34 42.4477 34 43C34 43.5523 33.5523 44 33 44H27C26.4477 44 26 43.5523 26 43Z" fill="#7A97AD"/>
<path fill-rule="evenodd" clip-rule="evenodd" d="M51 53C51 52.4477 51.4477 52 52 52H58C58.5523 52 59 52.4477 59 53C59 53.5523 58.5523 54 58 54H52C51.4477 54 51 53.5523 51 53Z" fill="#7A97AD"/>
<path fill-rule="evenodd" clip-rule="evenodd" d="M60 63C60 62.4477 60.4477 62 61 62H67C67.5523 62 68 62.4477 68 63C68 63.5523 67.5523 64 67 64H61C60.4477 64 60 63.5523 60 63Z" fill="#7A97AD"/>
<path fill-rule="evenodd" clip-rule="evenodd" d="M58 76C58 75.4477 58.4477 75 59 75H65C65.5523 75 66 75.4477 66 76C66 76.5523 65.5523 77 65 77H59C58.4477 77 58 76.5523 58 76Z" fill="#7A97AD"/>
<path fill-rule="evenodd" clip-rule="evenodd" d="M60 45C60 44.4477 60.4477 44 61 44H67C67.5523 44 68 44.4477 68 45C68 45.5523 67.5523 46 67 46H61C60.4477 46 60 45.5523 60 45Z" fill="#7A97AD"/>
<path fill-rule="evenodd" clip-rule="evenodd" d="M26 63C26 62.4477 26.4477 62 27 62H33C33.5523 62 34 62.4477 34 63C34 63.5523 33.5523 64 33 64H27C26.4477 64 26 63.5523 26 63Z" fill="#7A97AD"/>
<path fill-rule="evenodd" clip-rule="evenodd" d="M30 69C30 68.4477 30.4477 68 31 68H37C37.5523 68 38 68.4477 38 69C38 69.5523 37.5523 70 37 70H31C30.4477 70 30 69.5523 30 69Z" fill="#7A97AD"/>
<path fill-rule="evenodd" clip-rule="evenodd" d="M26 79C26 78.4477 26.4477 78 27 78H33C33.5523 78 34 78.4477 34 79C34 79.5523 33.5523 80 33 80H27C26.4477 80 26 79.5523 26 79Z" fill="#7A97AD"/>
<path fill-rule="evenodd" clip-rule="evenodd" d="M27 75C27.5523 75 28 75.4477 28 76V80C28 80.5523 27.5523 81 27 81C26.4477 81 26 80.5523 26 80V76C26 75.4477 26.4477 75 27 75Z" fill="#7A97AD"/>
<path fill-rule="evenodd" clip-rule="evenodd" d="M34 65C34.5523 65 35 65.4477 35 66V70C35 70.5523 34.5523 71 34 71C33.4477 71 33 70.5523 33 70V66C33 65.4477 33.4477 65 34 65Z" fill="#7A97AD"/>
<path fill-rule="evenodd" clip-rule="evenodd" d="M29 60C29.5523 60 30 60.4477 30 61V65C30 65.5523 29.5523 66 29 66C28.4477 66 28 65.5523 28 65V61C28 60.4477 28.4477 60 29 60Z" fill="#7A97AD"/>
<path fill-rule="evenodd" clip-rule="evenodd" d="M36 50C36.5523 50 37 50.4477 37 51V55C37 55.5523 36.5523 56 36 56C35.4477 56 35 55.5523 35 55V51C35 50.4477 35.4477 50 36 50Z" fill="#7A97AD"/>
<path fill-rule="evenodd" clip-rule="evenodd" d="M45 43C45.5523 43 46 43.4477 46 44V48C46 48.5523 45.5523 49 45 49C44.4477 49 44 48.5523 44 48V44C44 43.4477 44.4477 43 45 43Z" fill="#7A97AD"/>
<path fill-rule="evenodd" clip-rule="evenodd" d="M56 50C56.5523 50 57 50.4477 57 51V55C57 55.5523 56.5523 56 56 56C55.4477 56 55 55.5523 55 55V51C55 50.4477 55.4477 50 56 50Z" fill="#7A97AD"/>
<path fill-rule="evenodd" clip-rule="evenodd" d="M63 42C63.5523 42 64 42.4477 64 43V47C64 47.5523 63.5523 48 63 48C62.4477 48 62 47.5523 62 47V43C62 42.4477 62.4477 42 63 42Z" fill="#7A97AD"/>
<path fill-rule="evenodd" clip-rule="evenodd" d="M62 60C62.5523 60 63 60.4477 63 61V65C63 65.5523 62.5523 66 62 66C61.4477 66 61 65.5523 61 65V61C61 60.4477 61.4477 60 62 60Z" fill="#7A97AD"/>
<path fill-rule="evenodd" clip-rule="evenodd" d="M64 74C64.5523 74 65 74.4477 65 75V79C65 79.5523 64.5523 80 64 80C63.4477 80 63 79.5523 63 79V75C63 74.4477 63.4477 74 64 74Z" fill="#7A97AD"/>
<path fill-rule="evenodd" clip-rule="evenodd" d="M29 42C29.5523 42 30 42.4477 30 43V47C30 47.5523 29.5523 48 29 48C28.4477 48 28 47.5523 28 47V43C28 42.4477 28.4477 42 29 42Z" fill="#7A97AD"/>
<path fill-rule="evenodd" clip-rule="evenodd" d="M18 9C18.5523 9 19 9.44772 19 10V26C19 26.5523 19.4477 27 20 27H42.5C43.0523 27 43.5 27.4477 43.5 28C43.5 28.5523 43.0523 29 42.5 29H20C18.3431 29 17 27.6569 17 26V10C17 9.44772 17.4477 9 18 9Z" fill="#F5FDFF"/>
<path fill-rule="evenodd" clip-rule="evenodd" d="M32 11C32.5523 11 33 11.4477 33 12V18C33 18.5523 32.5523 19 32 19C31.4477 19 31 18.5523 31 18V12C31 11.4477 31.4477 11 32 11Z" fill="#F5FDFF"/>
<path fill-rule="evenodd" clip-rule="evenodd" d="M60 11C60.5523 11 61 11.4477 61 12V18C61 18.5523 60.5523 19 60 19C59.4477 19 59 18.5523 59 18V12C59 11.4477 59.4477 11 60 11Z" fill="#F5FDFF"/>
<path fill-rule="evenodd" clip-rule="evenodd" d="M46 9C46.5523 9 47 9.44772 47 10V18C47 18.5523 46.5523 19 46 19C45.4477 19 45 18.5523 45 18V10C45 9.44772 45.4477 9 46 9Z" fill="#F5FDFF"/>
<path fill-rule="evenodd" clip-rule="evenodd" d="M74 9C74.5523 9 75 9.44772 75 10V18C75 18.5523 74.5523 19 74 19C73.4477 19 73 18.5523 73 18V10C73 9.44772 73.4477 9 74 9Z" fill="#F5FDFF"/>
</svg>
