<svg width="270" height="313" viewBox="0 0 270 313" fill="none" xmlns="http://www.w3.org/2000/svg">
<path d="M101 152.067C101.666 134.419 102 96.3487 98.0132 89.0903C97.7599 89.6386 95.9724 93.1005 86.0004 111.567C85.2401 112.975 82.6671 110.067 81.5004 109.067L92.0004 89.0671C94.5004 85.0672 94.4146 74.744 93.0004 71.0671C88.0004 58.0672 83.8069 50.5671 78.0004 45.5671C42.0003 14.5672 27.5004 50.5671 27.5004 50.5671C21.5158 83.4827 62.5005 83.0671 61.0004 63.0671C59.6167 44.6189 41.5004 50.5671 41.0004 57.5671C40.6076 63.0671 44.5002 70.0667 53.0004 63.0671C55.4004 63.0671 55.3336 65.0671 55.0003 66.0672C37 80.0671 36.5005 57.5671 36.5005 57.5671C39.5003 38.5671 66.5 43.0671 66.0004 63.0671C65.3261 90.0586 15.5005 92.0671 22.5004 49.0671C22.5004 49.0671 40.0006 7.56706 80.5004 40.5671C80.1671 36.9005 86.0004 37.5671 86.0004 37.5671C92.5004 45.5671 105 79.0672 105 87.5672C105 94.3671 119 105.401 126 110.067C126.334 112.234 125.9 115.967 121.5 113.567C117.1 111.167 110 104.234 107 101.067V151.067L101 152.067Z" fill="#1F4F11"/>
<path d="M53.0004 63.0671C44.5002 70.0667 40.6076 63.067 41.0004 57.5671C41.5004 50.5671 59.6167 44.6189 61.0004 63.0671C62.5005 83.0671 21.5158 83.4827 27.5004 50.5671C27.5004 50.5671 42.0003 14.5672 78.0004 45.5671C83.8069 50.5671 88.0004 58.0672 93.0004 71.0671C94.4147 74.744 94.5004 85.0672 92.0004 89.0671L81.5004 109.067C82.6671 110.067 85.2401 112.975 86.0004 111.567C99.5003 86.5673 98.0004 89.0671 98.0004 89.0671C102 96.2671 101.667 134.4 101 152.067L107 151.067V101.067C110 104.234 117.1 111.167 121.5 113.567C125.9 115.967 126.334 112.234 126 110.067C119 105.401 105 94.3672 105 87.5672C105 79.0672 92.5004 45.5671 86.0004 37.5671C86.0004 37.5671 80.1671 36.9005 80.5004 40.5671C40.0006 7.56706 22.5004 49.0671 22.5004 49.0671C15.5005 92.0671 65.3261 90.0586 66.0004 63.0671C66.5 43.0671 39.5003 38.5671 36.5005 57.5671C36.5005 57.5671 37 80.0671 55.0003 66.0672C55.3336 65.0671 55.4004 63.0671 53.0004 63.0671ZM53.0004 63.0671V63.0671Z" stroke="black" stroke-width="3"/>
<path d="M120.5 36.0671C95.7 88.8671 134.167 110.067 156.5 114.067L186.5 162.567L208 164.067L202 148.067C223.667 153.234 256.5 135.567 256.5 135.567C248.1 113.167 229.667 104.234 221.5 102.567L250.5 91.5671L268 28.0671L203.5 26.0671L183 49.0671L184 28.0671L165.5 2.06706C131 25.5671 134 48.0671 134 48.0671L120.5 36.0671Z" fill="url(#paint0_linear_29_239)" stroke="black" stroke-width="3"/>
<path d="M107 257.067C122.562 257.067 135 269.027 135 283.567C135 298.107 122.562 310.067 107 310.067C91.4381 310.067 79 298.107 79 283.567C79 269.027 91.4381 257.067 107 257.067Z" fill="url(#paint1_linear_29_239)" stroke="black" stroke-width="4"/>
<path d="M134 218.067C149.562 218.067 162 230.027 162 244.567C162 259.107 149.562 271.067 134 271.067C118.438 271.067 106 259.107 106 244.567C106 230.027 118.438 218.067 134 218.067Z" fill="url(#paint2_linear_29_239)" stroke="black" stroke-width="4"/>
<path d="M79 218.067C94.5619 218.067 107 230.027 107 244.567C107 259.107 94.5619 271.067 79 271.067C63.4381 271.067 51 259.107 51 244.567C51 230.027 63.4381 218.067 79 218.067Z" fill="url(#paint3_linear_29_239)" stroke="black" stroke-width="4"/>
<path d="M152 176.067C167.562 176.067 180 188.027 180 202.567C180 217.107 167.562 229.067 152 229.067C136.438 229.067 124 217.107 124 202.567C124 188.027 136.438 176.067 152 176.067Z" fill="url(#paint4_linear_29_239)" stroke="black" stroke-width="4"/>
<path d="M173 133.067C188.562 133.067 201 145.027 201 159.567C201 174.107 188.562 186.067 173 186.067C157.438 186.067 145 174.107 145 159.567C145 145.027 157.438 133.067 173 133.067Z" fill="url(#paint5_linear_29_239)" stroke="black" stroke-width="4"/>
<path d="M141 104.067C156.562 104.067 169 116.027 169 130.567C169 145.107 156.562 157.067 141 157.067C125.438 157.067 113 145.107 113 130.567C113 116.027 125.438 104.067 141 104.067Z" fill="url(#paint6_linear_29_239)" stroke="black" stroke-width="4"/>
<path d="M104 177.067C119.562 177.067 132 189.027 132 203.567C132 218.107 119.562 230.067 104 230.067C88.4381 230.067 76 218.107 76 203.567C76 189.027 88.4381 177.067 104 177.067Z" fill="url(#paint7_linear_29_239)" stroke="black" stroke-width="4"/>
<path d="M128 130.067C143.562 130.067 156 142.027 156 156.567C156 171.107 143.562 183.067 128 183.067C112.438 183.067 100 171.107 100 156.567C100 142.027 112.438 130.067 128 130.067Z" fill="url(#paint8_linear_29_239)" stroke="black" stroke-width="4"/>
<path d="M30 132.067C45.5619 132.067 58 144.027 58 158.567C58 173.107 45.5619 185.067 30 185.067C14.4381 185.067 2 173.107 2 158.567C2 144.027 14.4381 132.067 30 132.067Z" fill="url(#paint9_linear_29_239)" stroke="black" stroke-width="4"/>
<path d="M67 104.067C82.5619 104.067 95 116.027 95 130.567C95 145.107 82.5619 157.067 67 157.067C51.4381 157.067 39 145.107 39 130.567C39 116.027 51.4381 104.067 67 104.067Z" fill="url(#paint10_linear_29_239)" stroke="black" stroke-width="4"/>
<path d="M57 176.067C72.5619 176.067 85 188.027 85 202.567C85 217.107 72.5619 229.067 57 229.067C41.4381 229.067 29 217.107 29 202.567C29 188.027 41.4381 176.067 57 176.067Z" fill="url(#paint11_linear_29_239)" stroke="black" stroke-width="4"/>
<path d="M78 130.067C93.5619 130.067 106 142.027 106 156.567C106 171.107 93.5619 183.067 78 183.067C62.4381 183.067 50 171.107 50 156.567C50 142.027 62.4381 130.067 78 130.067Z" fill="url(#paint12_linear_29_239)" stroke="black" stroke-width="4"/>
<defs>
<linearGradient id="paint0_linear_29_239" x1="268" y1="83.0671" x2="112.462" y2="83.0671" gradientUnits="userSpaceOnUse">
<stop stop-color="#1F6930"/>
<stop offset="1" stop-color="#5F9130"/>
</linearGradient>
<linearGradient id="paint1_linear_29_239" x1="81" y1="277.567" x2="135.5" y2="291.567" gradientUnits="userSpaceOnUse">
<stop stop-color="#9D38BC"/>
<stop offset="1" stop-color="#52158A"/>
</linearGradient>
<linearGradient id="paint2_linear_29_239" x1="108" y1="238.567" x2="162.5" y2="252.567" gradientUnits="userSpaceOnUse">
<stop stop-color="#9D38BC"/>
<stop offset="1" stop-color="#52158A"/>
</linearGradient>
<linearGradient id="paint3_linear_29_239" x1="53" y1="238.567" x2="107.5" y2="252.567" gradientUnits="userSpaceOnUse">
<stop stop-color="#9D38BC"/>
<stop offset="1" stop-color="#52158A"/>
</linearGradient>
<linearGradient id="paint4_linear_29_239" x1="126" y1="196.567" x2="180.5" y2="210.567" gradientUnits="userSpaceOnUse">
<stop stop-color="#9D38BC"/>
<stop offset="1" stop-color="#52158A"/>
</linearGradient>
<linearGradient id="paint5_linear_29_239" x1="147" y1="153.567" x2="201.5" y2="167.567" gradientUnits="userSpaceOnUse">
<stop stop-color="#9D38BC"/>
<stop offset="1" stop-color="#52158A"/>
</linearGradient>
<linearGradient id="paint6_linear_29_239" x1="115" y1="124.567" x2="169.5" y2="138.567" gradientUnits="userSpaceOnUse">
<stop stop-color="#9D38BC"/>
<stop offset="1" stop-color="#52158A"/>
</linearGradient>
<linearGradient id="paint7_linear_29_239" x1="78" y1="197.567" x2="132.5" y2="211.567" gradientUnits="userSpaceOnUse">
<stop stop-color="#9D38BC"/>
<stop offset="1" stop-color="#52158A"/>
</linearGradient>
<linearGradient id="paint8_linear_29_239" x1="102" y1="150.567" x2="156.5" y2="164.567" gradientUnits="userSpaceOnUse">
<stop stop-color="#9D38BC"/>
<stop offset="1" stop-color="#52158A"/>
</linearGradient>
<linearGradient id="paint9_linear_29_239" x1="4" y1="152.567" x2="58.5" y2="166.567" gradientUnits="userSpaceOnUse">
<stop stop-color="#9D38BC"/>
<stop offset="1" stop-color="#52158A"/>
</linearGradient>
<linearGradient id="paint10_linear_29_239" x1="41" y1="124.567" x2="95.5" y2="138.567" gradientUnits="userSpaceOnUse">
<stop stop-color="#9D38BC"/>
<stop offset="1" stop-color="#52158A"/>
</linearGradient>
<linearGradient id="paint11_linear_29_239" x1="31" y1="196.567" x2="85.5" y2="210.567" gradientUnits="userSpaceOnUse">
<stop stop-color="#9D38BC"/>
<stop offset="1" stop-color="#52158A"/>
</linearGradient>
<linearGradient id="paint12_linear_29_239" x1="52" y1="150.567" x2="106.5" y2="164.567" gradientUnits="userSpaceOnUse">
<stop stop-color="#9D38BC"/>
<stop offset="1" stop-color="#52158A"/>
</linearGradient>
</defs>
</svg>
