<svg width="288" height="243" viewBox="0 0 288 243" fill="none" xmlns="http://www.w3.org/2000/svg">
<path d="M17.8485 146.45C22.8484 185.45 57.3485 165.95 60.3485 168.45C73.5476 179.449 87.0152 165.117 90.3485 159.45C137.549 132.65 175.348 150.617 188.348 162.95C206.849 186.45 221.849 167.395 222.848 167.95C258.849 187.95 266.477 154.45 270.349 150.95C306.849 117.95 268.419 103.95 269.348 100.45C277.849 68.4502 244.953 68.5342 245.348 66.4501C250.849 37.4502 211.348 35.4502 210.848 32.4502C208.349 17.4502 195.851 27.5671 193.848 24.9502C156.349 -24.0498 126.861 19.9615 125.349 19.4502C89.8485 7.45015 90.1894 38.828 87.8485 37.9502C47.8485 22.9502 44.9666 58.4502 43.8485 58.4502C26.8485 58.4502 33.8485 73.9501 31.3485 75.4501C11.6774 87.2526 21.3485 95.9501 14.3484 101.45C-16.2525 125.493 17.3519 142.577 17.8485 146.45Z" fill="#08472A" stroke="#043620" stroke-width="3"/>
<path d="M90.3363 234.764H73.3363L82.3363 225.264L94.8363 222.264L111.336 209.264L113.336 181.764C106.336 173.764 92.0363 157.664 90.8363 157.264C89.3363 156.764 57.3363 143.264 52.8363 143.264C49.2363 143.264 51.3363 137.264 52.8363 134.264L82.3363 144.264L72.3363 118.764L81.3363 117.264L92.8363 144.264C100.17 148.431 114.936 156.664 115.336 156.264C115.736 155.864 116.836 148.098 117.336 144.264C108.336 133.598 90.6363 109.964 91.8363 100.764C93.0363 91.5643 101.336 89.9309 105.336 90.2642C105.503 96.0976 107.092 109.317 114.336 114.264C134.836 128.264 137.836 151.774 137.836 149.264C137.836 135.264 122.336 111.264 140.836 88.7643C157.692 68.2643 157.836 74.7643 147.336 105.764C142.641 119.628 156.336 124.764 162.336 115.264L170.336 89.2642L178.336 90.2642L175.836 111.264L198.336 98.2643L201.836 108.264C192.17 113.431 172.336 124.164 170.336 125.764C168.336 127.364 163.17 137.431 160.836 142.264V156.264C169.836 152.098 188.036 143.564 188.836 142.764C189.636 141.964 200.17 125.098 205.336 116.764L216.836 117.764L200.336 144.764C207.17 145.098 220.936 145.664 221.336 145.264C221.736 144.864 230.503 140.431 234.836 138.264L236.336 148.764L226.836 153.764L194.836 155.264C185.503 162.264 166.536 176.764 165.336 178.764C163.836 181.264 166.336 206.764 166.336 207.264C166.336 207.764 174.836 219.264 175.836 219.264C176.636 219.264 184.503 222.264 188.336 223.764L201.336 234.264C191.003 233.598 170.236 231.964 169.836 230.764C169.436 229.564 163.003 223.598 159.836 220.764L171.336 237.264L158.836 235.764C155.336 234.431 147.836 231.664 145.836 231.264C143.336 230.764 131.336 240.764 130.336 240.764C129.536 240.764 116.336 240.431 109.836 240.264L123.66 222.491C118.472 227.279 107.817 233.331 90.3363 234.764Z" fill="url(#paint0_linear_18_43)"/>
<path d="M127.336 217.764L109.836 240.264C116.336 240.431 129.536 240.764 130.336 240.764C131.336 240.764 143.336 230.764 145.836 231.264C147.836 231.664 155.336 234.431 158.836 235.764L171.336 237.264L159.836 220.764C163.003 223.598 169.436 229.564 169.836 230.764C170.236 231.964 191.003 233.598 201.336 234.264L188.336 223.764C184.503 222.264 176.636 219.264 175.836 219.264C174.836 219.264 166.336 207.764 166.336 207.264C166.336 206.764 163.836 181.264 165.336 178.764C166.536 176.764 185.503 162.264 194.836 155.264L226.836 153.764L236.336 148.764L234.836 138.264C230.503 140.431 221.736 144.864 221.336 145.264C220.936 145.664 207.17 145.098 200.336 144.764L216.836 117.764L205.336 116.764C200.17 125.098 189.636 141.964 188.836 142.764C188.036 143.564 169.836 152.098 160.836 156.264V142.264C163.17 137.431 168.336 127.364 170.336 125.764C172.336 124.164 192.17 113.431 201.836 108.264L198.336 98.2643L175.836 111.264L178.336 90.2642L170.336 89.2642L162.336 115.264C156.336 124.764 142.641 119.628 147.336 105.764C157.836 74.7643 157.692 68.2643 140.836 88.7643C122.336 111.264 137.836 135.264 137.836 149.264C137.836 151.774 134.836 128.264 114.336 114.264C107.092 109.317 105.503 96.0976 105.336 90.2642C101.336 89.9309 93.0363 91.5643 91.8363 100.764C90.6363 109.964 108.336 133.598 117.336 144.264C116.836 148.098 115.736 155.864 115.336 156.264C114.936 156.664 100.17 148.431 92.8363 144.264L81.3363 117.264L72.3363 118.764L82.3363 144.264L52.8363 134.264C51.3363 137.264 49.2363 143.264 52.8363 143.264C57.3363 143.264 89.3363 156.764 90.8363 157.264C92.0363 157.664 106.336 173.764 113.336 181.764L111.336 209.264L94.8363 222.264L82.3363 225.264L73.3363 234.764H90.3363C114.736 232.764 125.836 221.764 127.336 217.764ZM127.336 217.764L127.836 186.264" stroke="#3C1E04" stroke-width="3" stroke-linecap="round"/>
<path d="M96.3485 111.45C102.749 121.85 123.015 134.45 131.849 138.45L127.849 130.45L120.849 121.95L116.849 118.45L113.849 115.95L105.849 104.45C101.015 102.95 89.9485 101.05 96.3485 111.45Z" fill="url(#paint1_linear_18_43)"/>
<path d="M135.349 102.95C136.549 103.75 144.515 103.117 146.349 103.45L150.849 88.9502L142.349 87.4502C139.515 92.2835 134.149 102.15 135.349 102.95Z" fill="url(#paint2_linear_18_43)"/>
<path d="M173.349 114.95L161.849 120.95L169.849 96.9502L175.849 97.4502L173.349 114.95Z" fill="url(#paint3_linear_18_43)"/>
<path d="M69.8485 146.95L73.8485 143.45L59.8485 137.95L55.8485 143.45L69.8485 146.95Z" fill="url(#paint4_linear_18_43)"/>
<path d="M79.8485 133.95L85.3485 131.45L81.3485 121.45L75.8485 122.95L79.8485 133.95Z" fill="url(#paint5_linear_18_43)"/>
<path d="M96.3485 111.45C102.749 121.85 123.015 134.45 131.849 138.45L127.849 130.45L120.849 121.95L116.849 118.45L113.849 115.95L105.849 104.45C101.015 102.95 89.9485 101.05 96.3485 111.45Z" stroke="url(#paint6_linear_18_43)"/>
<path d="M135.349 102.95C136.549 103.75 144.515 103.117 146.349 103.45L150.849 88.9502L142.349 87.4502C139.515 92.2835 134.149 102.15 135.349 102.95Z" stroke="url(#paint7_linear_18_43)"/>
<path d="M173.349 114.95L161.849 120.95L169.849 96.9502L175.849 97.4502L173.349 114.95Z" stroke="url(#paint8_linear_18_43)"/>
<path d="M69.8485 146.95L73.8485 143.45L59.8485 137.95L55.8485 143.45L69.8485 146.95Z" stroke="url(#paint9_linear_18_43)"/>
<path d="M79.8485 133.95L85.3485 131.45L81.3485 121.45L75.8485 122.95L79.8485 133.95Z" stroke="url(#paint10_linear_18_43)"/>
<path d="M144.349 229.45L128.849 239.45L139.349 220.95L140.349 205.95L147.849 199.45L147.349 148.45L161.849 121.45L180.849 110.45L190.349 104.95L191.349 112.45L167.849 126.45L158.849 142.45V157.95L154.849 164.45L155.349 174.45L191.349 151.95L223.849 149.45L229.849 146.95L231.349 149.95L224.349 153.45L192.849 154.95L163.349 178.95L164.849 208.45L174.849 220.95L180.849 222.95L187.349 225.45L195.849 231.95C189.849 231.45 178.849 231.95 170.349 229.45C150.349 206.45 164.849 231.95 167.349 234.95L159.349 234.45L144.349 229.45Z" fill="url(#paint11_linear_18_43)" stroke="url(#paint12_linear_18_43)"/>
<path d="M232.349 139.45C224.349 165.95 256.182 156.783 270.349 150.95C306.849 117.95 268.419 103.95 269.348 100.45C277.849 68.4502 244.953 68.5342 245.348 66.4502C250.849 37.4502 211.348 35.4502 210.848 32.4502C208.349 17.4504 195.851 27.5667 193.848 24.9502C157.849 -24.0498 125.849 18.9502 125.849 18.9502C97.2345 10.0083 88.6819 27.6168 87.8485 37.9502C47.8485 22.9502 44.9666 58.4502 43.8485 58.4502C26.8485 58.4502 33.8485 73.9501 31.3485 75.4501C11.6774 87.2526 21.3485 95.9501 14.3484 101.45C-16.2525 125.493 17.3519 142.577 17.8485 146.45C18.2485 165.65 33.3485 170.95 38.8485 169.45C60.3485 159.95 39.8485 153.95 39.8485 153.95C58.8485 152.95 57.8485 139.95 57.8485 139.95C76.3485 134.45 70.3485 126.45 70.3485 126.45C112.849 120.95 78.779 100.063 80.3485 100.95C114.849 120.45 111.849 76.4502 120.349 85.4502C138.798 104.985 154.448 84.7795 156.849 89.9502C163.349 103.95 180.92 96.3216 181.849 95.9502C184.349 94.9502 189.258 98.8608 189.349 104.45C189.849 135.45 215.849 123.45 215.849 123.45C215.849 130.695 226.849 130.45 231.849 129.45C229.349 136.95 232.493 138.972 232.349 139.45Z" fill="url(#paint13_radial_18_43)" stroke="#073C22" stroke-width="3"/>
<path d="M250.349 142.45C259.549 142.05 262.015 134.283 261.849 130.45C271.849 124.45 260.349 115.95 260.349 115.95C266.349 123.15 260.515 127.617 256.849 128.45C258.849 138.452 250.349 142.45 250.349 142.45Z" fill="#02391D" stroke="#02391D"/>
<path d="M208.849 115.95C208.849 103.95 194.849 103.95 191.349 104.95C190.349 123.45 204.349 127.95 217.349 120.95C217.349 120.95 214.849 131.95 234.849 127.45C234.849 127.45 227.849 130.45 233.849 139.45C227.849 161.95 249.849 155.95 261.849 151.95L268.349 149.95C269.849 148.45 283.349 138.45 284.349 124.45C285.133 113.467 266.349 100.95 266.349 100.95C261.349 98.9501 248.849 109.95 245.849 113.45C237.049 111.85 232.849 118.117 231.849 121.45C223.849 107.95 208.849 115.95 208.849 115.95Z" fill="url(#paint14_linear_18_43)" stroke="url(#paint15_linear_18_43)"/>
<path d="M120.849 218.45L91.8485 232.95L102.849 231.45L113.849 227.45L121.849 221.95L125.349 217.45C125.849 205.95 125.849 186.45 125.849 186.45C125.349 186.45 121.92 211.95 120.849 218.45Z" fill="#673E1E" stroke="#673E1E"/>
<path d="M224.349 89.9502C221.849 86.9502 210.849 88.9502 211.849 97.9502C212.849 106.95 215.49 107.878 217.849 109.45C219.349 110.45 221.349 110.284 222.349 109.45H225.849C232.349 112.95 236.349 101.95 236.349 97.4502C236.349 88.8154 229.182 88.9502 224.349 89.9502Z" fill="url(#paint16_linear_18_43)"/>
<path d="M224.349 89.9502C221.849 86.9502 210.849 88.9502 211.849 97.9502C212.849 106.95 215.49 107.878 217.849 109.45C219.349 110.45 221.349 110.284 222.349 109.45H225.849C232.349 112.95 236.349 101.95 236.349 97.4502C236.349 88.8154 229.182 88.9502 224.349 89.9502ZM224.349 89.9502C224.349 89.9502 224.515 88.1168 223.849 85.4502L220.849 82.9502" stroke="black"/>
<path d="M224.349 89.9502C221.849 86.9502 210.849 88.9502 211.849 97.9502C212.849 106.95 215.49 107.878 217.849 109.45C219.349 110.45 221.349 110.284 222.349 109.45H225.849C232.349 112.95 236.349 101.95 236.349 97.4502C236.349 88.8154 229.182 88.9502 224.349 89.9502ZM224.349 89.9502C224.349 89.9502 224.515 88.1168 223.849 85.4502L220.849 82.9502" stroke="black" stroke-opacity="0.2"/>
<path d="M223.849 85.4502C224.515 88.1168 224.349 89.9502 224.349 89.9502C225.849 89.9502 238.849 81.9502 234.349 80.4502C230.749 79.2502 225.849 83.2835 223.849 85.4502Z" fill="url(#paint17_linear_18_43)" stroke="black"/>
<path d="M219.849 92.9502C220.849 93.9502 220.349 98.3502 216.349 97.9502C211.349 97.4502 217.349 90.9502 219.849 92.9502Z" fill="white" stroke="white"/>
<path d="M43.4126 104.669C40.9126 101.669 29.9126 103.669 30.9126 112.669C31.9126 121.669 34.5538 122.596 36.9126 124.169C38.4126 125.169 40.4126 125.002 41.4126 124.169H44.9126C51.4126 127.669 55.4126 116.669 55.4126 112.169C55.4126 103.534 48.2459 103.669 43.4126 104.669Z" fill="url(#paint18_linear_18_43)"/>
<path d="M43.4126 104.669C40.9126 101.669 29.9126 103.669 30.9126 112.669C31.9126 121.669 34.5538 122.596 36.9126 124.169C38.4126 125.169 40.4126 125.002 41.4126 124.169H44.9126C51.4126 127.669 55.4126 116.669 55.4126 112.169C55.4126 103.534 48.2459 103.669 43.4126 104.669ZM43.4126 104.669C43.4126 104.669 43.5793 102.835 42.9126 100.169L39.9126 97.6687" stroke="black"/>
<path d="M43.4126 104.669C40.9126 101.669 29.9126 103.669 30.9126 112.669C31.9126 121.669 34.5538 122.596 36.9126 124.169C38.4126 125.169 40.4126 125.002 41.4126 124.169H44.9126C51.4126 127.669 55.4126 116.669 55.4126 112.169C55.4126 103.534 48.2459 103.669 43.4126 104.669ZM43.4126 104.669C43.4126 104.669 43.5793 102.835 42.9126 100.169L39.9126 97.6687" stroke="black" stroke-opacity="0.2"/>
<path d="M42.9126 100.169C43.5793 102.835 43.4126 104.669 43.4126 104.669C44.9126 104.669 57.9126 96.6687 53.4126 95.1687C49.8126 93.9687 44.9126 98.002 42.9126 100.169Z" fill="url(#paint19_linear_18_43)" stroke="black"/>
<path d="M38.9126 107.669C39.9126 108.669 39.4126 113.069 35.4126 112.669C30.4126 112.169 36.4126 105.669 38.9126 107.669Z" fill="white" stroke="white"/>
<path d="M86.4126 49.6687C83.9126 46.6687 72.9126 48.6687 73.9126 57.6687C74.9126 66.6687 77.5538 67.5962 79.9126 69.1687C81.4126 70.1687 83.4126 70.0021 84.4126 69.1687H87.9126C94.4126 72.6687 98.4126 61.6687 98.4126 57.1687C98.4126 48.5339 91.2459 48.6687 86.4126 49.6687Z" fill="url(#paint20_linear_18_43)"/>
<path d="M86.4126 49.6687C83.9126 46.6687 72.9126 48.6687 73.9126 57.6687C74.9126 66.6687 77.5538 67.5962 79.9126 69.1687C81.4126 70.1687 83.4126 70.0021 84.4126 69.1687H87.9126C94.4126 72.6687 98.4126 61.6687 98.4126 57.1687C98.4126 48.5339 91.2459 48.6687 86.4126 49.6687ZM86.4126 49.6687C86.4126 49.6687 86.5793 47.8354 85.9126 45.1687L82.9126 42.6687" stroke="black"/>
<path d="M86.4126 49.6687C83.9126 46.6687 72.9126 48.6687 73.9126 57.6687C74.9126 66.6687 77.5538 67.5962 79.9126 69.1687C81.4126 70.1687 83.4126 70.0021 84.4126 69.1687H87.9126C94.4126 72.6687 98.4126 61.6687 98.4126 57.1687C98.4126 48.5339 91.2459 48.6687 86.4126 49.6687ZM86.4126 49.6687C86.4126 49.6687 86.5793 47.8354 85.9126 45.1687L82.9126 42.6687" stroke="black" stroke-opacity="0.2"/>
<path d="M85.9126 45.1687C86.5793 47.8354 86.4126 49.6687 86.4126 49.6687C87.9126 49.6687 100.913 41.6687 96.4126 40.1687C92.8126 38.9687 87.9126 43.002 85.9126 45.1687Z" fill="url(#paint21_linear_18_43)" stroke="black"/>
<path d="M81.9126 52.6687C82.9126 53.6687 82.4126 58.0687 78.4126 57.6687C73.4126 57.1687 79.4126 50.6687 81.9126 52.6687Z" fill="white" stroke="white"/>
<path d="M141.413 64.6687C138.913 61.6687 127.913 63.6687 128.913 72.6687C129.913 81.6687 132.554 82.5962 134.913 84.1687C136.413 85.1687 138.413 85.0021 139.413 84.1687H142.913C149.413 87.6687 153.413 76.6687 153.413 72.1687C153.413 63.5339 146.246 63.6687 141.413 64.6687Z" fill="url(#paint22_linear_18_43)"/>
<path d="M141.413 64.6687C138.913 61.6687 127.913 63.6687 128.913 72.6687C129.913 81.6687 132.554 82.5962 134.913 84.1687C136.413 85.1687 138.413 85.0021 139.413 84.1687H142.913C149.413 87.6687 153.413 76.6687 153.413 72.1687C153.413 63.5339 146.246 63.6687 141.413 64.6687ZM141.413 64.6687C141.413 64.6687 141.579 62.8354 140.913 60.1687L137.913 57.6687" stroke="black"/>
<path d="M141.413 64.6687C138.913 61.6687 127.913 63.6687 128.913 72.6687C129.913 81.6687 132.554 82.5962 134.913 84.1687C136.413 85.1687 138.413 85.0021 139.413 84.1687H142.913C149.413 87.6687 153.413 76.6687 153.413 72.1687C153.413 63.5339 146.246 63.6687 141.413 64.6687ZM141.413 64.6687C141.413 64.6687 141.579 62.8354 140.913 60.1687L137.913 57.6687" stroke="black" stroke-opacity="0.2"/>
<path d="M140.913 60.1687C141.579 62.8354 141.413 64.6687 141.413 64.6687C142.913 64.6687 155.913 56.6687 151.413 55.1687C147.813 53.9687 142.913 58.002 140.913 60.1687Z" fill="url(#paint23_linear_18_43)" stroke="black"/>
<path d="M136.913 67.6687C137.913 68.6687 137.413 73.0687 133.413 72.6687C128.413 72.1687 134.413 65.6687 136.913 67.6687Z" fill="white" stroke="white"/>
<path d="M191.413 39.6687C188.913 36.6687 177.913 38.6687 178.913 47.6687C179.913 56.6687 182.554 57.5962 184.913 59.1687C186.413 60.1687 188.413 60.0021 189.413 59.1687H192.913C199.413 62.6687 203.413 51.6687 203.413 47.1687C203.413 38.5339 196.246 38.6687 191.413 39.6687Z" fill="url(#paint24_linear_18_43)"/>
<path d="M191.413 39.6687C188.913 36.6687 177.913 38.6687 178.913 47.6687C179.913 56.6687 182.554 57.5962 184.913 59.1687C186.413 60.1687 188.413 60.0021 189.413 59.1687H192.913C199.413 62.6687 203.413 51.6687 203.413 47.1687C203.413 38.5339 196.246 38.6687 191.413 39.6687ZM191.413 39.6687C191.413 39.6687 191.579 37.8354 190.913 35.1687L187.913 32.6687" stroke="black"/>
<path d="M191.413 39.6687C188.913 36.6687 177.913 38.6687 178.913 47.6687C179.913 56.6687 182.554 57.5962 184.913 59.1687C186.413 60.1687 188.413 60.0021 189.413 59.1687H192.913C199.413 62.6687 203.413 51.6687 203.413 47.1687C203.413 38.5339 196.246 38.6687 191.413 39.6687ZM191.413 39.6687C191.413 39.6687 191.579 37.8354 190.913 35.1687L187.913 32.6687" stroke="black" stroke-opacity="0.2"/>
<path d="M190.913 35.1687C191.579 37.8354 191.413 39.6687 191.413 39.6687C192.913 39.6687 205.913 31.6687 201.413 30.1687C197.813 28.9687 192.913 33.002 190.913 35.1687Z" fill="url(#paint25_linear_18_43)" stroke="black"/>
<path d="M186.913 42.6687C187.913 43.6687 187.413 48.0687 183.413 47.6687C178.413 47.1687 184.413 40.6687 186.913 42.6687Z" fill="white" stroke="white"/>
<defs>
<linearGradient id="paint0_linear_18_43" x1="143.592" y1="76.9502" x2="143.592" y2="240.764" gradientUnits="userSpaceOnUse">
<stop stop-color="#A9754E"/>
<stop offset="1" stop-color="#653B1B"/>
</linearGradient>
<linearGradient id="paint1_linear_18_43" x1="115.849" y1="87.4502" x2="115.849" y2="146.95" gradientUnits="userSpaceOnUse">
<stop stop-color="#603C1F"/>
<stop offset="1" stop-color="#6E4321"/>
</linearGradient>
<linearGradient id="paint2_linear_18_43" x1="115.849" y1="87.4502" x2="115.849" y2="146.95" gradientUnits="userSpaceOnUse">
<stop stop-color="#603C1F"/>
<stop offset="1" stop-color="#6E4321"/>
</linearGradient>
<linearGradient id="paint3_linear_18_43" x1="115.849" y1="87.4502" x2="115.849" y2="146.95" gradientUnits="userSpaceOnUse">
<stop stop-color="#603C1F"/>
<stop offset="1" stop-color="#6E4321"/>
</linearGradient>
<linearGradient id="paint4_linear_18_43" x1="115.849" y1="87.4502" x2="115.849" y2="146.95" gradientUnits="userSpaceOnUse">
<stop stop-color="#603C1F"/>
<stop offset="1" stop-color="#6E4321"/>
</linearGradient>
<linearGradient id="paint5_linear_18_43" x1="115.849" y1="87.4502" x2="115.849" y2="146.95" gradientUnits="userSpaceOnUse">
<stop stop-color="#603C1F"/>
<stop offset="1" stop-color="#6E4321"/>
</linearGradient>
<linearGradient id="paint6_linear_18_43" x1="115.849" y1="87.4502" x2="115.849" y2="146.95" gradientUnits="userSpaceOnUse">
<stop stop-color="#603C1F"/>
<stop offset="1" stop-color="#6E4321"/>
</linearGradient>
<linearGradient id="paint7_linear_18_43" x1="115.849" y1="87.4502" x2="115.849" y2="146.95" gradientUnits="userSpaceOnUse">
<stop stop-color="#603C1F"/>
<stop offset="1" stop-color="#6E4321"/>
</linearGradient>
<linearGradient id="paint8_linear_18_43" x1="115.849" y1="87.4502" x2="115.849" y2="146.95" gradientUnits="userSpaceOnUse">
<stop stop-color="#603C1F"/>
<stop offset="1" stop-color="#6E4321"/>
</linearGradient>
<linearGradient id="paint9_linear_18_43" x1="115.849" y1="87.4502" x2="115.849" y2="146.95" gradientUnits="userSpaceOnUse">
<stop stop-color="#603C1F"/>
<stop offset="1" stop-color="#6E4321"/>
</linearGradient>
<linearGradient id="paint10_linear_18_43" x1="115.849" y1="87.4502" x2="115.849" y2="146.95" gradientUnits="userSpaceOnUse">
<stop stop-color="#603C1F"/>
<stop offset="1" stop-color="#6E4321"/>
</linearGradient>
<linearGradient id="paint11_linear_18_43" x1="180.099" y1="104.95" x2="180.099" y2="239.45" gradientUnits="userSpaceOnUse">
<stop offset="0.000100017" stop-color="#663C1B"/>
<stop offset="0.485577" stop-color="#805230"/>
<stop offset="0.990385" stop-color="#653B1B"/>
</linearGradient>
<linearGradient id="paint12_linear_18_43" x1="180.099" y1="104.95" x2="180.099" y2="239.45" gradientUnits="userSpaceOnUse">
<stop offset="0.000100017" stop-color="#663C1B"/>
<stop offset="0.485577" stop-color="#805230"/>
<stop offset="0.990385" stop-color="#653B1B"/>
</linearGradient>
<radialGradient id="paint13_radial_18_43" cx="0" cy="0" r="1" gradientUnits="userSpaceOnUse" gradientTransform="translate(143.808 85.5948) rotate(90) scale(84.0947 142.308)">
<stop stop-color="#489F37"/>
<stop offset="1" stop-color="#16703A"/>
</radialGradient>
<linearGradient id="paint14_linear_18_43" x1="237.835" y1="100.709" x2="237.835" y2="155.795" gradientUnits="userSpaceOnUse">
<stop stop-color="#257E3A"/>
<stop offset="1" stop-color="#08472A"/>
</linearGradient>
<linearGradient id="paint15_linear_18_43" x1="237.835" y1="100.709" x2="237.835" y2="155.795" gradientUnits="userSpaceOnUse">
<stop stop-color="#257E3A"/>
<stop offset="1" stop-color="#08472A"/>
</linearGradient>
<linearGradient id="paint16_linear_18_43" x1="224.067" y1="82.9502" x2="224.067" y2="110.139" gradientUnits="userSpaceOnUse">
<stop stop-color="#F32225"/>
<stop offset="1" stop-color="#8D1415"/>
</linearGradient>
<linearGradient id="paint17_linear_18_43" x1="229.57" y1="80.2316" x2="229.57" y2="89.9502" gradientUnits="userSpaceOnUse">
<stop stop-color="#267D0F"/>
<stop offset="1" stop-color="#214319"/>
</linearGradient>
<linearGradient id="paint18_linear_18_43" x1="43.1306" y1="97.6687" x2="43.1306" y2="124.858" gradientUnits="userSpaceOnUse">
<stop stop-color="#F32225"/>
<stop offset="1" stop-color="#8D1415"/>
</linearGradient>
<linearGradient id="paint19_linear_18_43" x1="48.6337" y1="94.9502" x2="48.6337" y2="104.669" gradientUnits="userSpaceOnUse">
<stop stop-color="#267D0F"/>
<stop offset="1" stop-color="#214319"/>
</linearGradient>
<linearGradient id="paint20_linear_18_43" x1="86.1306" y1="42.6687" x2="86.1306" y2="69.8576" gradientUnits="userSpaceOnUse">
<stop stop-color="#F32225"/>
<stop offset="1" stop-color="#8D1415"/>
</linearGradient>
<linearGradient id="paint21_linear_18_43" x1="91.6337" y1="39.9502" x2="91.6337" y2="49.6687" gradientUnits="userSpaceOnUse">
<stop stop-color="#267D0F"/>
<stop offset="1" stop-color="#214319"/>
</linearGradient>
<linearGradient id="paint22_linear_18_43" x1="141.131" y1="57.6687" x2="141.131" y2="84.8576" gradientUnits="userSpaceOnUse">
<stop stop-color="#F32225"/>
<stop offset="1" stop-color="#8D1415"/>
</linearGradient>
<linearGradient id="paint23_linear_18_43" x1="146.634" y1="54.9502" x2="146.634" y2="64.6687" gradientUnits="userSpaceOnUse">
<stop stop-color="#267D0F"/>
<stop offset="1" stop-color="#214319"/>
</linearGradient>
<linearGradient id="paint24_linear_18_43" x1="191.131" y1="32.6687" x2="191.131" y2="59.8576" gradientUnits="userSpaceOnUse">
<stop stop-color="#F32225"/>
<stop offset="1" stop-color="#8D1415"/>
</linearGradient>
<linearGradient id="paint25_linear_18_43" x1="196.634" y1="29.9502" x2="196.634" y2="39.6687" gradientUnits="userSpaceOnUse">
<stop stop-color="#267D0F"/>
<stop offset="1" stop-color="#214319"/>
</linearGradient>
</defs>
</svg>
