<svg width="96" height="96" viewBox="0 0 96 96" fill="none" xmlns="http://www.w3.org/2000/svg">
<g clip-path="url(#clip0_201_2431)">
<path d="M48.9976 22.0462C49.4184 18.1553 49.2625 14.9372 47.0696 12.2619C43.9022 8.39747 39.8285 7.20494 35.8303 9.51327C31.8334 11.8209 31.5305 17.8194 30.1062 18.6417C28.6819 19.4641 23.3356 16.7271 19.3387 19.0347C15.3405 21.3431 14.3369 25.4671 16.0994 30.1426C17.3612 33.49 20.2122 35.215 23.9232 36.8163C28.8848 38.9572 36.2106 40.5807 40.377 41.3982C42.2415 41.764 44.0672 40.7126 44.6861 38.9162C46.0895 34.843 48.4046 27.5296 48.9976 22.0462Z" fill="#5BDD9E"/>
<path fill-rule="evenodd" clip-rule="evenodd" d="M50.986 22.2612C51.4178 18.2692 51.3509 14.3301 48.6165 10.994C46.8385 8.82483 44.6876 7.26064 42.26 6.63587C39.7941 6.00121 37.2412 6.38927 34.8304 7.78117C32.2081 9.29513 30.9252 11.9375 30.1456 13.8942C29.9447 14.3984 29.7669 14.8862 29.6104 15.3155C29.4492 15.7576 29.316 16.1226 29.1875 16.4378C29.1304 16.5779 29.08 16.6933 29.0359 16.7878C28.932 16.7788 28.8068 16.7647 28.657 16.7441C28.3198 16.6978 27.937 16.6306 27.4736 16.5492C27.0235 16.4701 26.5122 16.3802 25.9751 16.302C23.8908 15.9989 20.961 15.7887 18.3387 17.3026C15.9278 18.6946 14.3154 20.7114 13.6322 23.1643C12.9596 25.5789 13.2387 28.2237 14.228 30.848C15.8018 35.0229 19.3619 37.0263 23.1309 38.6526C28.3113 40.8879 35.83 42.5441 39.992 43.3607C42.8358 43.9187 45.6329 42.3079 46.5771 39.5676C47.9787 35.4996 50.3661 27.9934 50.986 22.2612ZM29.4027 16.7963C29.4025 16.7961 29.3973 16.7966 29.3877 16.7983C29.3981 16.7974 29.4029 16.7965 29.4027 16.7963ZM28.8691 17.0977C28.8628 17.1052 28.8598 17.1095 28.8599 17.1097C28.8599 17.11 28.8631 17.1063 28.8691 17.0977ZM47.0697 12.2618C49.2625 14.9372 49.4184 18.1552 48.9976 22.0462C48.4046 27.5295 46.0895 34.8429 44.6862 38.9161C44.0672 40.7125 42.2415 41.764 40.377 41.3982C36.2106 40.5807 28.8849 38.9572 23.9233 36.8162C20.2122 35.2149 17.3613 33.4899 16.0994 30.1425C14.3369 25.4671 15.3405 21.343 19.3387 19.0347C21.8415 17.5897 24.8735 18.1227 27.1402 18.5212C28.4933 18.7591 29.5738 18.9491 30.1062 18.6417C30.6387 18.3343 31.0144 17.3036 31.4849 16.0128C32.2732 13.8505 33.3275 10.9582 35.8304 9.51323C39.8285 7.20489 43.9022 8.39742 47.0697 12.2618Z" fill="#024525"/>
<path fill-rule="evenodd" clip-rule="evenodd" d="M46.1961 26.5194C46.7377 26.6277 47.0889 27.1545 46.9806 27.6961C46.1568 31.8149 43.916 37.235 42.908 39.4192C42.7772 39.7026 42.5216 39.9087 42.2169 39.9764C40.197 40.4253 37.8129 40.1354 35.7346 39.6489C33.6342 39.1572 31.7203 38.434 30.5809 37.9081C30.0795 37.6767 29.8606 37.0826 30.092 36.5811C30.3235 36.0797 30.9176 35.8608 31.4191 36.0922C32.4464 36.5664 34.2325 37.2432 36.1904 37.7015C37.9761 38.1195 39.8045 38.3314 41.3052 38.1115C42.3656 35.7386 44.2949 30.9263 45.0194 27.3038C45.1277 26.7623 45.6546 26.4111 46.1961 26.5194Z" fill="#7CF8BC"/>
<path d="M70.4154 53.5318C74.5756 55.3479 77.7212 57.3568 79.1273 61.1022C81.1584 66.5122 79.971 71.2961 75.3065 73.9891C70.6434 76.6813 64.4324 73.5337 62.7706 74.4931C61.1089 75.4525 60.7293 82.4053 56.0662 85.0975C51.4017 87.7906 46.6655 86.4266 42.9954 81.963C40.3677 78.7672 40.3031 74.9068 40.8669 70.2525C41.6501 63.7864 44.4909 55.0744 46.0839 50.5358C46.7088 48.7554 48.5134 47.7107 50.3684 48.0558C55.1633 48.948 64.3263 50.8738 70.4154 53.5318Z" fill="#34AD73"/>
<path fill-rule="evenodd" clip-rule="evenodd" d="M71.2155 51.6988C75.4671 53.5547 79.2905 55.8465 80.9997 60.3992C82.1242 63.3944 82.4228 66.39 81.652 69.1098C80.8709 71.8659 79.0458 74.1396 76.3065 75.7211C73.3564 77.4244 70.0491 77.2119 67.6338 76.8713C67.0145 76.784 66.4242 76.6829 65.9002 76.5932C65.3627 76.5011 64.9109 76.4239 64.5112 76.3708C64.211 76.3309 63.9851 76.3111 63.8172 76.3058C63.7379 76.4539 63.642 76.6594 63.5265 76.9393C63.3726 77.312 63.2136 77.742 63.0246 78.2534C62.8403 78.7521 62.6327 79.3138 62.3987 79.8938C61.486 82.1558 60.0163 85.1263 57.0662 86.8295C54.3268 88.4111 51.4454 88.8547 48.668 88.153C45.9273 87.4607 43.4824 85.7043 41.4505 83.2332C38.2561 79.348 38.3103 74.7265 38.8814 70.0119C39.6939 63.3038 42.6067 54.4035 44.1968 49.8734C45.1483 47.1626 47.9091 45.5639 50.7343 46.0896C55.5192 46.9799 64.8917 48.9383 71.2155 51.6988ZM63.9565 76.0813C63.9566 76.0814 63.9547 76.0837 63.9509 76.0879C63.9546 76.0832 63.9565 76.0811 63.9565 76.0813ZM63.5616 76.3127C63.5561 76.3139 63.5532 76.3143 63.5531 76.3142C63.553 76.3141 63.5557 76.3135 63.5616 76.3127ZM79.1273 61.1021C77.7212 57.3567 74.5757 55.3478 70.4154 53.5318C64.3263 50.8738 55.1633 48.948 50.3684 48.0558C48.5134 47.7106 46.7088 48.7554 46.0839 50.5358C44.4909 55.0743 41.6501 63.7864 40.8669 70.2524C40.3031 74.9068 40.3677 78.7672 42.9954 81.9629C46.6655 86.4266 51.4017 87.7905 56.0662 85.0975C58.9862 83.4116 60.2266 80.0552 61.1539 77.5458C61.7075 76.0478 62.1495 74.8517 62.7706 74.4931C63.3918 74.1345 64.6487 74.3497 66.2227 74.6193C68.8596 75.0709 72.3865 75.6749 75.3065 73.9891C79.971 71.296 81.1585 66.5121 79.1273 61.1021Z" fill="#024525"/>
<path fill-rule="evenodd" clip-rule="evenodd" d="M48.7567 50.9748C48.7496 50.9803 48.698 51.025 48.6485 51.1677C47.4703 54.5639 45.9238 59.6818 44.8639 64.749C43.7924 69.8713 43.2624 74.7494 43.9734 77.7711C44.0999 78.3087 43.7666 78.8471 43.229 78.9736C42.6914 79.1001 42.153 78.7668 42.0265 78.2292C41.2032 74.7298 41.8365 69.454 42.9062 64.3396C43.9875 59.1701 45.56 53.9684 46.759 50.5122C46.9027 50.0979 47.1485 49.6885 47.5375 49.3894C47.9406 49.0794 48.433 48.9387 48.9564 48.9753C50.4883 49.0824 54.0302 49.5862 61.1959 51.0193C61.7375 51.1277 62.0887 51.6545 61.9804 52.196C61.8721 52.7376 61.3453 53.0888 60.8037 52.9805C53.6377 51.5473 50.208 51.0677 48.8169 50.9704C48.7779 50.9677 48.7614 50.9725 48.7599 50.9729L48.7599 50.9729C48.7598 50.973 48.7596 50.973 48.7595 50.973C48.7591 50.9731 48.7589 50.9731 48.7567 50.9748Z" fill="#63E3A5"/>
<path d="M70.8802 48.498C75.2415 48.9437 78.8515 48.7505 81.8652 46.2903C86.2183 42.7367 87.5803 38.189 85.0154 33.7466C82.4514 29.3056 75.7258 29.0041 74.812 27.4215C73.8983 25.8389 77.0001 19.8636 74.436 15.4226C71.8712 10.9802 67.252 9.88637 61.9978 11.8789C58.236 13.3055 56.2842 16.4935 54.466 20.6394C51.9753 26.3185 50.0789 34.7604 49.1605 39.3421C48.7835 41.223 49.8434 43.0657 51.6596 43.6834C56.1459 45.2091 64.5844 47.8547 70.8802 48.498Z" fill="#1BA965"/>
<path fill-rule="evenodd" clip-rule="evenodd" d="M70.6768 50.4877C75.1419 50.944 79.4628 50.8333 83.1299 47.8397C85.54 45.8723 87.2692 43.51 87.9682 40.8623C88.678 38.1738 88.2714 35.3862 86.7474 32.7467C85.1011 29.8951 82.2034 28.503 80.0238 27.6498C79.4632 27.4304 78.9202 27.2362 78.4394 27.0642C77.9456 26.8876 77.5326 26.7398 77.1751 26.5965C76.949 26.5059 76.7755 26.4289 76.6441 26.3638C76.6534 26.2174 76.6735 26.0287 76.7081 25.7876C76.7628 25.4064 76.8412 24.9748 76.9352 24.4589C77.0267 23.9565 77.13 23.3892 77.2202 22.7939C77.5712 20.4797 77.8144 17.2742 76.168 14.4226C74.6441 11.7831 72.4333 10.0373 69.7501 9.30775C67.1077 8.58936 64.1974 8.90582 61.2886 10.0089C56.7103 11.7451 54.4792 15.6295 52.6343 19.8362C50.0468 25.7362 48.1166 34.3739 47.1995 38.949C46.6253 41.8135 48.2472 44.6355 51.0156 45.5769C55.4947 47.1002 64.1291 49.8187 70.6768 50.4877ZM76.6445 26.676C76.6447 26.6758 76.6442 26.6717 76.6427 26.6641C76.6436 26.6723 76.6444 26.6761 76.6445 26.676ZM76.3834 26.2149C76.3775 26.2098 76.3742 26.2073 76.374 26.2074C76.3738 26.2074 76.3767 26.21 76.3834 26.2149ZM81.8652 46.2904C78.8515 48.7506 75.2414 48.9437 70.8801 48.4981C64.5844 47.8548 56.1459 45.2091 51.6595 43.6834C49.8433 43.0658 48.7834 41.2231 49.1605 39.3421C50.0789 34.7605 51.9753 26.3186 54.4659 20.6394C56.2841 16.4936 58.2359 13.3056 61.9977 11.879C67.252 9.88642 71.8712 10.9802 74.436 15.4226C76.0415 18.2036 75.4255 21.5861 74.9649 24.115C74.69 25.6246 74.4704 26.83 74.812 27.4216C75.1535 28.0132 76.3072 28.4258 77.7521 28.9425C80.1724 29.808 83.4098 30.9658 85.0154 33.7467C87.5802 38.1891 86.2182 42.7368 81.8652 46.2904Z" fill="#024525"/>
<path fill-rule="evenodd" clip-rule="evenodd" d="M47.5345 49.393C47.9366 49.0821 48.4296 48.9383 48.9561 48.9751C49.5445 49.0163 50.414 49.1145 51.6455 49.2959C52.1919 49.3763 52.5696 49.8845 52.4892 50.4309C52.4087 50.9773 51.9005 51.355 51.3541 51.2745C50.1459 51.0966 49.3327 51.0063 48.8166 50.9703C48.7792 50.9676 48.7634 50.9723 48.7621 50.9727L48.762 50.9727C48.762 50.9727 48.7619 50.9727 48.7618 50.9727C48.7613 50.9728 48.7608 50.9729 48.7578 50.9752C48.749 50.9821 48.6966 51.0288 48.647 51.1718C48.2356 52.3577 47.7786 53.7559 47.3126 55.2905C47.1521 55.819 46.5936 56.1173 46.0652 55.9568C45.5367 55.7963 45.2384 55.2379 45.3989 54.7094C45.8721 53.1508 46.3372 51.7278 46.7574 50.5164C46.901 50.1024 47.1466 49.6929 47.5345 49.393Z" fill="#DAFFED"/>
<path d="M37.2042 66.0603C35.6232 69.6404 33.8791 72.3493 30.6424 73.5699C25.9671 75.3328 21.8429 74.3287 19.5346 70.3306C17.227 66.3337 19.9639 60.9874 19.1416 59.563C18.3192 58.1387 12.3207 57.8358 10.0131 53.8389C7.70478 49.8408 8.89763 45.7674 12.7617 42.5996C15.5282 40.3316 18.8597 40.2632 22.8742 40.7319C28.2416 41.3586 35.3976 43.6155 39.4146 44.9908C41.2122 45.6062 42.2675 47.4296 41.9054 49.2948C41.0841 53.524 39.4323 61.0151 37.2042 66.0603Z" fill="#4ECC8F"/>
<path fill-rule="evenodd" clip-rule="evenodd" d="M39.0337 66.8683C37.4116 70.5414 35.3841 73.9193 31.348 75.4413C28.7237 76.4309 26.0788 76.71 23.6641 76.0373C21.2112 75.354 19.1944 73.7415 17.8024 71.3306C16.2885 68.7083 16.4987 65.7785 16.8018 63.6942C16.88 63.1571 16.9699 62.6458 17.049 62.1957C17.1305 61.7322 17.1976 61.3495 17.2439 61.0123C17.2645 60.8625 17.2786 60.7373 17.2877 60.6334C17.1931 60.5893 17.0777 60.5389 16.9376 60.4818C16.6225 60.3533 16.2574 60.2201 15.8153 60.0589C15.386 59.9024 14.8982 59.7246 14.394 59.5237C12.4374 58.7441 9.79494 57.4612 8.28098 54.8389C6.88905 52.4281 6.5011 49.8752 7.13581 47.4094C7.76062 44.9819 9.32477 42.831 11.4936 41.053C14.944 38.2243 19.0289 38.2694 23.1061 38.7454C28.7101 39.3998 36.0497 41.7248 40.0623 43.0986C42.8042 44.0373 44.4211 46.8308 43.8686 49.6761C43.0484 53.8999 41.3629 61.5941 39.0337 66.8683ZM17.6095 60.8094C17.6093 60.8095 17.605 60.8065 17.5975 60.8002C17.6061 60.8062 17.6098 60.8094 17.6095 60.8094ZM17.2981 60.2816C17.2964 60.272 17.2959 60.2668 17.2961 60.2666C17.2963 60.2664 17.2972 60.2712 17.2981 60.2816ZM30.6423 73.5699C33.8791 72.3494 35.6231 69.6404 37.2042 66.0604C39.4323 61.0152 41.0841 53.524 41.9053 49.2949C42.2675 47.4296 41.2121 45.6062 39.4145 44.9908C35.3975 43.6156 28.2415 41.3586 22.8742 40.7319C18.8597 40.2632 15.5282 40.3316 12.7616 42.5996C8.89755 45.7674 7.7047 49.8408 10.013 53.8389C11.458 56.3418 14.3503 57.3961 16.5126 58.1844C17.8034 58.6549 18.8341 59.0306 19.1415 59.5631C19.4489 60.0955 19.2589 61.1759 19.021 62.5291C18.6225 64.7958 18.0895 67.8278 19.5345 70.3306C21.8428 74.3288 25.9671 75.3329 30.6423 73.5699Z" fill="#024525"/>
<path fill-rule="evenodd" clip-rule="evenodd" d="M20.0194 41.8041C20.1276 41.2626 20.6545 40.9113 21.196 41.0196C26.1918 42.0185 34.3258 43.8405 40.4704 47.1176C40.8492 47.3196 41.0568 47.7409 40.9862 48.1643C40.4836 51.1802 39.599 55.8625 38.1387 60.3706C36.6948 64.8278 34.624 69.3268 31.6331 71.7739C31.2056 72.1236 30.5756 72.0606 30.2259 71.6332C29.8761 71.2057 29.9391 70.5757 30.3666 70.226C32.8757 68.1731 34.8049 64.1721 36.236 59.7543C37.5418 55.7233 38.3797 51.5213 38.892 48.5516C33.1137 45.633 25.6285 43.9455 20.8039 42.9808C20.2623 42.8725 19.9111 42.3457 20.0194 41.8041Z" fill="#7CF8BC"/>
<path fill-rule="evenodd" clip-rule="evenodd" d="M56.806 19.0481C57.3318 19.2171 57.621 19.7804 57.452 20.3062C56.0709 24.603 53.2672 33.9023 52.2161 39.352C52.1425 39.7337 52.325 40.064 52.6247 40.1994C55.4802 41.4892 61.9776 43.6547 72.1321 45.0087C72.6796 45.0817 73.0642 45.5846 72.9912 46.1321C72.9182 46.6795 72.4152 47.0641 71.8678 46.9911C61.5663 45.6176 54.8724 43.4092 51.8014 42.0221C50.6036 41.4811 50.0148 40.2048 50.2523 38.9732C51.3288 33.3918 54.1676 23.9886 55.5479 19.6941C55.7169 19.1683 56.2802 18.8791 56.806 19.0481Z" fill="#36CC84"/>
<path d="M55.9998 57.9998C55.9998 60.2089 54.2089 61.9998 51.9998 61.9998C49.7906 61.9998 47.9998 60.2089 47.9998 57.9998C47.9998 55.7906 49.7906 53.9998 51.9998 53.9998C54.2089 53.9998 55.9998 55.7906 55.9998 57.9998Z" fill="#6BE0A8"/>
<path d="M62.9998 35.9998C62.9998 38.2089 61.2089 39.9998 58.9998 39.9998C56.7906 39.9998 54.9998 38.2089 54.9998 35.9998C54.9998 33.7906 56.7906 31.9998 58.9998 31.9998C61.2089 31.9998 62.9998 33.7906 62.9998 35.9998Z" fill="#54CE94"/>
<path d="M41.9998 32.4998C41.9998 34.4328 40.4328 35.9998 38.4998 35.9998C36.5668 35.9998 34.9998 34.4328 34.9998 32.4998C34.9998 30.5668 36.5668 28.9998 38.4998 28.9998C40.4328 28.9998 41.9998 30.5668 41.9998 32.4998Z" fill="#7CF8BC"/>
<path d="M36.9998 51.4998C36.9998 53.4328 35.4328 54.9998 33.4998 54.9998C31.5668 54.9998 29.9998 53.4328 29.9998 51.4998C29.9998 49.5668 31.5668 47.9998 33.4998 47.9998C35.4328 47.9998 36.9998 49.5668 36.9998 51.4998Z" fill="#7CF8BC"/>
<path d="M67.9998 68C67.9998 68.5523 67.552 69 66.9998 69C66.4475 69 65.9998 68.5523 65.9998 68C65.9998 67.4477 66.4475 67 66.9998 67C67.552 67 67.9998 67.4477 67.9998 68Z" fill="#21945D"/>
<path d="M76.9998 67C76.9998 67.5523 76.552 68 75.9998 68C75.4475 68 74.9998 67.5523 74.9998 67C74.9998 66.4477 75.4475 66 75.9998 66C76.552 66 76.9998 66.4477 76.9998 67Z" fill="#21945D"/>
<path d="M72.9998 61C72.9998 61.5523 72.552 62 71.9998 62C71.4475 62 70.9998 61.5523 70.9998 61C70.9998 60.4477 71.4475 60 71.9998 60C72.552 60 72.9998 60.4477 72.9998 61Z" fill="#21945D"/>
<path d="M68.9998 71C68.9998 71.5523 68.552 72 67.9998 72C67.4475 72 66.9998 71.5523 66.9998 71C66.9998 70.4477 67.4475 70 67.9998 70C68.552 70 68.9998 70.4477 68.9998 71Z" fill="#21945D"/>
<path d="M63.9998 70C63.9998 70.5523 63.552 71 62.9998 71C62.4475 71 61.9998 70.5523 61.9998 70C61.9998 69.4477 62.4475 69 62.9998 69C63.552 69 63.9998 69.4477 63.9998 70Z" fill="#21945D"/>
<path d="M73.9998 70.5C73.9998 71.3284 73.3282 72 72.4998 72C71.6713 72 70.9998 71.3284 70.9998 70.5C70.9998 69.6716 71.6713 69 72.4998 69C73.3282 69 73.9998 69.6716 73.9998 70.5Z" fill="#21945D"/>
<path d="M73.9998 65.5C73.9998 66.3284 73.3282 67 72.4998 67C71.6713 67 70.9998 66.3284 70.9998 65.5C70.9998 64.6716 71.6713 64 72.4998 64C73.3282 64 73.9998 64.6716 73.9998 65.5Z" fill="#21945D"/>
<path d="M76.9998 60.5C76.9998 61.3284 76.3282 62 75.4998 62C74.6713 62 73.9998 61.3284 73.9998 60.5C73.9998 59.6716 74.6713 59 75.4998 59C76.3282 59 76.9998 59.6716 76.9998 60.5Z" fill="#21945D"/>
<path d="M15.6908 46.8562C15.5754 46.4969 15.7731 46.112 16.1324 45.9966C16.4917 45.8812 16.8765 46.0789 16.9919 46.4382C17.1074 46.7975 16.9097 47.1823 16.5504 47.2977C16.1911 47.4132 15.8062 47.2155 15.6908 46.8562Z" fill="#61EBA9"/>
<path d="M10.0448 49.3874C9.92941 49.0281 10.1271 48.6433 10.4864 48.5279C10.8457 48.4124 11.2305 48.6101 11.3459 48.9694C11.4614 49.3287 11.2637 49.7136 10.9044 49.829C10.5451 49.9444 10.1603 49.7467 10.0448 49.3874Z" fill="#61EBA9"/>
<path d="M13.901 52.4549C13.7856 52.0956 13.9833 51.7108 14.3426 51.5954C14.7019 51.48 15.0867 51.6777 15.2021 52.0369C15.3176 52.3962 15.1199 52.7811 14.7606 52.8965C14.4013 53.0119 14.0165 52.8142 13.901 52.4549Z" fill="#61EBA9"/>
<path d="M14.4135 45.1135C14.2981 44.7542 14.4958 44.3694 14.8551 44.2539C15.2143 44.1385 15.5992 44.3362 15.7146 44.6955C15.83 45.0548 15.6323 45.4396 15.273 45.5551C14.9137 45.6705 14.5289 45.4728 14.4135 45.1135Z" fill="#61EBA9"/>
<path d="M17.8752 44.7191C17.7597 44.3598 17.9574 43.975 18.3167 43.8595C18.676 43.7441 19.0608 43.9418 19.1763 44.3011C19.2917 44.6604 19.094 45.0452 18.7347 45.1606C18.3754 45.2761 17.9906 45.0784 17.8752 44.7191Z" fill="#61EBA9"/>
<path d="M11.2651 46.4836C11.092 45.9447 11.3885 45.3675 11.9275 45.1943C12.4664 45.0212 13.0437 45.3177 13.2168 45.8567C13.3899 46.3956 13.0934 46.9729 12.5544 47.146C12.0155 47.3191 11.4383 47.0226 11.2651 46.4836Z" fill="#61EBA9"/>
<path d="M12.31 49.7365C12.1369 49.1975 12.4335 48.6203 12.9724 48.4471C13.5113 48.274 14.0886 48.5706 14.2617 49.1095C14.4348 49.6484 14.1383 50.2257 13.5994 50.3988C13.0604 50.5719 12.4832 50.2754 12.31 49.7365Z" fill="#61EBA9"/>
<path d="M11.4033 53.6161C11.2302 53.0772 11.5267 52.4999 12.0657 52.3268C12.6046 52.1536 13.1818 52.4502 13.355 52.9891C13.5281 53.5281 13.2316 54.1053 12.6926 54.2784C12.1537 54.4516 11.5764 54.155 11.4033 53.6161Z" fill="#61EBA9"/>
<path d="M74 30C74 30.5523 73.5523 31 73 31C72.4477 31 72 30.5523 72 30C72 29.4477 72.4477 29 73 29C73.5523 29 74 29.4477 74 30Z" fill="#2C9261"/>
<path d="M71 32C71 32.5523 70.5523 33 70 33C69.4477 33 69 32.5523 69 32C69 31.4477 69.4477 31 70 31C70.5523 31 71 31.4477 71 32Z" fill="#2C9261"/>
<path d="M68 24C68 24.5523 67.5523 25 67 25C66.4477 25 66 24.5523 66 24C66 23.4477 66.4477 23 67 23C67.5523 23 68 23.4477 68 24Z" fill="#2C9261"/>
<path d="M75 21C75 21.5523 74.5523 22 74 22C73.4477 22 73 21.5523 73 21C73 20.4477 73.4477 20 74 20C74.5523 20 75 20.4477 75 21Z" fill="#2C9261"/>
<path d="M73 16C73 16.5523 72.5523 17 72 17C71.4477 17 71 16.5523 71 16C71 15.4477 71.4477 15 72 15C72.5523 15 73 15.4477 73 16Z" fill="#2C9261"/>
<path d="M71 20C71 20.5523 70.5523 21 70 21C69.4477 21 69 20.5523 69 20C69 19.4477 69.4477 19 70 19C70.5523 19 71 19.4477 71 20Z" fill="#2C9261"/>
<path d="M73 25.5C73 26.3284 72.3284 27 71.5 27C70.6716 27 70 26.3284 70 25.5C70 24.6716 70.6716 24 71.5 24C72.3284 24 73 24.6716 73 25.5Z" fill="#2C9261"/>
<path d="M79 31.5C79 32.3284 78.3284 33 77.5 33C76.6716 33 76 32.3284 76 31.5C76 30.6716 76.6716 30 77.5 30C78.3284 30 79 30.6716 79 31.5Z" fill="#2C9261"/>
<path d="M69 28.5C69 29.3284 68.3284 30 67.5 30C66.6716 30 66 29.3284 66 28.5C66 27.6716 66.6716 27 67.5 27C68.3284 27 69 27.6716 69 28.5Z" fill="#2C9261"/>
<path d="M34.2594 18.5415C34.6752 18.4346 35.0989 18.6849 35.2058 19.1007C35.3127 19.5164 35.0623 19.9401 34.6466 20.047C34.2308 20.1539 33.8071 19.9036 33.7002 19.4878C33.5933 19.0721 33.8437 18.6484 34.2594 18.5415Z" fill="#7CFABD"/>
<path d="M36.3459 20.4124C36.7616 20.3055 37.1853 20.5559 37.2922 20.9717C37.3991 21.3874 37.1488 21.8111 36.733 21.918C36.3173 22.0249 35.8936 21.7745 35.7867 21.3588C35.6798 20.943 35.9301 20.5193 36.3459 20.4124Z" fill="#7CFABD"/>
<path d="M30.9042 24.2193C31.32 24.1124 31.7437 24.3628 31.8506 24.7785C31.9575 25.1943 31.7071 25.618 31.2914 25.7249C30.8756 25.8318 30.4519 25.5814 30.345 25.1657C30.2381 24.7499 30.4885 24.3262 30.9042 24.2193Z" fill="#7CFABD"/>
<path d="M27.2909 19.5306C27.7067 19.4237 28.1304 19.6741 28.2373 20.0898C28.3442 20.5056 28.0938 20.9293 27.6781 21.0362C27.2623 21.1431 26.8386 20.8927 26.7317 20.477C26.6248 20.0612 26.8752 19.6375 27.2909 19.5306Z" fill="#7CFABD"/>
<path d="M23.9142 22.004C24.33 21.8971 24.7537 22.1475 24.8606 22.5632C24.9675 22.979 24.7171 23.4027 24.3014 23.5096C23.8856 23.6165 23.4619 23.3661 23.355 22.9503C23.2481 22.5346 23.4985 22.1109 23.9142 22.004Z" fill="#7CFABD"/>
<path d="M27.3124 22.7352C27.7282 22.6283 28.1519 22.8787 28.2588 23.2944C28.3657 23.7102 28.1153 24.1339 27.6996 24.2408C27.2838 24.3477 26.8601 24.0973 26.7532 23.6815C26.6463 23.2658 26.8967 22.8421 27.3124 22.7352Z" fill="#7CFABD"/>
<path d="M31.0656 20.1652C31.6892 20.0048 32.3247 20.3804 32.4851 21.004C32.6454 21.6276 32.2699 22.2632 31.6463 22.4235C31.0226 22.5839 30.3871 22.2083 30.2267 21.5847C30.0664 20.9611 30.4419 20.3255 31.0656 20.1652Z" fill="#7CFABD"/>
<path d="M34.421 14.4869C35.0447 14.3266 35.6802 14.7021 35.8406 15.3258C36.0009 15.9494 35.6254 16.5849 35.0017 16.7453C34.3781 16.9056 33.7426 16.5301 33.5822 15.9065C33.4219 15.2828 33.7974 14.6473 34.421 14.4869Z" fill="#7CFABD"/>
<path d="M34.0983 22.5956C34.7219 22.4352 35.3575 22.8108 35.5178 23.4344C35.6782 24.058 35.3026 24.6936 34.679 24.8539C34.0554 25.0143 33.4198 24.6387 33.2595 24.0151C33.0991 23.3915 33.4747 22.7559 34.0983 22.5956Z" fill="#7CFABD"/>
</g>
<defs>
<clipPath id="clip0_201_2431">
<rect width="96" height="96" fill="white"/>
</clipPath>
</defs>
</svg>
