<svg width="166" height="190" viewBox="0 0 166 190" fill="none" xmlns="http://www.w3.org/2000/svg">
<path d="M55.2526 188.337H90.7526C82.7526 82.8367 108.253 0.336739 108.253 0.336739C86.9307 23.7392 58.9927 127.607 55.2526 188.337Z" fill="url(#paint0_linear_20_66)" stroke="#0D4229"/>
<path d="M102.253 188.337H76.2526C68.7526 66.8367 55.2526 23.8367 55.2526 23.8367C75.7526 71.3367 86.2526 102.837 102.253 188.337Z" fill="url(#paint1_linear_20_66)" stroke="#0D4229"/>
<path d="M38.7526 188.837H22.2526C27.7526 169.837 1.25256 112.337 1.25256 112.337C20.0526 125.937 35.0859 170.503 38.7526 188.837Z" fill="url(#paint2_linear_20_66)" stroke="#0D4229"/>
<path d="M52.7526 189.337L31.7526 188.837C35.2526 157.337 10.2526 90.3367 10.2526 90.3367C31.3086 107.759 48.6459 165.851 52.7526 189.337Z" fill="url(#paint3_linear_20_66)" stroke="#0D4229"/>
<path d="M63.2526 189.337H44.2525C38.4761 108.418 21.2526 72.8367 21.2526 72.8367C44.538 93.0747 63.2526 167.837 63.2526 189.337Z" fill="url(#paint4_linear_20_66)" stroke="#0D4229"/>
<path d="M74.7526 189.337H52.7526C41.2526 103.837 22.2526 50.3367 22.2526 50.3367C43.2526 79.8367 61.7526 119.337 74.7526 189.337Z" fill="url(#paint5_linear_20_66)" stroke="#0D4229"/>
<path d="M83.2526 189.337H63.5573C57.2526 96.8367 36.2526 38.3367 36.2526 38.3367C60.7526 73.8367 71.6145 113.294 83.2526 189.337Z" fill="url(#paint6_linear_20_66)" stroke="#0D4229"/>
<path d="M125.753 189.337L141.175 189.275C137.753 160.337 164.253 112.837 164.253 112.837C145.053 122.437 129.919 168.67 125.753 189.337Z" fill="url(#paint7_linear_20_66)" stroke="#0D4229"/>
<path d="M114.253 189.437L131.478 189.35C127.753 143.937 157.253 82.4367 157.253 82.4367C135.808 95.8642 117.253 154.437 114.253 189.437Z" fill="url(#paint8_linear_20_66)" stroke="#0D4229"/>
<path d="M101.253 189.337H123.753C123.753 114.337 144.753 68.8367 144.753 68.8367C127.253 83.8367 104.322 150.412 101.253 189.337Z" fill="url(#paint9_linear_20_66)" stroke="#0D4229"/>
<path d="M90.2526 188.837H118.184C118.184 99.2102 144.253 44.8367 144.253 44.8367C122.528 62.7621 94.0633 142.32 90.2526 188.837Z" fill="url(#paint10_linear_20_66)" stroke="#0D4229"/>
<path d="M75.2526 189.337H104.735C104.735 86.6396 132.253 24.3367 132.253 24.3367C109.322 44.8762 79.275 136.037 75.2526 189.337Z" fill="url(#paint11_linear_20_66)" stroke="#0D4229"/>
<defs>
<linearGradient id="paint0_linear_20_66" x1="108.862" y1="95.5069" x2="55.2526" y2="95.5069" gradientUnits="userSpaceOnUse">
<stop stop-color="#0D5F39"/>
<stop offset="1" stop-color="#51A13A"/>
</linearGradient>
<linearGradient id="paint1_linear_20_66" x1="106.367" y1="122.551" x2="63.901" y2="122.551" gradientUnits="userSpaceOnUse">
<stop offset="0.269231" stop-color="#64AA37"/>
<stop offset="0.846154" stop-color="#137C44"/>
</linearGradient>
<linearGradient id="paint2_linear_20_66" x1="38.7526" y1="150.587" x2="1.25256" y2="150.587" gradientUnits="userSpaceOnUse">
<stop offset="0.269231" stop-color="#64AA37"/>
<stop offset="0.471154" stop-color="#137C44"/>
</linearGradient>
<linearGradient id="paint3_linear_20_66" x1="52.7526" y1="140.337" x2="10.7526" y2="140.337" gradientUnits="userSpaceOnUse">
<stop offset="0.495192" stop-color="#64AA37"/>
<stop offset="0.653846" stop-color="#137C44"/>
</linearGradient>
<linearGradient id="paint4_linear_20_66" x1="68.2526" y1="132.418" x2="21.8055" y2="132.418" gradientUnits="userSpaceOnUse">
<stop offset="0.514423" stop-color="#64AA37"/>
<stop offset="0.942308" stop-color="#137C44"/>
</linearGradient>
<linearGradient id="paint5_linear_20_66" x1="79.2526" y1="133.918" x2="32.8055" y2="133.918" gradientUnits="userSpaceOnUse">
<stop offset="0.543269" stop-color="#64AA37"/>
<stop offset="0.754808" stop-color="#137C44"/>
</linearGradient>
<linearGradient id="paint6_linear_20_66" x1="87.2811" y1="129.133" x2="45.7" y2="129.133" gradientUnits="userSpaceOnUse">
<stop offset="0.360577" stop-color="#64AA37"/>
<stop offset="0.668269" stop-color="#137C44"/>
</linearGradient>
<linearGradient id="paint7_linear_20_66" x1="164.253" y1="151.087" x2="125.753" y2="151.087" gradientUnits="userSpaceOnUse">
<stop stop-color="#0D5F39"/>
<stop offset="1" stop-color="#51A13A"/>
</linearGradient>
<linearGradient id="paint8_linear_20_66" x1="157.253" y1="135.937" x2="114.253" y2="135.937" gradientUnits="userSpaceOnUse">
<stop stop-color="#0D5F39"/>
<stop offset="1" stop-color="#51A13A"/>
</linearGradient>
<linearGradient id="paint9_linear_20_66" x1="145.253" y1="129.837" x2="101.253" y2="129.837" gradientUnits="userSpaceOnUse">
<stop stop-color="#0D5F39"/>
<stop offset="1" stop-color="#51A13A"/>
</linearGradient>
<linearGradient id="paint10_linear_20_66" x1="144.873" y1="117.733" x2="90.2526" y2="117.733" gradientUnits="userSpaceOnUse">
<stop stop-color="#0D5F39"/>
<stop offset="1" stop-color="#51A13A"/>
</linearGradient>
<linearGradient id="paint11_linear_20_66" x1="132.908" y1="107.864" x2="75.2526" y2="107.864" gradientUnits="userSpaceOnUse">
<stop stop-color="#0D5F39"/>
<stop offset="1" stop-color="#51A13A"/>
</linearGradient>
</defs>
</svg>
