<svg width="664" height="825" viewBox="0 0 664 825" fill="none" xmlns="http://www.w3.org/2000/svg">
<path d="M333.03 80.8172C346.245 72.232 362.262 69.9302 375.173 71.4233C388.023 72.8541 436.987 95.4369 455.439 112.234C473.892 129.093 488.691 164.492 488.995 202.814C489.3 241.074 474.197 293.332 472.796 295.323C471.395 297.251 456.901 311 456.901 311C456.901 311 456.17 290.968 455.622 289.413C455.074 287.857 448.192 274.295 446.243 272.553C444.295 270.811 446.548 261.666 446.243 259.116C446 256.565 444.416 246.549 439.666 239.395C434.368 254.076 426.634 266.954 423.832 266.519C422.127 266.27 417.255 258.369 412.017 248.975C402.03 230.809 399.472 224.402 395.026 217.558C395.148 220.98 385.952 249.846 382.42 249.97C378.888 250.095 374.32 229.13 369.813 214.572C365.307 200.015 354.162 177.183 352.274 177.556C350.447 177.929 332.969 189.75 332.969 189.75C332.969 189.75 315.551 177.929 313.663 177.556C311.775 177.183 300.631 200.015 296.124 214.572C291.678 229.13 287.05 250.157 283.518 249.97C280.046 249.846 270.789 220.98 270.911 217.558C266.405 224.402 263.908 230.872 253.92 248.975C248.744 258.369 243.811 266.27 242.105 266.519C239.304 266.954 231.631 254.076 226.332 239.395C221.582 246.549 220.059 256.503 219.755 259.116C219.45 261.666 221.704 270.811 219.755 272.553C217.806 274.233 210.924 287.857 210.376 289.413C209.828 290.968 209.097 311 209.097 311C209.097 311 194.664 297.314 193.263 295.323C191.863 293.394 176.759 241.074 177.003 202.814C177.307 164.554 192.106 129.093 210.559 112.234C229.012 95.3747 277.915 72.7919 290.826 71.4233C303.676 69.9924 319.693 72.2942 332.969 80.8172H333.03Z" fill="url(#paint0_linear_16_330)"/>
<path opacity="0.1" d="M489 173.713C427.997 177.535 375.852 171.628 375.852 171.628C397.246 164.61 440.223 153.701 479.956 143C483.76 152.381 486.817 162.734 489 173.713ZM186.044 143C182.239 152.381 179.183 162.734 177 173.713C238.003 177.535 290.148 171.628 290.148 171.628C268.754 164.61 225.777 153.701 186.044 143Z" fill="white"/>
<defs>
<linearGradient id="paint0_linear_16_330" x1="333.03" y1="80.8794" x2="333.03" y2="298.495" gradientUnits="userSpaceOnUse">
<stop stop-color="#1C242B"/>
<stop offset="1" stop-color="#343D45"/>
</linearGradient>
</defs>
</svg>
