<svg width="320" height="317" viewBox="0 0 320 317" fill="none" xmlns="http://www.w3.org/2000/svg">
<path d="M19.7084 191.281C25.2773 242.343 63.7028 216.812 67.0442 220.085C81.7451 234.486 96.745 215.721 100.458 208.301C153.028 173.212 195.129 196.736 209.608 212.884C230.213 243.652 246.92 218.703 248.033 219.43C288.13 245.616 296.627 201.755 300.938 197.172C341.591 153.966 298.789 135.636 299.824 131.054C309.292 89.1566 272.653 89.2666 273.093 86.5381C279.22 48.5689 235.225 45.9503 234.668 42.0225C231.884 22.3833 217.964 35.6292 215.734 32.2029C173.967 -31.9519 141.125 25.6713 139.44 25.0019C99.9007 9.29046 100.28 50.3729 97.6732 49.2236C53.1219 29.5843 49.912 76.0638 48.6668 76.0638C29.7325 76.0638 37.529 96.3577 34.7445 98.3216C12.8351 113.774 23.6067 125.162 15.8101 132.363C-18.2727 163.842 19.1553 186.209 19.7084 191.281Z" fill="#08472A" stroke="#043620" stroke-width="3"/>
<path d="M100.444 306.909H81.5098L91.5338 294.47L105.456 290.543L123.833 273.522L126.061 237.517C118.265 227.042 102.337 205.963 101.001 205.439C99.3303 204.785 63.6892 187.109 58.6772 187.109C54.6676 187.109 57.0066 179.254 58.6772 175.326L91.5338 188.419L80.396 155.032L90.42 153.068L103.228 188.419C111.396 193.874 127.843 204.654 128.289 204.13C128.734 203.606 129.959 193.438 130.516 188.419C120.492 174.453 100.778 143.51 102.115 131.465C103.451 119.419 112.696 117.281 117.151 117.717C117.336 125.355 119.106 142.662 127.175 149.14C150.007 167.47 153.349 198.251 153.349 194.965C153.349 176.635 136.085 145.212 156.69 115.754C175.463 88.9132 175.624 97.4236 163.93 138.011C158.7 156.163 173.954 162.888 180.636 150.449L189.547 116.408L198.457 117.717L195.672 145.212L220.732 128.192L224.631 141.284C213.864 148.049 191.774 162.102 189.547 164.197C187.319 166.292 181.564 179.472 178.966 185.8V204.13C188.99 198.675 209.26 187.502 210.151 186.455C211.043 185.407 222.774 163.324 228.529 152.413L241.337 153.723L222.96 189.073C230.571 189.51 245.904 190.252 246.349 189.728C246.795 189.204 256.559 183.4 261.385 180.563L263.056 194.31L252.475 200.857L216.834 202.821C206.439 211.986 185.314 230.97 183.978 233.589C182.307 236.862 185.091 270.249 185.091 270.903C185.091 271.558 194.559 286.615 195.672 286.615C196.563 286.615 205.325 290.543 209.595 292.507L224.074 306.254C212.565 305.381 189.435 303.243 188.99 301.672C188.544 300.1 181.379 292.288 177.852 288.579L190.66 310.182L176.738 308.218C172.84 306.472 164.486 302.85 162.259 302.326C159.474 301.672 146.109 314.764 144.995 314.764C144.104 314.764 129.402 314.328 122.163 314.11L137.559 290.839C131.781 297.108 119.914 305.033 100.444 306.909Z" fill="url(#paint0_linear_29_287)"/>
<path d="M141.654 284.651L122.163 314.11C129.402 314.328 144.104 314.764 144.995 314.764C146.109 314.764 159.474 301.672 162.259 302.326C164.486 302.85 172.84 306.472 176.738 308.218L190.66 310.182L177.852 288.579C181.379 292.288 188.544 300.1 188.99 301.672C189.435 303.243 212.565 305.381 224.074 306.254L209.595 292.507C205.325 290.543 196.563 286.615 195.672 286.615C194.559 286.615 185.091 271.558 185.091 270.903C185.091 270.249 182.307 236.862 183.978 233.589C185.314 230.97 206.439 211.986 216.834 202.821L252.475 200.857L263.056 194.31L261.385 180.563C256.559 183.4 246.795 189.204 246.349 189.728C245.904 190.252 230.571 189.51 222.96 189.073L241.337 153.723L228.529 152.413C222.774 163.324 211.043 185.407 210.151 186.455C209.26 187.502 188.99 198.675 178.966 204.13V185.8C181.564 179.472 187.319 166.292 189.547 164.197C191.774 162.102 213.864 148.049 224.631 141.284L220.732 128.192L195.672 145.212L198.457 117.717L189.547 116.408L180.636 150.449C173.954 162.888 158.7 156.163 163.93 138.011C175.624 97.4236 175.463 88.9132 156.69 115.754C136.085 145.212 153.349 176.635 153.349 194.965C153.349 198.251 150.007 167.47 127.175 149.14C119.106 142.662 117.336 125.355 117.151 117.717C112.696 117.281 103.451 119.419 102.115 131.465C100.778 143.51 120.492 174.453 130.516 188.419C129.959 193.438 128.734 203.606 128.289 204.13C127.843 204.654 111.396 193.874 103.228 188.419L90.42 153.068L80.396 155.032L91.5338 188.419L58.6772 175.326C57.0066 179.254 54.6676 187.109 58.6772 187.109C63.6892 187.109 99.3303 204.785 101.001 205.439C102.337 205.963 118.265 227.042 126.061 237.517L123.833 273.522L105.456 290.543L91.5338 294.47L81.5098 306.909H100.444C127.62 304.29 139.983 289.888 141.654 284.651ZM141.654 284.651L142.211 243.408" stroke="#3C1E04" stroke-width="3" stroke-linecap="round"/>
<path d="M107.14 145.456C114.269 159.072 136.841 175.569 146.68 180.806L142.224 170.332L134.428 159.203L129.973 154.621L126.631 151.347L117.721 136.291C112.338 134.327 100.012 131.839 107.14 145.456Z" fill="url(#paint1_linear_29_287)"/>
<path d="M150.578 134.327C151.914 135.374 160.787 134.545 162.829 134.981L167.841 115.997L158.374 114.033C155.219 120.361 149.241 133.279 150.578 134.327Z" fill="url(#paint2_linear_29_287)"/>
<path d="M192.901 150.038L180.093 157.894L189.003 126.471L195.686 127.126L192.901 150.038Z" fill="url(#paint3_linear_29_287)"/>
<path d="M77.6251 191.935L82.0802 187.353L66.4873 180.152L62.0322 187.353L77.6251 191.935Z" fill="url(#paint4_linear_29_287)"/>
<path d="M88.7629 174.915L94.8887 171.641L90.4336 158.549L84.3078 160.512L88.7629 174.915Z" fill="url(#paint5_linear_29_287)"/>
<path d="M107.14 145.456C114.269 159.072 136.841 175.569 146.68 180.806L142.224 170.332L134.428 159.203L129.973 154.621L126.631 151.347L117.721 136.291C112.338 134.327 100.012 131.839 107.14 145.456Z" stroke="url(#paint6_linear_29_287)"/>
<path d="M150.578 134.327C151.914 135.374 160.787 134.545 162.829 134.981L167.841 115.997L158.374 114.033C155.219 120.361 149.241 133.279 150.578 134.327Z" stroke="url(#paint7_linear_29_287)"/>
<path d="M192.901 150.038L180.093 157.894L189.003 126.471L195.686 127.126L192.901 150.038Z" stroke="url(#paint8_linear_29_287)"/>
<path d="M77.6251 191.935L82.0802 187.353L66.4873 180.152L62.0322 187.353L77.6251 191.935Z" stroke="url(#paint9_linear_29_287)"/>
<path d="M88.7629 174.915L94.8887 171.641L90.4336 158.549L84.3078 160.512L88.7629 174.915Z" stroke="url(#paint10_linear_29_287)"/>
<path d="M160.602 299.951L143.338 313.044L155.033 288.822L156.147 269.183L164.5 260.672L163.943 193.899L180.093 158.549L201.255 144.146L211.836 136.945L212.95 146.765L186.776 165.095L176.752 186.043V206.337L172.297 214.848L172.853 227.94L212.95 198.482L249.148 195.208L255.83 191.935L257.501 195.863L249.704 200.446L214.62 202.409L181.764 233.832L183.434 272.456L194.572 288.822L201.255 291.441L208.494 294.714L217.962 303.224C211.279 302.569 199.027 303.224 189.56 299.951C167.285 269.837 183.434 303.224 186.219 307.152L177.309 306.497L160.602 299.951Z" fill="url(#paint11_linear_29_287)" stroke="url(#paint12_linear_29_287)"/>
<path d="M258.615 182.116C249.704 216.812 285.16 204.81 300.938 197.172C341.591 153.966 298.789 135.636 299.824 131.054C309.292 89.1566 272.653 89.2666 273.093 86.5381C279.22 48.5689 235.225 45.9503 234.668 42.0225C231.884 22.3836 217.965 35.6287 215.734 32.2029C175.638 -31.9519 139.997 24.3472 139.997 24.3472C108.127 12.6398 98.6013 35.6943 97.6732 49.2236C53.1219 29.5844 49.912 76.0638 48.6668 76.0638C29.7325 76.0638 37.529 96.3577 34.7445 98.3216C12.8351 113.774 23.6067 125.162 15.8101 132.363C-18.2727 163.842 19.1553 186.209 19.7084 191.281C20.1539 216.419 36.9721 223.358 43.0979 221.394C67.0442 208.956 44.2117 201.1 44.2117 201.1C65.3735 199.791 64.2597 182.77 64.2597 182.77C84.8647 175.569 78.182 165.095 78.182 165.095C125.518 157.894 87.5717 130.547 89.3198 131.708C127.745 157.239 124.404 99.6309 133.871 111.414C154.42 136.991 171.85 110.536 174.524 117.306C181.764 135.636 201.334 125.648 202.369 125.162C205.153 123.853 210.622 128.973 210.722 136.291C211.279 176.879 240.237 161.167 240.237 161.167C240.237 170.652 252.489 170.332 258.058 169.023C255.273 178.843 258.776 181.489 258.615 182.116Z" fill="url(#paint13_radial_29_287)" stroke="#073C22" stroke-width="3"/>
<path d="M232.441 151.348C232.441 135.636 216.848 135.636 212.95 136.945C211.836 161.167 227.429 167.059 241.908 157.894C241.908 157.894 239.123 172.296 261.399 166.404C261.399 166.404 253.603 170.332 260.285 182.116C253.603 211.574 278.106 203.719 291.471 198.482L298.711 195.863C300.381 193.899 315.417 180.806 316.531 162.476C317.405 148.096 296.483 131.708 296.483 131.708C290.914 129.09 276.992 143.492 273.651 148.074C263.849 145.979 259.172 154.184 258.058 158.549C249.147 140.873 232.441 151.348 232.441 151.348Z" fill="url(#paint14_linear_29_287)" stroke="url(#paint15_linear_29_287)"/>
<path d="M134.428 285.549L102.128 304.533L114.38 302.569L126.632 297.332L135.542 290.131L139.44 284.24C139.997 269.183 139.997 243.652 139.997 243.652C139.44 243.652 135.621 277.039 134.428 285.549Z" fill="#673E1E" stroke="#673E1E"/>
<path d="M51.2187 153.693C58.9164 145.237 77.6792 162.15 58.9164 171.709C41.5968 180.533 36.5933 150.752 51.2187 153.693Z" fill="url(#paint16_linear_29_287)"/>
<path d="M51.2187 153.693C58.9164 145.237 77.6792 162.15 58.9164 171.709C41.5968 180.533 36.5933 150.752 51.2187 153.693ZM51.2187 153.693C48.7812 148.791 44.368 137.516 46.2154 131.633" stroke="#031A08" stroke-width="3"/>
<path d="M33.6578 153.155C45.3016 151.791 47.3983 176.353 26.7589 171.463C7.707 166.95 24.8493 141.62 33.6578 153.155Z" fill="url(#paint17_linear_29_287)"/>
<path d="M33.6578 153.155C45.3016 151.791 47.3983 176.353 26.7589 171.463C7.707 166.95 24.8493 141.62 33.6578 153.155ZM33.6578 153.155C35.2802 147.954 39.8983 136.753 45.3919 133.563" stroke="#031A08" stroke-width="3"/>
<path d="M46.6004 131.266C64.3051 124.28 66.6144 143.766 66.6144 143.766C55.0678 145.972 43.5213 139.354 46.6004 131.266Z" fill="url(#paint18_linear_29_287)" stroke="#031A08" stroke-width="3"/>
<path d="M45.5728 132.114C30.364 143.239 22.8538 124.988 22.8538 124.988C33.4092 120.002 46.3554 123.54 45.5728 132.114Z" fill="url(#paint19_linear_29_287)" stroke="#031A08" stroke-width="3"/>
<path d="M104.219 95.6934C111.916 87.237 130.679 104.15 111.916 113.709C94.5968 122.533 89.5933 92.752 104.219 95.6934Z" fill="url(#paint20_linear_29_287)"/>
<path d="M104.219 95.6934C111.916 87.237 130.679 104.15 111.916 113.709C94.5968 122.533 89.5933 92.752 104.219 95.6934ZM104.219 95.6934C101.781 90.7911 97.368 79.5159 99.2154 73.6332" stroke="#031A08" stroke-width="3"/>
<path d="M86.6578 95.1547C98.3016 93.7908 100.398 118.353 79.7589 113.463C60.707 108.95 77.8493 83.6202 86.6578 95.1547Z" fill="url(#paint21_linear_29_287)"/>
<path d="M86.6578 95.1547C98.3016 93.7908 100.398 118.353 79.7589 113.463C60.707 108.95 77.8493 83.6202 86.6578 95.1547ZM86.6578 95.1547C88.2802 89.9535 92.8983 78.7535 98.3919 75.5627" stroke="#031A08" stroke-width="3"/>
<path d="M99.6004 73.2655C117.305 66.2798 119.614 85.7663 119.614 85.7663C108.068 87.9723 96.5213 81.3543 99.6004 73.2655Z" fill="url(#paint22_linear_29_287)" stroke="#031A08" stroke-width="3"/>
<path d="M98.5728 74.1143C83.364 85.2394 75.8538 66.9879 75.8538 66.9879C86.4092 62.0022 99.3554 65.5399 98.5728 74.1143Z" fill="url(#paint23_linear_29_287)" stroke="#031A08" stroke-width="3"/>
<path d="M274.219 141.693C281.916 133.237 300.679 150.15 281.916 159.709C264.597 168.533 259.593 138.752 274.219 141.693Z" fill="url(#paint24_linear_29_287)"/>
<path d="M274.219 141.693C281.916 133.237 300.679 150.15 281.916 159.709C264.597 168.533 259.593 138.752 274.219 141.693ZM274.219 141.693C271.781 136.791 267.368 125.516 269.215 119.633" stroke="#031A08" stroke-width="3"/>
<path d="M256.658 141.155C268.302 139.791 270.398 164.353 249.759 159.463C230.707 154.95 247.849 129.62 256.658 141.155Z" fill="url(#paint25_linear_29_287)"/>
<path d="M256.658 141.155C268.302 139.791 270.398 164.353 249.759 159.463C230.707 154.95 247.849 129.62 256.658 141.155ZM256.658 141.155C258.28 135.954 262.898 124.753 268.392 121.563" stroke="#031A08" stroke-width="3"/>
<path d="M269.6 119.266C287.305 112.28 289.614 131.766 289.614 131.766C278.068 133.972 266.521 127.354 269.6 119.266Z" fill="url(#paint26_linear_29_287)" stroke="#031A08" stroke-width="3"/>
<path d="M268.573 120.114C253.364 131.239 245.854 112.988 245.854 112.988C256.409 108.002 269.355 111.54 268.573 120.114Z" fill="url(#paint27_linear_29_287)" stroke="#031A08" stroke-width="3"/>
<path d="M197.219 76.6934C204.916 68.237 223.679 85.1498 204.916 94.7092C187.597 103.533 182.593 73.752 197.219 76.6934Z" fill="url(#paint28_linear_29_287)"/>
<path d="M197.219 76.6934C204.916 68.237 223.679 85.1498 204.916 94.7092C187.597 103.533 182.593 73.752 197.219 76.6934ZM197.219 76.6934C194.781 71.7911 190.368 60.5159 192.215 54.6332" stroke="#031A08" stroke-width="3"/>
<path d="M179.658 76.1547C191.302 74.7908 193.398 99.3526 172.759 94.4634C153.707 89.9503 170.849 64.6202 179.658 76.1547Z" fill="url(#paint29_linear_29_287)"/>
<path d="M179.658 76.1547C191.302 74.7908 193.398 99.3526 172.759 94.4634C153.707 89.9503 170.849 64.6202 179.658 76.1547ZM179.658 76.1547C181.28 70.9535 185.898 59.7535 191.392 56.5627" stroke="#031A08" stroke-width="3"/>
<path d="M192.6 54.2655C210.305 47.2798 212.614 66.7663 212.614 66.7663C201.068 68.9723 189.521 62.3543 192.6 54.2655Z" fill="url(#paint30_linear_29_287)" stroke="#031A08" stroke-width="3"/>
<path d="M191.573 55.1143C176.364 66.2394 168.854 47.9879 168.854 47.9879C179.409 43.0022 192.355 46.5399 191.573 55.1143Z" fill="url(#paint31_linear_29_287)" stroke="#031A08" stroke-width="3"/>
<path d="M52.9314 157.881C53.9314 158.881 53.4314 163.281 49.4314 162.881C44.4314 162.381 50.4314 155.881 52.9314 157.881Z" fill="white" stroke="white"/>
<path d="M28.9314 153.881C29.9314 154.881 29.4314 159.281 25.4314 158.881C20.4314 158.381 26.4314 151.881 28.9314 153.881Z" fill="white" stroke="white"/>
<path d="M81.9314 95.8812C82.9314 96.8812 82.4314 101.281 78.4314 100.881C73.4314 100.381 79.4314 93.8812 81.9314 95.8812Z" fill="white" stroke="white"/>
<path d="M174.931 76.8812C175.931 77.8812 175.431 82.2812 171.431 81.8812C166.431 81.3812 172.431 74.8812 174.931 76.8812Z" fill="white" stroke="white"/>
<path d="M251.931 141.881C252.931 142.881 252.431 147.281 248.431 146.881C243.431 146.381 249.431 139.881 251.931 141.881Z" fill="white" stroke="white"/>
<path d="M104.931 99.8812C105.931 100.881 105.431 105.281 101.431 104.881C96.4314 104.381 102.431 97.8812 104.931 99.8812Z" fill="white" stroke="white"/>
<path d="M197.931 80.8812C198.931 81.8812 198.431 86.2812 194.431 85.8812C189.431 85.3812 195.431 78.8812 197.931 80.8812Z" fill="white" stroke="white"/>
<path d="M274.931 144.881C275.931 145.881 275.431 150.281 271.431 149.881C266.431 149.381 272.431 142.881 274.931 144.881Z" fill="white" stroke="white"/>
<defs>
<linearGradient id="paint0_linear_29_287" x1="159.76" y1="100.286" x2="159.76" y2="314.764" gradientUnits="userSpaceOnUse">
<stop stop-color="#A9754E"/>
<stop offset="1" stop-color="#653B1B"/>
</linearGradient>
<linearGradient id="paint1_linear_29_287" x1="128.859" y1="114.033" x2="128.859" y2="191.935" gradientUnits="userSpaceOnUse">
<stop stop-color="#603C1F"/>
<stop offset="1" stop-color="#6E4321"/>
</linearGradient>
<linearGradient id="paint2_linear_29_287" x1="128.859" y1="114.033" x2="128.859" y2="191.935" gradientUnits="userSpaceOnUse">
<stop stop-color="#603C1F"/>
<stop offset="1" stop-color="#6E4321"/>
</linearGradient>
<linearGradient id="paint3_linear_29_287" x1="128.859" y1="114.033" x2="128.859" y2="191.935" gradientUnits="userSpaceOnUse">
<stop stop-color="#603C1F"/>
<stop offset="1" stop-color="#6E4321"/>
</linearGradient>
<linearGradient id="paint4_linear_29_287" x1="128.859" y1="114.033" x2="128.859" y2="191.935" gradientUnits="userSpaceOnUse">
<stop stop-color="#603C1F"/>
<stop offset="1" stop-color="#6E4321"/>
</linearGradient>
<linearGradient id="paint5_linear_29_287" x1="128.859" y1="114.033" x2="128.859" y2="191.935" gradientUnits="userSpaceOnUse">
<stop stop-color="#603C1F"/>
<stop offset="1" stop-color="#6E4321"/>
</linearGradient>
<linearGradient id="paint6_linear_29_287" x1="128.859" y1="114.033" x2="128.859" y2="191.935" gradientUnits="userSpaceOnUse">
<stop stop-color="#603C1F"/>
<stop offset="1" stop-color="#6E4321"/>
</linearGradient>
<linearGradient id="paint7_linear_29_287" x1="128.859" y1="114.033" x2="128.859" y2="191.935" gradientUnits="userSpaceOnUse">
<stop stop-color="#603C1F"/>
<stop offset="1" stop-color="#6E4321"/>
</linearGradient>
<linearGradient id="paint8_linear_29_287" x1="128.859" y1="114.033" x2="128.859" y2="191.935" gradientUnits="userSpaceOnUse">
<stop stop-color="#603C1F"/>
<stop offset="1" stop-color="#6E4321"/>
</linearGradient>
<linearGradient id="paint9_linear_29_287" x1="128.859" y1="114.033" x2="128.859" y2="191.935" gradientUnits="userSpaceOnUse">
<stop stop-color="#603C1F"/>
<stop offset="1" stop-color="#6E4321"/>
</linearGradient>
<linearGradient id="paint10_linear_29_287" x1="128.859" y1="114.033" x2="128.859" y2="191.935" gradientUnits="userSpaceOnUse">
<stop stop-color="#603C1F"/>
<stop offset="1" stop-color="#6E4321"/>
</linearGradient>
<linearGradient id="paint11_linear_29_287" x1="200.42" y1="136.945" x2="200.42" y2="313.044" gradientUnits="userSpaceOnUse">
<stop offset="0.000100017" stop-color="#663C1B"/>
<stop offset="0.485577" stop-color="#805230"/>
<stop offset="0.990385" stop-color="#653B1B"/>
</linearGradient>
<linearGradient id="paint12_linear_29_287" x1="200.42" y1="136.945" x2="200.42" y2="313.044" gradientUnits="userSpaceOnUse">
<stop offset="0.000100017" stop-color="#663C1B"/>
<stop offset="0.485577" stop-color="#805230"/>
<stop offset="0.990385" stop-color="#653B1B"/>
</linearGradient>
<radialGradient id="paint13_radial_29_287" cx="0" cy="0" r="1" gradientUnits="userSpaceOnUse" gradientTransform="translate(160 111.604) rotate(90) scale(110.104 158.5)">
<stop stop-color="#489F37"/>
<stop offset="1" stop-color="#16703A"/>
</radialGradient>
<linearGradient id="paint14_linear_29_287" x1="264.726" y1="131.393" x2="264.726" y2="203.516" gradientUnits="userSpaceOnUse">
<stop stop-color="#257E3A"/>
<stop offset="1" stop-color="#08472A"/>
</linearGradient>
<linearGradient id="paint15_linear_29_287" x1="264.726" y1="131.393" x2="264.726" y2="203.516" gradientUnits="userSpaceOnUse">
<stop stop-color="#257E3A"/>
<stop offset="1" stop-color="#08472A"/>
</linearGradient>
<linearGradient id="paint16_linear_29_287" x1="46.2154" y1="155.899" x2="62.7177" y2="166.5" gradientUnits="userSpaceOnUse">
<stop stop-color="#D2042A"/>
<stop offset="1" stop-color="#8F0735"/>
</linearGradient>
<linearGradient id="paint17_linear_29_287" x1="28.3943" y1="151.596" x2="33.5698" y2="169.927" gradientUnits="userSpaceOnUse">
<stop stop-color="#D2042A"/>
<stop offset="1" stop-color="#8F0735"/>
</linearGradient>
<linearGradient id="paint18_linear_29_287" x1="53.9131" y1="141.193" x2="58.9864" y2="133.985" gradientUnits="userSpaceOnUse">
<stop stop-color="#20712E"/>
<stop offset="1" stop-color="#6DB23D"/>
</linearGradient>
<linearGradient id="paint19_linear_29_287" x1="35.8196" y1="124.334" x2="32.7616" y2="132.509" gradientUnits="userSpaceOnUse">
<stop stop-color="#20712E"/>
<stop offset="1" stop-color="#6DB23D"/>
</linearGradient>
<linearGradient id="paint20_linear_29_287" x1="99.2154" y1="97.8994" x2="115.718" y2="108.5" gradientUnits="userSpaceOnUse">
<stop stop-color="#D2042A"/>
<stop offset="1" stop-color="#8F0735"/>
</linearGradient>
<linearGradient id="paint21_linear_29_287" x1="81.3943" y1="93.596" x2="86.5698" y2="111.927" gradientUnits="userSpaceOnUse">
<stop stop-color="#D2042A"/>
<stop offset="1" stop-color="#8F0735"/>
</linearGradient>
<linearGradient id="paint22_linear_29_287" x1="106.913" y1="83.1926" x2="111.986" y2="75.9851" gradientUnits="userSpaceOnUse">
<stop stop-color="#20712E"/>
<stop offset="1" stop-color="#6DB23D"/>
</linearGradient>
<linearGradient id="paint23_linear_29_287" x1="88.8196" y1="66.3335" x2="85.7616" y2="74.5085" gradientUnits="userSpaceOnUse">
<stop stop-color="#20712E"/>
<stop offset="1" stop-color="#6DB23D"/>
</linearGradient>
<linearGradient id="paint24_linear_29_287" x1="269.215" y1="143.899" x2="285.718" y2="154.5" gradientUnits="userSpaceOnUse">
<stop stop-color="#D2042A"/>
<stop offset="1" stop-color="#8F0735"/>
</linearGradient>
<linearGradient id="paint25_linear_29_287" x1="251.394" y1="139.596" x2="256.57" y2="157.927" gradientUnits="userSpaceOnUse">
<stop stop-color="#D2042A"/>
<stop offset="1" stop-color="#8F0735"/>
</linearGradient>
<linearGradient id="paint26_linear_29_287" x1="276.913" y1="129.193" x2="281.986" y2="121.985" gradientUnits="userSpaceOnUse">
<stop stop-color="#20712E"/>
<stop offset="1" stop-color="#6DB23D"/>
</linearGradient>
<linearGradient id="paint27_linear_29_287" x1="258.82" y1="112.334" x2="255.762" y2="120.509" gradientUnits="userSpaceOnUse">
<stop stop-color="#20712E"/>
<stop offset="1" stop-color="#6DB23D"/>
</linearGradient>
<linearGradient id="paint28_linear_29_287" x1="192.215" y1="78.8994" x2="208.718" y2="89.5" gradientUnits="userSpaceOnUse">
<stop stop-color="#D2042A"/>
<stop offset="1" stop-color="#8F0735"/>
</linearGradient>
<linearGradient id="paint29_linear_29_287" x1="174.394" y1="74.596" x2="179.57" y2="92.9269" gradientUnits="userSpaceOnUse">
<stop stop-color="#D2042A"/>
<stop offset="1" stop-color="#8F0735"/>
</linearGradient>
<linearGradient id="paint30_linear_29_287" x1="199.913" y1="64.1926" x2="204.986" y2="56.9851" gradientUnits="userSpaceOnUse">
<stop stop-color="#20712E"/>
<stop offset="1" stop-color="#6DB23D"/>
</linearGradient>
<linearGradient id="paint31_linear_29_287" x1="181.82" y1="47.3335" x2="178.762" y2="55.5085" gradientUnits="userSpaceOnUse">
<stop stop-color="#20712E"/>
<stop offset="1" stop-color="#6DB23D"/>
</linearGradient>
</defs>
</svg>
