<svg width="324" height="307" viewBox="0 0 324 307" fill="none" xmlns="http://www.w3.org/2000/svg">
<path d="M157.244 110.71L159.391 113.975C158.889 114.934 158.487 116.016 158.155 117.131C157.516 119.277 157.016 121.967 156.664 125.133C155.959 131.473 155.822 139.992 156.519 150.448C157.873 170.735 162.382 198.531 172.18 232.264L136.947 238.631C134.933 225.854 133.176 202.221 135.178 177.426C137.227 152.03 143.173 126.076 156.225 109.163L157.244 110.71ZM246.623 3.05664C252.513 2.81627 257.753 3.34857 262.012 4.52832C266.299 5.71591 269.39 7.50135 271.252 9.6084C277.551 16.7359 280.002 27.4927 278.382 39.7803C276.766 52.0311 271.124 65.4772 261.718 77.4961C243.139 101.235 210.003 119.254 164.799 111.276L163.835 109.812L196.255 86.4336C197.599 85.4644 197.903 83.589 196.933 82.2451C195.964 80.9013 194.089 80.5973 192.745 81.5664L160.534 104.796L159.458 103.159C157.338 56.6964 180.958 28.4579 207.418 14.2656C220.783 7.09726 234.842 3.53752 246.623 3.05664Z" fill="url(#paint0_linear_25_122)" stroke="#125A30" stroke-width="6" stroke-linecap="round"/>
<path d="M20.7927 303.122H303.103C306.527 303.122 326.099 298.934 319.738 283.58C305.349 248.848 243.411 226.35 221.394 224.023C199.377 221.697 201.823 222.159 191.059 222.159C172.71 222.159 162.71 233.622 147.025 234.257L134.793 234.259C129.21 233.566 118.158 224.954 90.2693 226.815C46.1698 229.758 -0.245849 273.809 3.17885 289.163C5.23508 298.382 9.53948 303.122 20.7927 303.122Z" fill="#613418" stroke="#552C14" stroke-width="6"/>
<path d="M61.0383 37C71.98 37.0003 85.5484 39.772 98.3459 45.3818C111.147 50.9934 122.945 59.3404 130.592 70.3115C138.035 80.9891 141.647 94.2793 138.303 110.383C129.78 117.701 118.356 120.391 105.984 119.384C93.2576 118.347 79.7714 113.403 68.0891 105.893C56.3983 98.3767 46.724 88.4276 41.4191 77.5771C36.1496 66.7987 35.2 55.1968 40.7228 43.9209C41.6538 42.0204 43.7526 40.2651 47.3312 38.9746C50.8808 37.6946 55.5616 36.9999 61.0383 37Z" fill="url(#paint1_linear_25_122)" stroke="#125A30" stroke-width="6"/>
<path d="M139 111L151 117" stroke="#125A30" stroke-width="6"/>
<defs>
<linearGradient id="paint0_linear_25_122" x1="206.581" y1="0" x2="206.581" y2="242.122" gradientUnits="userSpaceOnUse">
<stop offset="0.0769231" stop-color="#557822"/>
<stop offset="0.9999" stop-color="#69AF01"/>
</linearGradient>
<linearGradient id="paint1_linear_25_122" x1="88.2784" y1="34.019" x2="88.2784" y2="122.694" gradientUnits="userSpaceOnUse">
<stop stop-color="#69AF01"/>
<stop offset="1" stop-color="#4C6D1A"/>
</linearGradient>
</defs>
</svg>
