<svg width="280" height="309" viewBox="0 0 280 309" fill="none" xmlns="http://www.w3.org/2000/svg">
<path d="M135.738 37.4771C137.597 28.3231 136.127 9.84146 115.381 9.1473C115.381 9.1473 109.142 35.7099 135.738 37.4771Z" fill="#C71343" stroke="#810B17" stroke-width="3"/>
<path d="M145.407 35.6817C154.73 35.1076 172.202 28.9045 167.503 8.68572C167.503 8.68572 140.23 9.53402 145.407 35.6817Z" fill="#C71343" stroke="#810B17" stroke-width="3"/>
<path d="M141.001 41.3475C133.167 35.3475 121 16.8475 140.501 1.84747C140.501 1.84747 166.5 19.3475 141.001 41.3475Z" fill="#C0103F" stroke="#810B17" stroke-width="3"/>
<path d="M139 42.4286C136.5 33.4286 126.8 17.6286 108 26.4286C108 26.4286 114.5 52.9286 139 42.4286Z" fill="#C71343" stroke="#810B17" stroke-width="3"/>
<path d="M144.04 42.9237C152.899 45.8839 171.422 46.6774 174.64 26.1706C174.64 26.1706 149.035 16.7408 144.04 42.9237Z" fill="#C71343" stroke="#810B17" stroke-width="3"/>
<path d="M99.007 103.848L99 91.8475L84.5 98.3475L99.007 103.848Z" fill="black"/>
<path d="M67.2356 110.915L68.9126 122.798L82.3669 114.343L67.2356 110.915Z" fill="black"/>
<path d="M37 93.3523L48.9983 93.5547L42.7523 78.9435L37 93.3523Z" fill="black"/>
<path d="M15.6882 113.376L21.4997 102.877L5.66649 101.533L15.6882 113.376Z" fill="black"/>
<path d="M14.507 149.848L14.5 137.848L0 144.348L14.507 149.848Z" fill="black"/>
<path d="M17.2056 189.7L15.3215 177.849L2.01682 186.537L17.2056 189.7Z" fill="black"/>
<path d="M38.7433 218.333L30.253 209.852L24.5962 224.702L38.7433 218.333Z" fill="black"/>
<path d="M74.9982 224.847L63.0001 225.064L69.7522 239.448L74.9982 224.847Z" fill="black"/>
<path d="M98.507 253.848L98.5 241.848L84 248.348L98.507 253.848Z" fill="black"/>
<path d="M181.897 249.975L182.113 261.973L196.497 255.221L181.897 249.975Z" fill="black"/>
<path d="M217.993 230.847L206 231.273L213.002 245.538L217.993 230.847Z" fill="black"/>
<path d="M253.873 209.848L246.005 218.909L261.213 223.516L253.873 209.848Z" fill="black"/>
<path d="M265.462 175.848L264.007 187.759L279.191 183.074L265.462 175.848Z" fill="black"/>
<path d="M265.462 130.848L264.007 142.759L279.191 138.074L265.462 130.848Z" fill="black"/>
<path d="M259 111.101L265.006 121.49L274.313 108.611L259 111.101Z" fill="black"/>
<path d="M232.253 101.562L244.251 101.345L237.499 86.9609L232.253 101.562Z" fill="black"/>
<path d="M209.917 142.84L209.491 130.848L195.227 137.85L209.917 142.84Z" fill="black"/>
<path d="M183.209 149.848L183.007 161.846L197.618 155.6L183.209 149.848Z" fill="black"/>
<path d="M183.209 100.848L183.007 112.846L197.618 106.6L183.209 100.848Z" fill="black"/>
<path d="M172 57.1724L179.719 66.3605L186.648 52.0607L172 57.1724Z" fill="black"/>
<path d="M100.809 66.2535L106.436 55.6548L90.5821 54.5867L100.809 66.2535Z" fill="black"/>
<path d="M98.507 150.848L98.5 138.848L84 145.348L98.507 150.848Z" fill="black"/>
<path d="M100 305.847V225.848L64 224.848C32 223.247 19 195.181 16.5 181.348L15 116.348C18.5 81.3475 67.5 89.8475 69.0001 115.348C69.1667 127.848 69.4001 154.848 69.0001 162.848C68.6001 170.848 74.8334 172.514 78.0001 172.348H99.0001V79.3475C101.5 27.3475 181.5 36.3475 181.5 81.3475L180.5 178.848C183.833 179.014 192.6 179.247 201 178.848C209.4 178.448 211.167 172.347 211 169.347L210.5 123.847C210.5 91.8475 262 94.8475 264.5 120.847V181.348C264 212.848 229.5 230.848 211.5 230.848H181V305.847H100Z" fill="url(#paint0_linear_29_213)" stroke="#125A30" stroke-width="6"/>
<defs>
<linearGradient id="paint0_linear_29_213" x1="264.5" y1="174.852" x2="15" y2="174.852" gradientUnits="userSpaceOnUse">
<stop offset="1" stop-color="#35B250"/>
</linearGradient>
</defs>
</svg>
