<svg width="96" height="96" viewBox="0 0 96 96" fill="none" xmlns="http://www.w3.org/2000/svg">
<path d="M14.975 51.1659C11.2744 47.4323 9 42.3624 9 36.7779C9 25.3026 18.6035 16.0001 30.45 16.0001C36.7545 16.0001 42.4237 21.8444 46.3483 26.8798C47.1833 27.9511 48.8167 27.9511 49.6517 26.8798C53.5763 21.8444 59.2455 16.0001 65.55 16.0001C77.3965 16.0001 87 25.3026 87 36.7779C87 42.6364 84.4969 47.9286 80.4701 51.7058L50.8202 81.1952C49.2601 82.7468 46.7397 82.7471 45.1793 81.1957L14.975 51.1659Z" fill="#E95252"/>
<path fill-rule="evenodd" clip-rule="evenodd" d="M13.5649 52.5842L13.5545 52.5738C9.50433 48.4875 7 42.9197 7 36.7779C7 24.1385 17.5594 14.0001 30.45 14.0001C34.2249 14.0001 37.6446 15.7437 40.5172 17.9712C43.4032 20.2091 45.9201 23.0769 47.9258 25.6503C47.9374 25.6652 47.9459 25.6704 47.9532 25.6739C47.9634 25.6787 47.9796 25.6833 48 25.6833C48.0204 25.6833 48.0366 25.6787 48.0468 25.6739C48.0541 25.6704 48.0626 25.6652 48.0742 25.6503C50.0799 23.0769 52.5968 20.2091 55.4828 17.9712C58.3554 15.7437 61.7751 14.0001 65.55 14.0001C78.4406 14.0001 89 24.1385 89 36.7779C89 43.2113 86.2527 49.0132 81.8601 53.144L52.2306 82.6132C49.8904 84.9407 46.1098 84.9411 43.7692 82.614L13.5649 52.5842ZM80.4701 51.7058C84.4969 47.9286 87 42.6364 87 36.7779C87 25.3026 77.3965 16.0001 65.55 16.0001C59.2455 16.0001 53.5763 21.8444 49.6517 26.8798C48.8167 27.9511 47.1833 27.9511 46.3483 26.8798C42.4237 21.8444 36.7545 16.0001 30.45 16.0001C18.6035 16.0001 9 25.3026 9 36.7779C9 42.3624 11.2744 47.4323 14.975 51.1659L45.1793 81.1957C46.7397 82.7471 49.2601 82.7468 50.8202 81.1952L80.4701 51.7058Z" fill="#60050F"/>
<path fill-rule="evenodd" clip-rule="evenodd" d="M21.8838 58.0347L45.1794 81.1957C46.7398 82.7471 49.2603 82.7468 50.8204 81.1952L50.8805 81.1354C50.1266 81.0535 49.3898 80.757 48.7671 80.2427L21.8838 58.0347ZM80.0442 21.4611C76.2268 18.0698 71.138 16.0001 65.5501 16.0001C59.2457 16.0001 53.5764 21.8444 49.6518 26.8798C48.8169 27.9511 47.1834 27.9511 46.3484 26.8798C43.8268 23.6445 40.585 20.0752 36.9171 17.9368C40.6977 20.6279 44.0121 24.6782 46.5338 27.9443C48.0689 29.9325 50.9357 29.9364 52.5285 27.9942C55.6383 24.2024 59.501 20.2407 64.9999 19.5001C70.0056 18.826 75.4764 19.252 80.0442 21.4611Z" fill="#D93F3F"/>
<path fill-rule="evenodd" clip-rule="evenodd" d="M9.20605 39.6701C10.208 42.0553 11.7954 44.2049 13.8217 45.9945L43.3734 71.7142C44.8791 73.0247 47.1205 73.0245 48.626 71.7137L77.6374 46.455C81.561 43.2333 83.9999 38.7193 83.9999 33.7223C83.9999 24.3602 75.4388 16.6937 64.5927 16.0446C64.91 16.0153 65.2291 16.0001 65.5499 16.0001C77.3964 16.0001 86.9999 25.3026 86.9999 36.7779C86.9999 42.6364 84.4968 47.9286 80.47 51.7058L50.8201 81.1952C49.26 82.7468 46.7396 82.7471 45.1792 81.1957L14.9749 51.1659C11.9247 48.0885 9.8434 44.1032 9.20605 39.6701ZM29.5444 16.0183C35.4509 16.3505 40.7411 21.1724 44.4328 25.3273C44.7642 25.7003 45.1971 25.9246 45.6508 26.0003C41.7665 21.1886 36.3902 16.0001 30.4499 16.0001C30.1466 16.0001 29.8447 16.0062 29.5444 16.0183Z" fill="#D93F3F"/>
<path fill-rule="evenodd" clip-rule="evenodd" d="M10.7793 45.0775C11.7008 46.5441 12.8287 47.8944 14.1279 49.0973L45.3033 77.54C46.8308 78.9336 49.1686 78.9334 50.6958 77.5395L81.3024 49.6055C82.8429 48.2795 84.1659 46.7552 85.2194 45.0789C84.0913 47.5837 82.4681 49.8313 80.4697 51.7058L50.8199 81.1952C49.2598 82.7468 46.7393 82.7471 45.1789 81.1957L14.9746 51.1659C13.2293 49.405 11.8012 47.3468 10.7793 45.0775ZM30.1867 16.0017C33.0071 16.0478 35.701 17.133 38.1734 18.7346C35.7769 17.0903 33.1725 16.0001 30.4497 16.0001C30.3619 16.0001 30.2742 16.0006 30.1867 16.0017ZM57.8218 18.7374C60.2953 17.1343 62.9907 16.0478 65.8128 16.0017C65.7252 16.0006 65.6375 16.0001 65.5497 16.0001C62.8252 16.0001 60.2194 17.0915 57.8218 18.7374Z" fill="#AE2929"/>
<path d="M37.5917 22.1795C41.405 27.4228 32.3337 26.4815 27.5538 32.6954C23.7486 37.6422 20.4615 46.5673 15.6721 40.8621C10.8826 35.1569 12.0314 26.3081 18.2379 21.0978C24.4444 15.8875 33.7677 16.9216 37.5917 22.1795Z" fill="#FF6D6D"/>
<path d="M35.2939 21.7118C36.6955 24.515 31.4019 22.5652 27.3517 27.7853C23.147 33.2046 17.5407 38.0635 14.8448 33.2046C12.7214 29.1019 15.5453 23.4235 21.1522 20.5215C26.7592 17.6195 33.7523 18.6285 35.2939 21.7118Z" fill="#FF968F"/>
<path d="M74.4554 20.7564C76.8035 23.5742 72.1073 25.4527 68.3503 31.0881C65.2881 35.6815 56.985 41.18 53.792 35.7841C51.149 31.3179 52.334 23.735 58.6457 19.8347C64.9574 15.9345 71.5958 17.3249 74.4554 20.7564Z" fill="#FF6D6D"/>
<path d="M72.107 20.7565C73.7204 22.7733 70.2285 23.5742 66.9411 26.8616C63.6538 30.1489 58.1283 32.8055 56.4698 29.6011C54.8113 26.3966 57.0169 21.9615 61.3962 19.6949C65.7755 17.4283 70.2285 18.4084 72.107 20.7565Z" fill="#FF968F"/>
<path d="M65.5307 21.5139C66.1499 22.7103 65.3264 24.3663 63.6913 25.2126C62.0562 26.0588 60.2287 25.775 59.6095 24.5785C58.9903 23.3821 59.8138 21.7262 61.4489 20.8799C63.0839 20.0336 64.9114 20.3175 65.5307 21.5139Z" fill="#FFD1CE"/>
<path d="M24.6836 22.765C25.3139 23.9828 24.4757 25.6682 22.8114 26.5296C21.1472 27.3909 19.2871 27.102 18.6568 25.8843C18.0266 24.6665 18.8648 22.981 20.529 22.1197C22.1932 21.2583 24.0533 21.5472 24.6836 22.765Z" fill="#FFBFBB"/>
<path fill-rule="evenodd" clip-rule="evenodd" d="M22.3945 22.0529C22.6415 22.5469 22.4412 23.1475 21.9473 23.3945C21.4141 23.6611 19.7934 24.7342 18.2809 26.6248C17.9359 27.0561 17.3066 27.126 16.8753 26.781C16.4441 26.436 16.3742 25.8067 16.7192 25.3754C18.4067 23.266 20.2527 22.0057 21.0528 21.6057C21.5468 21.3587 22.1475 21.5589 22.3945 22.0529Z" fill="#FFEAE9"/>
<path d="M45 62.0001C45 62.5524 44.5523 63.0001 44 63.0001C43.4477 63.0001 43 62.5524 43 62.0001C43 61.4478 43.4477 61.0001 44 61.0001C44.5523 61.0001 45 61.4478 45 62.0001Z" fill="#FF6060"/>
<path d="M41 64.0001C41 64.5524 40.5523 65.0001 40 65.0001C39.4477 65.0001 39 64.5524 39 64.0001C39 63.4478 39.4477 63.0001 40 63.0001C40.5523 63.0001 41 63.4478 41 64.0001Z" fill="#FF6060"/>
<path d="M42 57.0001C42 57.5524 41.5523 58.0001 41 58.0001C40.4477 58.0001 40 57.5524 40 57.0001C40 56.4478 40.4477 56.0001 41 56.0001C41.5523 56.0001 42 56.4478 42 57.0001Z" fill="#FF6060"/>
<path d="M54 59.0001C54 59.5524 53.5523 60.0001 53 60.0001C52.4477 60.0001 52 59.5524 52 59.0001C52 58.4478 52.4477 58.0001 53 58.0001C53.5523 58.0001 54 58.4478 54 59.0001Z" fill="#FF6060"/>
<path d="M56 61.0001C56 61.5524 55.5523 62.0001 55 62.0001C54.4477 62.0001 54 61.5524 54 61.0001C54 60.4478 54.4477 60.0001 55 60.0001C55.5523 60.0001 56 60.4478 56 61.0001Z" fill="#FF6060"/>
<path d="M49 57.0001C49 57.5524 48.5523 58.0001 48 58.0001C47.4477 58.0001 47 57.5524 47 57.0001C47 56.4478 47.4477 56.0001 48 56.0001C48.5523 56.0001 49 56.4478 49 57.0001Z" fill="#FF6060"/>
<path d="M53 53.5001C53 53.7763 52.7761 54.0001 52.5 54.0001C52.2239 54.0001 52 53.7763 52 53.5001C52 53.224 52.2239 53.0001 52.5 53.0001C52.7761 53.0001 53 53.224 53 53.5001Z" fill="#FF6060"/>
<path d="M46 54.5001C46 54.7763 45.7761 55.0001 45.5 55.0001C45.2239 55.0001 45 54.7763 45 54.5001C45 54.224 45.2239 54.0001 45.5 54.0001C45.7761 54.0001 46 54.224 46 54.5001Z" fill="#FF6060"/>
<path d="M36 54.5001C36 54.7763 35.7761 55.0001 35.5 55.0001C35.2239 55.0001 35 54.7763 35 54.5001C35 54.224 35.2239 54.0001 35.5 54.0001C35.7761 54.0001 36 54.224 36 54.5001Z" fill="#FF6060"/>
<path d="M48 69.5001C48 69.7763 47.7761 70.0001 47.5 70.0001C47.2239 70.0001 47 69.7763 47 69.5001C47 69.224 47.2239 69.0001 47.5 69.0001C47.7761 69.0001 48 69.224 48 69.5001Z" fill="#FF6060"/>
<path d="M51 68.5001C51 68.7763 50.7761 69.0001 50.5 69.0001C50.2239 69.0001 50 68.7763 50 68.5001C50 68.224 50.2239 68.0001 50.5 68.0001C50.7761 68.0001 51 68.224 51 68.5001Z" fill="#FF6060"/>
<path d="M50 59.5001C50 59.7763 49.7761 60.0001 49.5 60.0001C49.2239 60.0001 49 59.7763 49 59.5001C49 59.224 49.2239 59.0001 49.5 59.0001C49.7761 59.0001 50 59.224 50 59.5001Z" fill="#FF6060"/>
<path d="M45 58.5001C45 58.7763 44.7761 59.0001 44.5 59.0001C44.2239 59.0001 44 58.7763 44 58.5001C44 58.224 44.2239 58.0001 44.5 58.0001C44.7761 58.0001 45 58.224 45 58.5001Z" fill="#FF6060"/>
<path d="M33 57.5001C33 57.7763 32.7761 58.0001 32.5 58.0001C32.2239 58.0001 32 57.7763 32 57.5001C32 57.224 32.2239 57.0001 32.5 57.0001C32.7761 57.0001 33 57.224 33 57.5001Z" fill="#FF6060"/>
<path d="M30 54.5001C30 54.7763 29.7761 55.0001 29.5 55.0001C29.2239 55.0001 29 54.7763 29 54.5001C29 54.224 29.2239 54.0001 29.5 54.0001C29.7761 54.0001 30 54.224 30 54.5001Z" fill="#FF6060"/>
<path d="M57 56.5001C57 56.7763 56.7761 57.0001 56.5 57.0001C56.2239 57.0001 56 56.7763 56 56.5001C56 56.224 56.2239 56.0001 56.5 56.0001C56.7761 56.0001 57 56.224 57 56.5001Z" fill="#FF6060"/>
<path d="M62 55.5001C62 55.7763 61.7761 56.0001 61.5 56.0001C61.2239 56.0001 61 55.7763 61 55.5001C61 55.224 61.2239 55.0001 61.5 55.0001C61.7761 55.0001 62 55.224 62 55.5001Z" fill="#FF6060"/>
<path d="M66 55.5001C66 55.7763 65.7761 56.0001 65.5 56.0001C65.2239 56.0001 65 55.7763 65 55.5001C65 55.224 65.2239 55.0001 65.5 55.0001C65.7761 55.0001 66 55.224 66 55.5001Z" fill="#FF6060"/>
<path d="M54 65.0001C54 65.5524 53.5523 66.0001 53 66.0001C52.4477 66.0001 52 65.5524 52 65.0001C52 64.4478 52.4477 64.0001 53 64.0001C53.5523 64.0001 54 64.4478 54 65.0001Z" fill="#FF6060"/>
<path d="M51 64.0001C51 65.1047 50.1046 66.0001 49 66.0001C47.8954 66.0001 47 65.1047 47 64.0001C47 62.8956 47.8954 62.0001 49 62.0001C50.1046 62.0001 51 62.8956 51 64.0001Z" fill="#FF6060"/>
<path d="M45 67.5001C45 68.3285 44.3284 69.0001 43.5 69.0001C42.6716 69.0001 42 68.3285 42 67.5001C42 66.6717 42.6716 66.0001 43.5 66.0001C44.3284 66.0001 45 66.6717 45 67.5001Z" fill="#FF6060"/>
<path d="M61 59.5001C61 60.3285 60.3284 61.0001 59.5 61.0001C58.6716 61.0001 58 60.3285 58 59.5001C58 58.6717 58.6716 58.0001 59.5 58.0001C60.3284 58.0001 61 58.6717 61 59.5001Z" fill="#FF6060"/>
<path d="M37 60.5001C37 61.3285 36.3284 62.0001 35.5 62.0001C34.6716 62.0001 34 61.3285 34 60.5001C34 59.6717 34.6716 59.0001 35.5 59.0001C36.3284 59.0001 37 59.6717 37 60.5001Z" fill="#FF6060"/>
<path d="M48 82.3592C49.0201 82.3591 50.0402 81.9711 50.8202 81.1953L80.4701 51.7059C84.4969 47.9288 87 42.6366 87 36.778C87 25.3028 77.3965 16.0002 65.55 16.0002C59.2455 16.0002 53.5763 21.8445 49.6517 26.8799C49.2342 27.4156 48.6171 27.6834 48 27.6834V82.3592Z" fill="#575757"/>
<path d="M48 84.3589C49.5303 84.3588 51.0605 83.7769 52.2306 82.6131L81.8601 53.1439C86.2527 49.013 89 43.2111 89 36.7778C89 24.1384 78.4406 14 65.55 14C61.7751 14 58.3554 15.7436 55.4828 17.9711C52.5968 20.209 50.0799 23.0768 48.0742 25.6502C48.0626 25.6651 48.0541 25.6703 48.0468 25.6738C48.0366 25.6785 48.0204 25.6831 48 25.6831V27.6831C48.6171 27.6831 49.2342 27.4153 49.6517 26.8797C53.5763 21.8443 59.2455 16 65.55 16C77.3965 16 87 25.3025 87 36.7778C87 42.6363 84.4969 47.9285 80.4701 51.7057L50.8202 81.195C50.0402 81.9708 49.0201 82.3588 48 82.3589V84.3589Z" fill="#181818"/>
<path d="M48 82.3592C49.0201 82.359 50.0401 81.9711 50.8201 81.1953L50.8803 81.1355C50.1263 81.0536 49.3895 80.7571 48.7669 80.2428L48 79.6093V82.3592Z" fill="#434343"/>
<path d="M48 29.114C49.51 29.7957 51.3612 29.4174 52.5283 27.9943C55.6381 24.2025 59.5008 20.2408 64.9996 19.5002C70.0053 18.8261 75.4762 19.2522 80.0439 21.4612C76.2266 18.07 71.1378 16.0002 65.5499 16.0002C59.2454 16.0002 53.5762 21.8445 49.6516 26.8799C49.2341 27.4155 48.6171 27.6834 48 27.6834V29.114Z" fill="#434343"/>
<path d="M48 82.3592C49.0201 82.359 50.0401 81.9711 50.8201 81.1953L80.47 51.7059C84.4968 47.9288 86.9999 42.6366 86.9999 36.778C86.9999 25.3028 77.3964 16.0002 65.5499 16.0002C65.2291 16.0002 64.91 16.0154 64.5927 16.0448C75.4388 16.6938 83.9999 24.3604 83.9999 33.7225C83.9999 38.7194 81.561 43.2334 77.6374 46.4551L48.626 71.7138C48.4289 71.8855 48.2191 72.0347 48 72.1614V82.3592Z" fill="#444444"/>
<path d="M48 82.3592C49.0201 82.359 50.0401 81.9711 50.8201 81.1953L80.47 51.7059C82.4684 49.8314 84.0915 47.5838 85.2197 45.079C84.1662 46.7553 82.8431 48.2796 81.3027 49.6056L50.696 77.5397C49.9324 78.2366 48.9662 78.5851 48 78.5852V82.3592Z" fill="#2F2F2F"/>
<path d="M65.813 16.0018C62.9909 16.0479 60.2956 17.1344 57.822 18.7375C60.2197 17.0916 62.8255 16.0002 65.5499 16.0002C65.6377 16.0002 65.7254 16.0008 65.813 16.0018Z" fill="#2F2F2F"/>
<path d="M74.4554 20.7562C76.8035 23.5739 72.1073 25.4524 68.3503 31.0879C65.2881 35.6812 56.985 41.1797 53.792 35.7839C51.149 31.3176 52.334 23.7348 58.6457 19.8345C64.9574 15.9342 71.5958 17.3247 74.4554 20.7562Z" fill="#7B7B7B"/>
<path d="M72.107 20.7563C73.7204 22.773 70.2285 23.574 66.9411 26.8613C63.6538 30.1487 58.1283 32.8052 56.4698 29.6008C54.8113 26.3964 57.0169 21.9613 61.3962 19.6947C65.7755 17.4281 70.2285 18.4081 72.107 20.7563Z" fill="#9E9E9E"/>
<path d="M65.5307 21.5137C66.1499 22.7101 65.3264 24.366 63.6913 25.2123C62.0562 26.0586 60.2287 25.7747 59.6095 24.5783C58.9903 23.3819 59.8138 21.7259 61.4489 20.8797C63.0839 20.0334 64.9114 20.3173 65.5307 21.5137Z" fill="#E1E1E1"/>
<path d="M48 65.7327C48.2942 65.9029 48.6357 66.0002 49 66.0002C50.1046 66.0002 51 65.1048 51 64.0002C51 62.8957 50.1046 62.0002 49 62.0002C48.6357 62.0002 48.2942 62.0976 48 62.2678V65.7327Z" fill="#787878"/>
<path d="M48 58.0002C48.5523 58.0002 49 57.5525 49 57.0002C49 56.448 48.5523 56.0002 48 56.0002V58.0002Z" fill="#787878"/>
<path d="M52.5 54.0002C52.7761 54.0002 53 53.7764 53 53.5002C53 53.2241 52.7761 53.0002 52.5 53.0002C52.2239 53.0002 52 53.2241 52 53.5002C52 53.7764 52.2239 54.0002 52.5 54.0002Z" fill="#787878"/>
<path d="M54 59.0002C54 59.5525 53.5523 60.0002 53 60.0002C52.4477 60.0002 52 59.5525 52 59.0002C52 58.448 52.4477 58.0002 53 58.0002C53.5523 58.0002 54 58.448 54 59.0002Z" fill="#787878"/>
<path d="M55 62.0002C55.5523 62.0002 56 61.5525 56 61.0002C56 60.448 55.5523 60.0002 55 60.0002C54.4477 60.0002 54 60.448 54 61.0002C54 61.5525 54.4477 62.0002 55 62.0002Z" fill="#787878"/>
<path d="M50.5 69.0002C50.7761 69.0002 51 68.7764 51 68.5002C51 68.2241 50.7761 68.0002 50.5 68.0002C50.2239 68.0002 50 68.2241 50 68.5002C50 68.7764 50.2239 69.0002 50.5 69.0002Z" fill="#787878"/>
<path d="M50 59.5002C50 59.7764 49.7761 60.0002 49.5 60.0002C49.2239 60.0002 49 59.7764 49 59.5002C49 59.2241 49.2239 59.0002 49.5 59.0002C49.7761 59.0002 50 59.2241 50 59.5002Z" fill="#787878"/>
<path d="M57 56.5002C57 56.7764 56.7761 57.0002 56.5 57.0002C56.2239 57.0002 56 56.7764 56 56.5002C56 56.2241 56.2239 56.0002 56.5 56.0002C56.7761 56.0002 57 56.2241 57 56.5002Z" fill="#787878"/>
<path d="M61.5 56.0002C61.7761 56.0002 62 55.7764 62 55.5002C62 55.2241 61.7761 55.0002 61.5 55.0002C61.2239 55.0002 61 55.2241 61 55.5002C61 55.7764 61.2239 56.0002 61.5 56.0002Z" fill="#787878"/>
<path d="M66 55.5002C66 55.7764 65.7761 56.0002 65.5 56.0002C65.2239 56.0002 65 55.7764 65 55.5002C65 55.2241 65.2239 55.0002 65.5 55.0002C65.7761 55.0002 66 55.2241 66 55.5002Z" fill="#787878"/>
<path d="M53 66.0002C53.5523 66.0002 54 65.5525 54 65.0002C54 64.448 53.5523 64.0002 53 64.0002C52.4477 64.0002 52 64.448 52 65.0002C52 65.5525 52.4477 66.0002 53 66.0002Z" fill="#787878"/>
<path d="M61 59.5002C61 60.3287 60.3284 61.0002 59.5 61.0002C58.6716 61.0002 58 60.3287 58 59.5002C58 58.6718 58.6716 58.0002 59.5 58.0002C60.3284 58.0002 61 58.6718 61 59.5002Z" fill="#787878"/>
</svg>
