<svg width="96" height="96" viewBox="0 0 96 96" fill="none" xmlns="http://www.w3.org/2000/svg">
<path fill-rule="evenodd" clip-rule="evenodd" d="M23.2115 8C18.4193 8 15.561 13.3409 18.2192 17.3282L38.6671 48L16.1463 81.7812C14.3742 84.4394 16.2797 88 19.4745 88H76.5264C79.7211 88 81.6267 84.4394 79.8546 81.7812L57.3337 48L77.7816 17.3282C80.4398 13.3409 77.5815 8 72.7893 8H23.2115Z" fill="#D7FDFF"/>
<path fill-rule="evenodd" clip-rule="evenodd" d="M16.555 18.4376C13.0107 13.1212 16.8219 6 23.2114 6H72.7892C79.1788 6 82.9899 13.1212 79.4456 18.4376L59.7374 48L81.5186 80.6718C84.1768 84.6591 81.3185 90 76.5263 90H19.4744C14.6823 90 11.8239 84.6591 14.4821 80.6718L36.2633 48L16.555 18.4376ZM57.3337 48L77.7815 17.3282C80.4398 13.3409 77.5814 8 72.7892 8H23.2114C18.4193 8 15.5609 13.3409 18.2191 17.3282L38.667 48L16.1462 81.7812C14.3741 84.4394 16.2797 88 19.4744 88H76.5263C79.7211 88 81.6267 84.4394 79.8545 81.7812L57.3337 48Z" fill="#03265B"/>
<path d="M23.2115 8C18.4193 8 15.561 13.3409 18.2192 17.3282L38.6671 48L16.1463 81.7812C14.3742 84.4394 16.2797 88 19.4745 88H40.0004L48.0004 48L40.0004 8H23.2115Z" fill="#A4F3F8"/>
<path d="M23.2115 8C18.4193 8 15.561 13.3409 18.2192 17.3282L38.6671 48L16.1463 81.7812C14.3742 84.4394 16.2797 88 19.4745 88H32.0004L48.0004 48L32.0004 8H23.2115Z" fill="#F8FFFF"/>
<path d="M79.8541 81.7812C81.6263 84.4394 79.7207 88 76.5259 88H64L48 48L64 8H72.7889C77.5811 8 80.4394 13.3409 77.7812 17.3282L57.3333 48L79.8541 81.7812Z" fill="#A4F3F8"/>
<path fill-rule="evenodd" clip-rule="evenodd" d="M18.2192 17.3282C15.561 13.3409 18.4193 8 23.2115 8H29.2115C24.4193 8 21.561 13.3409 24.2192 17.3282L44.6671 48L22.1463 81.7812C20.3742 84.4394 22.2797 88 25.4745 88H19.4745C16.2797 88 14.3742 84.4394 16.1463 81.7812L38.6671 48L18.2192 17.3282Z" fill="#86F8FF"/>
<path fill-rule="evenodd" clip-rule="evenodd" d="M70.5261 88H76.5261C79.7208 88 81.6264 84.4394 79.8543 81.7812L57.3335 48L77.7813 17.3282C80.4395 13.3409 77.5812 8 72.789 8H66.789C71.5812 8 74.4396 13.3409 71.7813 17.3282L51.3335 48L73.8543 81.7812C75.6265 84.4394 73.7209 88 70.5261 88Z" fill="#15D6E2"/>
<path d="M76.5264 88H19.4745C17.5105 88 16.0338 86.6544 15.5991 85H80.4018C79.9672 86.6544 78.4904 88 76.5264 88Z" fill="#8B3ACA"/>
<path d="M18.2192 17.3281L77.7816 17.3281L58.3754 46.4376C56.8917 48.6632 54.3938 50 51.719 50H44.282C41.6071 50 39.1093 48.6632 37.6256 46.4376L18.2192 17.3281Z" fill="#C25FFF"/>
<path fill-rule="evenodd" clip-rule="evenodd" d="M20 18.3C20 17.7478 20.4477 17.3 21 17.3H75C75.5523 17.3 76 17.7478 76 18.3C76 18.8523 75.5523 19.3 75 19.3H21C20.4477 19.3 20 18.8523 20 18.3Z" fill="#8232B2"/>
<path fill-rule="evenodd" clip-rule="evenodd" d="M24.2192 17.3281H18.2192L37.6256 46.4376C39.1093 48.6632 41.6071 50 44.282 50H50.282C47.6071 50 45.1093 48.6632 43.6256 46.4376L24.2192 17.3281Z" fill="#E56CEF"/>
<path fill-rule="evenodd" clip-rule="evenodd" d="M45.7188 50H51.7188C54.3936 50 56.8914 48.6632 58.3752 46.4376L77.7814 17.3281H71.7814L52.3752 46.4376C50.8914 48.6632 48.3936 50 45.7188 50Z" fill="#8B3ACA"/>
<path d="M50 69C50 70.1046 49.1046 71 48 71C46.8954 71 46 70.1046 46 69C46 67.8954 46.8954 67 48 67C49.1046 67 50 67.8954 50 69Z" fill="#8B3ACA"/>
<path d="M51 53C51 54.6569 49.6569 56 48 56C46.3431 56 45 54.6569 45 53C45 51.3431 46.3431 50 48 50C49.6569 50 51 51.3431 51 53Z" fill="#8B3ACA"/>
<path d="M52 49C52 51.2091 50.2091 53 48 53C45.7909 53 44 51.2091 44 49C44 46.7909 45.7909 45 48 45C50.2091 45 52 46.7909 52 49Z" fill="#C25FFF"/>
<path d="M47 41C47 41.5523 46.5523 42 46 42C45.4477 42 45 41.5523 45 41C45 40.4477 45.4477 40 46 40C46.5523 40 47 40.4477 47 41Z" fill="#FD89FF"/>
<path d="M46 45C46 45.5523 45.5523 46 45 46C44.4477 46 44 45.5523 44 45C44 44.4477 44.4477 44 45 44C45.5523 44 46 44.4477 46 45Z" fill="#FD89FF"/>
<path d="M50 46.5C50 47.3284 49.3284 48 48.5 48C47.6716 48 47 47.3284 47 46.5C47 45.6716 47.6716 45 48.5 45C49.3284 45 50 45.6716 50 46.5Z" fill="#FD89FF"/>
<path d="M53 44C53 44.5523 52.5523 45 52 45C51.4477 45 51 44.5523 51 44C51 43.4477 51.4477 43 52 43C52.5523 43 53 43.4477 53 44Z" fill="#FD89FF"/>
<path d="M48 43.5C48 43.7761 47.7761 44 47.5 44C47.2239 44 47 43.7761 47 43.5C47 43.2239 47.2239 43 47.5 43C47.7761 43 48 43.2239 48 43.5Z" fill="#FD89FF"/>
<path d="M43 41.5C43 41.7761 42.7761 42 42.5 42C42.2239 42 42 41.7761 42 41.5C42 41.2239 42.2239 41 42.5 41C42.7761 41 43 41.2239 43 41.5Z" fill="#FD89FF"/>
<path d="M53 37C53 37.5523 52.5523 38 52 38C51.4477 38 51 37.5523 51 37C51 36.4477 51.4477 36 52 36C52.5523 36 53 36.4477 53 37Z" fill="#FD89FF"/>
<path d="M47 34C47 34.5523 46.5523 35 46 35C45.4477 35 45 34.5523 45 34C45 33.4477 45.4477 33 46 33C46.5523 33 47 33.4477 47 34Z" fill="#FD89FF"/>
<path d="M55 32C55 32.5523 54.5523 33 54 33C53.4477 33 53 32.5523 53 32C53 31.4477 53.4477 31 54 31C54.5523 31 55 31.4477 55 32Z" fill="#FD89FF"/>
<path d="M38 29C38 29.5523 37.5523 30 37 30C36.4477 30 36 29.5523 36 29C36 28.4477 36.4477 28 37 28C37.5523 28 38 28.4477 38 29Z" fill="#FD89FF"/>
<path d="M38 36C38 36.5523 37.5523 37 37 37C36.4477 37 36 36.5523 36 36C36 35.4477 36.4477 35 37 35C37.5523 35 38 35.4477 38 36Z" fill="#FD89FF"/>
<path d="M59 35C59 35.5523 58.5523 36 58 36C57.4477 36 57 35.5523 57 35C57 34.4477 57.4477 34 58 34C58.5523 34 59 34.4477 59 35Z" fill="#FD89FF"/>
<path d="M51 41C51 41.5523 50.5523 42 50 42C49.4477 42 49 41.5523 49 41C49 40.4477 49.4477 40 50 40C50.5523 40 51 40.4477 51 41Z" fill="#FD89FF"/>
<path d="M56 42C56 42.5523 55.5523 43 55 43C54.4477 43 54 42.5523 54 42C54 41.4477 54.4477 41 55 41C55.5523 41 56 41.4477 56 42Z" fill="#FD89FF"/>
<path d="M61 31C61 31.5523 60.5523 32 60 32C59.4477 32 59 31.5523 59 31C59 30.4477 59.4477 30 60 30C60.5523 30 61 30.4477 61 31Z" fill="#FD89FF"/>
<path d="M44 37.5C44 37.7761 43.7761 38 43.5 38C43.2239 38 43 37.7761 43 37.5C43 37.2239 43.2239 37 43.5 37C43.7761 37 44 37.2239 44 37.5Z" fill="#FD89FF"/>
<path d="M49 38.5C49 38.7761 48.7761 39 48.5 39C48.2239 39 48 38.7761 48 38.5C48 38.2239 48.2239 38 48.5 38C48.7761 38 49 38.2239 49 38.5Z" fill="#FD89FF"/>
<path d="M50 33.5C50 33.7761 49.7761 34 49.5 34C49.2239 34 49 33.7761 49 33.5C49 33.2239 49.2239 33 49.5 33C49.7761 33 50 33.2239 50 33.5Z" fill="#FD89FF"/>
<path d="M46 29.5C46 29.7761 45.7761 30 45.5 30C45.2239 30 45 29.7761 45 29.5C45 29.2239 45.2239 29 45.5 29C45.7761 29 46 29.2239 46 29.5Z" fill="#FD89FF"/>
<path d="M43 31.5C43 31.7761 42.7761 32 42.5 32C42.2239 32 42 31.7761 42 31.5C42 31.2239 42.2239 31 42.5 31C42.7761 31 43 31.2239 43 31.5Z" fill="#FD89FF"/>
<path d="M37 32.5C37 32.7761 36.7761 33 36.5 33C36.2239 33 36 32.7761 36 32.5C36 32.2239 36.2239 32 36.5 32C36.7761 32 37 32.2239 37 32.5Z" fill="#FD89FF"/>
<path d="M33 29.5C33 29.7761 32.7761 30 32.5 30C32.2239 30 32 29.7761 32 29.5C32 29.2239 32.2239 29 32.5 29C32.7761 29 33 29.2239 33 29.5Z" fill="#FD89FF"/>
<path d="M41 35.5C41 35.7761 40.7761 36 40.5 36C40.2239 36 40 35.7761 40 35.5C40 35.2239 40.2239 35 40.5 35C40.7761 35 41 35.2239 41 35.5Z" fill="#FD89FF"/>
<path d="M42 38.5C42 38.7761 41.7761 39 41.5 39C41.2239 39 41 38.7761 41 38.5C41 38.2239 41.2239 38 41.5 38C41.7761 38 42 38.2239 42 38.5Z" fill="#FD89FF"/>
<path d="M39 38.5C39 38.7761 38.7761 39 38.5 39C38.2239 39 38 38.7761 38 38.5C38 38.2239 38.2239 38 38.5 38C38.7761 38 39 38.2239 39 38.5Z" fill="#FD89FF"/>
<path d="M55 34.5C55 34.7761 54.7761 35 54.5 35C54.2239 35 54 34.7761 54 34.5C54 34.2239 54.2239 34 54.5 34C54.7761 34 55 34.2239 55 34.5Z" fill="#FD89FF"/>
<path d="M57 38.5C57 38.7761 56.7761 39 56.5 39C56.2239 39 56 38.7761 56 38.5C56 38.2239 56.2239 38 56.5 38C56.7761 38 57 38.2239 57 38.5Z" fill="#FD89FF"/>
<path d="M63 31.5C63 31.7761 62.7761 32 62.5 32C62.2239 32 62 31.7761 62 31.5C62 31.2239 62.2239 31 62.5 31C62.7761 31 63 31.2239 63 31.5Z" fill="#FD89FF"/>
<path d="M57 30.5C57 30.7761 56.7761 31 56.5 31C56.2239 31 56 30.7761 56 30.5C56 30.2239 56.2239 30 56.5 30C56.7761 30 57 30.2239 57 30.5Z" fill="#FD89FF"/>
<path d="M54 27.5C54 27.7761 53.7761 28 53.5 28C53.2239 28 53 27.7761 53 27.5C53 27.2239 53.2239 27 53.5 27C53.7761 27 54 27.2239 54 27.5Z" fill="#FD89FF"/>
<path d="M51 30.5C51 30.7761 50.7761 31 50.5 31C50.2239 31 50 30.7761 50 30.5C50 30.2239 50.2239 30 50.5 30C50.7761 30 51 30.2239 51 30.5Z" fill="#FD89FF"/>
<path d="M48 30.5C48 30.7761 47.7761 31 47.5 31C47.2239 31 47 30.7761 47 30.5C47 30.2239 47.2239 30 47.5 30C47.7761 30 48 30.2239 48 30.5Z" fill="#FD89FF"/>
<path d="M41 26.5C41 26.7761 40.7761 27 40.5 27C40.2239 27 40 26.7761 40 26.5C40 26.2239 40.2239 26 40.5 26C40.7761 26 41 26.2239 41 26.5Z" fill="#FD89FF"/>
<path d="M62 26.5C62 26.7761 61.7761 27 61.5 27C61.2239 27 61 26.7761 61 26.5C61 26.2239 61.2239 26 61.5 26C61.7761 26 62 26.2239 62 26.5Z" fill="#FD89FF"/>
<path d="M54 39.5C54 39.7761 53.7761 40 53.5 40C53.2239 40 53 39.7761 53 39.5C53 39.2239 53.2239 39 53.5 39C53.7761 39 54 39.2239 54 39.5Z" fill="#FD89FF"/>
<path fill-rule="evenodd" clip-rule="evenodd" d="M18.9623 81.8431C19.4279 82.1401 20.0462 82.0034 20.3432 81.5378L38.8432 52.5378C39.1402 52.0722 39.0036 51.454 38.5379 51.1569C38.0723 50.8599 37.4541 50.9966 37.1571 51.4622L18.6571 80.4622C18.36 80.9278 18.4967 81.546 18.9623 81.8431Z" fill="#A8FFEF"/>
<path fill-rule="evenodd" clip-rule="evenodd" d="M23.5873 74.5931C24.0529 74.8901 24.6712 74.7534 24.9682 74.2878L29.5932 67.0378C29.8902 66.5722 29.7536 65.954 29.2879 65.6569C28.8223 65.3599 28.2041 65.4966 27.9071 65.9622L23.2821 73.2122C22.985 73.6778 23.1217 74.296 23.5873 74.5931Z" fill="white"/>
<path fill-rule="evenodd" clip-rule="evenodd" d="M18.9623 14.1569C19.4279 13.8599 20.0462 13.9966 20.3432 14.4622L38.8432 43.4622C39.1402 43.9278 39.0036 44.546 38.5379 44.8431C38.0723 45.1401 37.4541 45.0034 37.1571 44.5378L18.6571 15.5378C18.36 15.0722 18.4967 14.454 18.9623 14.1569Z" fill="#A8FFEF"/>
<path fill-rule="evenodd" clip-rule="evenodd" d="M23.5873 21.4069C24.0529 21.1099 24.6712 21.2466 24.9682 21.7122L29.5932 28.9622C29.8902 29.4278 29.7536 30.046 29.2879 30.3431C28.8223 30.6401 28.2041 30.5034 27.9071 30.0378L23.2821 22.7878C22.985 22.3222 23.1217 21.704 23.5873 21.4069Z" fill="white"/>
<path fill-rule="evenodd" clip-rule="evenodd" d="M18 85C18 84.4477 18.4477 84 19 84H77C77.5523 84 78 84.4477 78 85C78 85.5523 77.5523 86 77 86H19C18.4477 86 18 85.5523 18 85Z" fill="#15D6E2"/>
<path fill-rule="evenodd" clip-rule="evenodd" d="M20 11C20 10.4477 20.4477 10 21 10H75C75.5523 10 76 10.4477 76 11C76 11.5523 75.5523 12 75 12H21C20.4477 12 20 11.5523 20 11Z" fill="#15D6E2"/>
</svg>
