<svg width="96" height="96" viewBox="0 0 96 96" fill="none" xmlns="http://www.w3.org/2000/svg">
<g clip-path="url(#clip0_201_2028)">
<path d="M87.9995 47.9999C87.9995 70.0913 70.0909 87.9999 47.9995 87.9999C25.9081 87.9999 7.99951 70.0913 7.99951 47.9999C7.99951 25.9085 25.9081 7.99988 47.9995 7.99988C70.0909 7.99988 87.9995 25.9085 87.9995 47.9999Z" fill="#CA73FF"/>
<path fill-rule="evenodd" clip-rule="evenodd" d="M89.9995 47.9999C89.9995 71.1958 71.1955 89.9999 47.9995 89.9999C24.8036 89.9999 5.99951 71.1958 5.99951 47.9999C5.99951 24.8039 24.8036 5.99988 47.9995 5.99988C71.1955 5.99988 89.9995 24.8039 89.9995 47.9999ZM47.9995 87.9999C70.0909 87.9999 87.9995 70.0913 87.9995 47.9999C87.9995 25.9085 70.0909 7.99988 47.9995 7.99988C25.9081 7.99988 7.99951 25.9085 7.99951 47.9999C7.99951 70.0913 25.9081 87.9999 47.9995 87.9999Z" fill="#6C0CA7"/>
<path d="M71.9995 47.9999C71.9995 61.2547 61.2543 71.9999 47.9995 71.9999C34.7447 71.9999 23.9995 61.2547 23.9995 47.9999C23.9995 34.745 34.7447 23.9999 47.9995 23.9999C61.2543 23.9999 71.9995 34.745 71.9995 47.9999Z" fill="#B959F2"/>
<path fill-rule="evenodd" clip-rule="evenodd" d="M47.9995 87.9999C70.0909 87.9999 87.9995 70.0913 87.9995 47.9999C87.9995 25.9085 70.0909 7.99988 47.9995 7.99988C41.5677 7.99988 35.4905 9.51791 30.1065 12.2152C34.6452 10.1502 39.688 8.99988 44.9995 8.99988C64.8818 8.99988 80.9995 25.1176 80.9995 44.9999C80.9995 64.8821 64.8818 80.9999 44.9995 80.9999C25.1173 80.9999 8.99951 64.8821 8.99951 44.9999C8.99951 39.6884 10.1498 34.6456 12.2149 30.1069C9.51754 35.4909 7.99951 41.5681 7.99951 47.9999C7.99951 70.0913 25.9081 87.9999 47.9995 87.9999Z" fill="#BD5EF7"/>
<path fill-rule="evenodd" clip-rule="evenodd" d="M45.9994 86.9998C68.0908 86.9998 85.9994 69.0912 85.9994 46.9998C85.9994 31.7286 77.4416 18.4562 64.8602 11.7167C78.526 18.078 87.9993 31.9327 87.9993 48C87.9993 70.0914 70.0907 88 47.9993 88C41.1792 88 34.7576 86.2931 29.1387 83.2832C34.2624 85.6682 39.9754 86.9998 45.9994 86.9998Z" fill="#A03FDC"/>
<path d="M57.9995 49.9999C57.9995 51.1044 57.1041 51.9999 55.9995 51.9999C54.8949 51.9999 53.9995 51.1044 53.9995 49.9999C53.9995 48.8953 54.8949 47.9999 55.9995 47.9999C57.1041 47.9999 57.9995 48.8953 57.9995 49.9999Z" fill="#FF91E0"/>
<path d="M68.9995 57.9999C68.9995 59.1044 68.1041 59.9999 66.9995 59.9999C65.8949 59.9999 64.9995 59.1044 64.9995 57.9999C64.9995 56.8953 65.8949 55.9999 66.9995 55.9999C68.1041 55.9999 68.9995 56.8953 68.9995 57.9999Z" fill="#9B3DD5"/>
<path d="M66.9995 48.9999C66.9995 49.5522 66.5518 49.9999 65.9995 49.9999C65.4472 49.9999 64.9995 49.5522 64.9995 48.9999C64.9995 48.4476 65.4472 47.9999 65.9995 47.9999C66.5518 47.9999 66.9995 48.4476 66.9995 48.9999Z" fill="#9B3DD5"/>
<path d="M61.9995 52.9999C61.9995 53.5522 61.5518 53.9999 60.9995 53.9999C60.4472 53.9999 59.9995 53.5522 59.9995 52.9999C59.9995 52.4476 60.4472 51.9999 60.9995 51.9999C61.5518 51.9999 61.9995 52.4476 61.9995 52.9999Z" fill="#9B3DD5"/>
<path d="M75.9995 58.9999C75.9995 59.5522 75.5518 59.9999 74.9995 59.9999C74.4472 59.9999 73.9995 59.5522 73.9995 58.9999C73.9995 58.4476 74.4472 57.9999 74.9995 57.9999C75.5518 57.9999 75.9995 58.4476 75.9995 58.9999Z" fill="#9B3DD5"/>
<path d="M69.9995 78.9999C69.9995 79.5522 69.5518 79.9999 68.9995 79.9999C68.4472 79.9999 67.9995 79.5522 67.9995 78.9999C67.9995 78.4476 68.4472 77.9999 68.9995 77.9999C69.5518 77.9999 69.9995 78.4476 69.9995 78.9999Z" fill="#9B3DD5"/>
<path d="M57.9995 66.9999C57.9995 67.5522 57.5518 67.9999 56.9995 67.9999C56.4472 67.9999 55.9995 67.5522 55.9995 66.9999C55.9995 66.4476 56.4472 65.9999 56.9995 65.9999C57.5518 65.9999 57.9995 66.4476 57.9995 66.9999Z" fill="#9B3DD5"/>
<path d="M51.9995 73.9999C51.9995 74.5522 51.5518 74.9999 50.9995 74.9999C50.4472 74.9999 49.9995 74.5522 49.9995 73.9999C49.9995 73.4476 50.4472 72.9999 50.9995 72.9999C51.5518 72.9999 51.9995 73.4476 51.9995 73.9999Z" fill="#9B3DD5"/>
<path d="M47.9995 60.9999C47.9995 61.5522 47.5518 61.9999 46.9995 61.9999C46.4472 61.9999 45.9995 61.5522 45.9995 60.9999C45.9995 60.4476 46.4472 59.9999 46.9995 59.9999C47.5518 59.9999 47.9995 60.4476 47.9995 60.9999Z" fill="#9B3DD5"/>
<path d="M52.9995 54.9999C52.9995 55.5522 52.5518 55.9999 51.9995 55.9999C51.4472 55.9999 50.9995 55.5522 50.9995 54.9999C50.9995 54.4476 51.4472 53.9999 51.9995 53.9999C52.5518 53.9999 52.9995 54.4476 52.9995 54.9999Z" fill="#9B3DD5"/>
<path d="M69.9995 51.9999C69.9995 52.5522 69.5518 52.9999 68.9995 52.9999C68.4472 52.9999 67.9995 52.5522 67.9995 51.9999C67.9995 51.4476 68.4472 50.9999 68.9995 50.9999C69.5518 50.9999 69.9995 51.4476 69.9995 51.9999Z" fill="#9B3DD5"/>
<path d="M69.9995 44.9999C69.9995 45.5522 69.5518 45.9999 68.9995 45.9999C68.4472 45.9999 67.9995 45.5522 67.9995 44.9999C67.9995 44.4476 68.4472 43.9999 68.9995 43.9999C69.5518 43.9999 69.9995 44.4476 69.9995 44.9999Z" fill="#9B3DD5"/>
<path d="M48.9995 55.9999C48.9995 57.1044 48.1041 57.9999 46.9995 57.9999C45.8949 57.9999 44.9995 57.1044 44.9995 55.9999C44.9995 54.8953 45.8949 53.9999 46.9995 53.9999C48.1041 53.9999 48.9995 54.8953 48.9995 55.9999Z" fill="#FF91E0"/>
<path d="M39.9995 62.4999C39.9995 63.3283 39.3279 63.9999 38.4995 63.9999C37.6711 63.9999 36.9995 63.3283 36.9995 62.4999C36.9995 61.6715 37.6711 60.9999 38.4995 60.9999C39.3279 60.9999 39.9995 61.6715 39.9995 62.4999Z" fill="#FF91E0"/>
<path d="M74.9995 65.4999C74.9995 66.3283 74.3279 66.9999 73.4995 66.9999C72.6711 66.9999 71.9995 66.3283 71.9995 65.4999C71.9995 64.6715 72.6711 63.9999 73.4995 63.9999C74.3279 63.9999 74.9995 64.6715 74.9995 65.4999Z" fill="#FF91E0"/>
<path d="M75.9995 52.4999C75.9995 53.3283 75.3279 53.9999 74.4995 53.9999C73.6711 53.9999 72.9995 53.3283 72.9995 52.4999C72.9995 51.6715 73.6711 50.9999 74.4995 50.9999C75.3279 50.9999 75.9995 51.6715 75.9995 52.4999Z" fill="#FF91E0"/>
<path d="M72.9995 48.4999C72.9995 49.3283 72.3279 49.9999 71.4995 49.9999C70.6711 49.9999 69.9995 49.3283 69.9995 48.4999C69.9995 47.6715 70.6711 46.9999 71.4995 46.9999C72.3279 46.9999 72.9995 47.6715 72.9995 48.4999Z" fill="#FF91E0"/>
<path d="M59.9995 42.4999C59.9995 43.3283 59.3279 43.9999 58.4995 43.9999C57.6711 43.9999 56.9995 43.3283 56.9995 42.4999C56.9995 41.6715 57.6711 40.9999 58.4995 40.9999C59.3279 40.9999 59.9995 41.6715 59.9995 42.4999Z" fill="#FF91E0"/>
<path d="M48.9995 46.4999C48.9995 47.3283 48.3279 47.9999 47.4995 47.9999C46.6711 47.9999 45.9995 47.3283 45.9995 46.4999C45.9995 45.6715 46.6711 44.9999 47.4995 44.9999C48.3279 44.9999 48.9995 45.6715 48.9995 46.4999Z" fill="#FF91E0"/>
<path d="M71.9995 73.4999C71.9995 74.3283 71.3279 74.9999 70.4995 74.9999C69.6711 74.9999 68.9995 74.3283 68.9995 73.4999C68.9995 72.6715 69.6711 71.9999 70.4995 71.9999C71.3279 71.9999 71.9995 72.6715 71.9995 73.4999Z" fill="#FF91E0"/>
<path d="M54.9995 79.4999C54.9995 80.3283 54.3279 80.9999 53.4995 80.9999C52.6711 80.9999 51.9995 80.3283 51.9995 79.4999C51.9995 78.6715 52.6711 77.9999 53.4995 77.9999C54.3279 77.9999 54.9995 78.6715 54.9995 79.4999Z" fill="#FF91E0"/>
<path d="M61.9995 75.9999C61.9995 76.5522 61.5518 76.9999 60.9995 76.9999C60.4472 76.9999 59.9995 76.5522 59.9995 75.9999C59.9995 75.4476 60.4472 74.9999 60.9995 74.9999C61.5518 74.9999 61.9995 75.4476 61.9995 75.9999Z" fill="#FF91E0"/>
<path d="M57.9995 55.9999C57.9995 56.5522 57.5518 56.9999 56.9995 56.9999C56.4472 56.9999 55.9995 56.5522 55.9995 55.9999C55.9995 55.4476 56.4472 54.9999 56.9995 54.9999C57.5518 54.9999 57.9995 55.4476 57.9995 55.9999Z" fill="#FF91E0"/>
<path d="M60.9995 62.9999C60.9995 63.5522 60.5518 63.9999 59.9995 63.9999C59.4472 63.9999 58.9995 63.5522 58.9995 62.9999C58.9995 62.4476 59.4472 61.9999 59.9995 61.9999C60.5518 61.9999 60.9995 62.4476 60.9995 62.9999Z" fill="#FF91E0"/>
<path d="M53.9995 58.9999C53.9995 59.5522 53.5518 59.9999 52.9995 59.9999C52.4472 59.9999 51.9995 59.5522 51.9995 58.9999C51.9995 58.4476 52.4472 57.9999 52.9995 57.9999C53.5518 57.9999 53.9995 58.4476 53.9995 58.9999Z" fill="#FF91E0"/>
<path d="M54.9995 53.9999C54.9995 54.5522 54.5518 54.9999 53.9995 54.9999C53.4472 54.9999 52.9995 54.5522 52.9995 53.9999C52.9995 53.4476 53.4472 52.9999 53.9995 52.9999C54.5518 52.9999 54.9995 53.4476 54.9995 53.9999Z" fill="#FF91E0"/>
<path d="M71.9995 54.9999C71.9995 55.5522 71.5518 55.9999 70.9995 55.9999C70.4472 55.9999 69.9995 55.5522 69.9995 54.9999C69.9995 54.4476 70.4472 53.9999 70.9995 53.9999C71.5518 53.9999 71.9995 54.4476 71.9995 54.9999Z" fill="#FF91E0"/>
<path d="M76.9995 46.9999C76.9995 47.5522 76.5518 47.9999 75.9995 47.9999C75.4472 47.9999 74.9995 47.5522 74.9995 46.9999C74.9995 46.4476 75.4472 45.9999 75.9995 45.9999C76.5518 45.9999 76.9995 46.4476 76.9995 46.9999Z" fill="#FF91E0"/>
<path d="M70.9995 61.9999C70.9995 62.5522 70.5518 62.9999 69.9995 62.9999C69.4472 62.9999 68.9995 62.5522 68.9995 61.9999C68.9995 61.4476 69.4472 60.9999 69.9995 60.9999C70.5518 60.9999 70.9995 61.4476 70.9995 61.9999Z" fill="#FF91E0"/>
<path d="M72.9995 68.9999C72.9995 69.5522 72.5518 69.9999 71.9995 69.9999C71.4472 69.9999 70.9995 69.5522 70.9995 68.9999C70.9995 68.4476 71.4472 67.9999 71.9995 67.9999C72.5518 67.9999 72.9995 68.4476 72.9995 68.9999Z" fill="#FF91E0"/>
<path d="M66.9995 52.9999C66.9995 53.5522 66.5518 53.9999 65.9995 53.9999C65.4472 53.9999 64.9995 53.5522 64.9995 52.9999C64.9995 52.4476 65.4472 51.9999 65.9995 51.9999C66.5518 51.9999 66.9995 52.4476 66.9995 52.9999Z" fill="#FF91E0"/>
<path d="M50.9995 65.9999C50.9995 67.1044 50.1041 67.9999 48.9995 67.9999C47.8949 67.9999 46.9995 67.1044 46.9995 65.9999C46.9995 64.8953 47.8949 63.9999 48.9995 63.9999C50.1041 63.9999 50.9995 64.8953 50.9995 65.9999Z" fill="#FF91E0"/>
<path d="M57.9995 59.9999C57.9995 61.1044 57.1041 61.9999 55.9995 61.9999C54.8949 61.9999 53.9995 61.1044 53.9995 59.9999C53.9995 58.8953 54.8949 57.9999 55.9995 57.9999C57.1041 57.9999 57.9995 58.8953 57.9995 59.9999Z" fill="#9B3DD5"/>
<path d="M65.9995 67.4999C65.9995 68.8806 64.8802 69.9999 63.4995 69.9999C62.1188 69.9999 60.9995 68.8806 60.9995 67.4999C60.9995 66.1192 62.1188 64.9999 63.4995 64.9999C64.8802 64.9999 65.9995 66.1192 65.9995 67.4999Z" fill="#9B3DD5"/>
<path d="M56.9995 71.4999C56.9995 72.8806 55.8802 73.9999 54.4995 73.9999C53.1188 73.9999 51.9995 72.8806 51.9995 71.4999C51.9995 70.1192 53.1188 68.9999 54.4995 68.9999C55.8802 68.9999 56.9995 70.1192 56.9995 71.4999Z" fill="#FF91E0"/>
<path fill-rule="evenodd" clip-rule="evenodd" d="M47.9995 10.9999C27.565 10.9999 10.9995 27.5653 10.9995 47.9999C10.9995 48.5522 10.5518 48.9999 9.99951 48.9999C9.44723 48.9999 8.99951 48.5522 8.99951 47.9999C8.99951 26.4608 26.4604 8.99988 47.9995 8.99988C48.5518 8.99988 48.9995 9.44759 48.9995 9.99988C48.9995 10.5522 48.5518 10.9999 47.9995 10.9999Z" fill="#E5BAFF"/>
<path fill-rule="evenodd" clip-rule="evenodd" d="M71.3711 23.6844C57.6517 11.0811 36.313 11.9859 23.7097 25.7053C23.3361 26.112 22.7035 26.1388 22.2967 25.7652C21.89 25.3915 21.8632 24.759 22.2368 24.3522C35.5874 9.8194 58.1913 8.86097 72.7242 22.2115C73.1309 22.5852 73.1577 23.2178 72.7841 23.6245C72.4105 24.0312 71.7779 24.058 71.3711 23.6844Z" fill="#E692FB"/>
<path fill-rule="evenodd" clip-rule="evenodd" d="M30.8798 14.0507C31.1418 14.5369 30.9601 15.1434 30.4739 15.4054C27.6343 16.9355 25.0172 18.8261 22.6839 21.016C22.2812 21.394 21.6483 21.3739 21.2704 20.9712C20.8924 20.5685 20.9125 19.9357 21.3152 19.5577C23.7737 17.2503 26.5318 15.2577 29.5252 13.6448C30.0113 13.3828 30.6179 13.5645 30.8798 14.0507Z" fill="#F3DFFF"/>
<path fill-rule="evenodd" clip-rule="evenodd" d="M56.1216 23.6541C55.9961 24.1919 55.4584 24.5263 54.9206 24.4008C40.0979 20.9441 31.4232 31.0769 28.216 36.5763C27.9378 37.0534 27.3255 37.2146 26.8484 36.9363C26.3713 36.6581 26.2101 36.0458 26.4883 35.5687C29.8496 29.8051 39.2474 18.6921 55.3748 22.4531C55.9126 22.5785 56.247 23.1162 56.1216 23.6541Z" fill="#F2BCFF"/>
<path fill-rule="evenodd" clip-rule="evenodd" d="M36.9995 20.9999C37.5518 20.9999 37.9995 21.4476 37.9995 21.9999V30.9999C37.9995 31.5522 37.5518 31.9999 36.9995 31.9999C36.4472 31.9999 35.9995 31.5522 35.9995 30.9999V21.9999C35.9995 21.4476 36.4472 20.9999 36.9995 20.9999Z" fill="white"/>
<path fill-rule="evenodd" clip-rule="evenodd" d="M32.9995 25.9999C32.9995 25.4476 33.4472 24.9999 33.9995 24.9999H39.9995C40.5518 24.9999 40.9995 25.4476 40.9995 25.9999C40.9995 26.5522 40.5518 26.9999 39.9995 26.9999H33.9995C33.4472 26.9999 32.9995 26.5522 32.9995 25.9999Z" fill="white"/>
<path fill-rule="evenodd" clip-rule="evenodd" d="M19.9995 47.9999C20.5518 47.9999 20.9995 48.4476 20.9995 48.9999V55.9999C20.9995 56.5522 20.5518 56.9999 19.9995 56.9999C19.4472 56.9999 18.9995 56.5522 18.9995 55.9999V48.9999C18.9995 48.4476 19.4472 47.9999 19.9995 47.9999Z" fill="white"/>
<path fill-rule="evenodd" clip-rule="evenodd" d="M16.9995 51.9999C16.9995 51.4476 17.4472 50.9999 17.9995 50.9999H21.9995C22.5518 50.9999 22.9995 51.4476 22.9995 51.9999C22.9995 52.5522 22.5518 52.9999 21.9995 52.9999H17.9995C17.4472 52.9999 16.9995 52.5522 16.9995 51.9999Z" fill="white"/>
<path fill-rule="evenodd" clip-rule="evenodd" d="M43.9995 68.9999C44.5518 68.9999 44.9995 69.4476 44.9995 69.9999V76.9999C44.9995 77.5522 44.5518 77.9999 43.9995 77.9999C43.4472 77.9999 42.9995 77.5522 42.9995 76.9999V69.9999C42.9995 69.4476 43.4472 68.9999 43.9995 68.9999Z" fill="white"/>
<path fill-rule="evenodd" clip-rule="evenodd" d="M40.9995 72.9999C40.9995 72.4476 41.4472 71.9999 41.9995 71.9999H45.9995C46.5518 71.9999 46.9995 72.4476 46.9995 72.9999C46.9995 73.5522 46.5518 73.9999 45.9995 73.9999H41.9995C41.4472 73.9999 40.9995 73.5522 40.9995 72.9999Z" fill="white"/>
<path fill-rule="evenodd" clip-rule="evenodd" d="M38.3271 33.3284C38.6979 33.7376 38.6667 34.37 38.2575 34.7409C33.266 39.2635 28.185 51.0335 36.1769 64.5281C36.4583 65.0033 36.3012 65.6167 35.826 65.8981C35.3508 66.1795 34.7374 66.0224 34.456 65.5472C25.9438 51.174 31.2728 38.3706 36.9146 33.2588C37.3239 32.8879 37.9563 32.9191 38.3271 33.3284Z" fill="#ECA4FE"/>
<path d="M57.4347 21.5581L62.0745 24.6512C62.5433 24.9638 63.1223 25.0641 63.669 24.9274L68.4675 23.7278L70.8905 23.122C72.3553 22.7558 73.6821 24.0826 73.3159 25.5474L71.5105 32.769C71.3738 33.3156 71.4741 33.8946 71.7867 34.3634L74.8798 39.0032C75.7659 40.3323 74.8131 42.1126 73.2157 42.1126L66.7094 42.1126C66.0407 42.1126 65.4163 42.4468 65.0453 43.0032L62.2505 47.1954C61.3273 48.5801 59.2154 48.2973 58.6891 46.7184L56.7629 40.9399C56.5638 40.3427 56.0952 39.8741 55.498 39.675L49.7195 37.7488C48.1406 37.2225 47.8578 35.1106 49.2426 34.1874L53.4347 31.3926C53.9911 31.0216 54.3253 30.3972 54.3253 29.7285L54.3253 23.2222C54.3253 21.6248 56.1056 20.672 57.4347 21.5581Z" fill="#FFD78A"/>
<path fill-rule="evenodd" clip-rule="evenodd" d="M58.5444 19.8939L63.1841 22.9871L70.4057 21.1817C73.3352 20.4493 75.9888 23.1029 75.2564 26.0324L73.451 33.2539L76.5442 37.8937C78.3163 40.5519 76.4108 44.1125 73.216 44.1125L66.7097 44.1125L63.9149 48.3047C62.0685 51.0742 57.8445 50.5086 56.7919 47.3508L54.8658 41.5723L49.0873 39.6461C45.9295 38.5935 45.3638 34.3696 48.1334 32.5232L52.3256 29.7284L52.3256 23.2221C52.3256 20.0273 55.8862 18.1218 58.5444 19.8939ZM57.435 21.558L62.0747 24.6512C62.5436 24.9637 63.1225 25.064 63.6692 24.9273L70.8908 23.1219C72.3555 22.7558 73.6823 24.0825 73.3161 25.5473L71.5107 32.7689C71.3741 33.3155 71.4743 33.8945 71.7869 34.3633L74.8801 39.0031C75.7661 40.3322 74.8134 42.1125 73.216 42.1125L66.7097 42.1125C66.041 42.1125 65.4165 42.4467 65.0456 43.0031L62.2508 47.1953C61.3276 48.5801 59.2156 48.2972 58.6893 46.7183L56.7631 40.9398C56.5641 40.3426 56.0954 39.874 55.4982 39.6749L49.7197 37.7488C48.1408 37.2225 47.858 35.1105 49.2428 34.1873L53.435 31.3925C53.9914 31.0216 54.3256 30.3971 54.3256 29.7284L54.3256 23.2221C54.3256 21.6247 56.1059 20.6719 57.435 21.558Z" fill="#BD5E07"/>
<path fill-rule="evenodd" clip-rule="evenodd" d="M48.3547 35.9607C48.3982 36.7276 48.8723 37.4665 49.7195 37.7489L54.9466 39.4913L54.7629 38.94C54.5638 38.3428 54.0952 37.8742 53.498 37.6751L48.3547 35.9607ZM58.4773 46.0832L58.689 46.7185C59.2153 48.2974 61.3273 48.5802 62.2505 47.1954L65.0453 43.0032C65.4162 42.4468 66.0407 42.1126 66.7094 42.1126L73.2157 42.1126C74.8131 42.1126 75.7659 40.3324 74.8798 39.0032L71.7866 34.3635C71.4741 33.8947 71.3738 33.3157 71.5105 32.769L73.3159 25.5475C73.6409 24.2475 72.6323 23.0562 71.3774 23.0606C71.3768 23.2197 71.357 23.3827 71.3159 23.5475L69.5105 30.769C69.3738 31.3157 69.4741 31.8947 69.7866 32.3635L72.8798 37.0032C73.7659 38.3324 72.8131 40.1126 71.2157 40.1126L64.7094 40.1126C64.0407 40.1126 63.4162 40.4468 63.0453 41.0032L60.2505 45.1954C59.8227 45.8372 59.1396 46.1208 58.4773 46.0832Z" fill="#FFC045"/>
<path fill-rule="evenodd" clip-rule="evenodd" d="M56.156 23.4633C56.4525 22.9973 57.0706 22.86 57.5365 23.1565L62.6809 26.4302L70.7706 24.5267C71.3082 24.4002 71.8466 24.7335 71.9731 25.2711C72.0995 25.8087 71.7663 26.347 71.2287 26.4735L62.7287 28.4735C62.4663 28.5353 62.1901 28.4885 61.9628 28.3438L56.4628 24.8438C55.9968 24.5473 55.8595 23.9292 56.156 23.4633Z" fill="#FFFBF4"/>
<path d="M48.6312 43.4881C49.8297 42.3317 51.7338 42.3487 52.9114 43.5263C54.0891 44.704 54.1061 46.608 52.9496 47.8065L18.9193 83.0743C17.3935 84.6556 14.8673 84.6782 13.3134 83.1243C11.7596 81.5705 11.7821 79.0443 13.3635 77.5184L48.6312 43.4881Z" fill="#57F0CB"/>
<path fill-rule="evenodd" clip-rule="evenodd" d="M54.3889 49.1953L20.3586 84.463C18.056 86.8493 14.244 86.8833 11.8992 84.5385C9.55444 82.1937 9.58847 78.3817 11.9747 76.0792L47.2425 42.0489C49.2258 40.1351 52.3768 40.1633 54.3256 42.1121C56.2745 44.061 56.3026 47.2119 54.3889 49.1953ZM52.9114 43.5263C51.7338 42.3487 49.8297 42.3317 48.6312 43.4881L13.3635 77.5184C11.7821 79.0443 11.7596 81.5705 13.3134 83.1243C14.8673 84.6782 17.3935 84.6556 18.9193 83.0743L52.9496 47.8065C54.1061 46.608 54.0891 44.704 52.9114 43.5263Z" fill="#167F86"/>
<path fill-rule="evenodd" clip-rule="evenodd" d="M12.8585 82.5795C12.9912 82.7711 13.1429 82.9536 13.3136 83.1243C14.8675 84.6782 17.3937 84.6557 18.9195 83.0743L52.9498 47.8065C54.1063 46.6081 54.0893 44.704 52.9116 43.5264C52.7396 43.3543 52.552 43.207 52.3534 43.0846C53.0692 44.2453 52.9373 45.7832 51.9498 46.8065L17.9195 82.0743C16.5614 83.4819 14.4106 83.6544 12.8585 82.5795Z" fill="#2CCDC3"/>
<path fill-rule="evenodd" clip-rule="evenodd" d="M50.2173 44.3029C50.602 44.6991 50.5927 45.3322 50.1965 45.7169L15.6966 79.2174C15.3004 79.6022 14.6673 79.5929 14.2826 79.1966C13.8978 78.8004 13.9071 78.1673 14.3034 77.7826L48.8032 44.2821C49.1995 43.8973 49.8326 43.9067 50.2173 44.3029Z" fill="white"/>
</g>
<defs>
<clipPath id="clip0_201_2028">
<rect width="96" height="96" fill="white"/>
</clipPath>
</defs>
</svg>
