<svg width="84" height="79" viewBox="0 0 84 79" fill="none" xmlns="http://www.w3.org/2000/svg">
<path d="M37.709 5.22656C39.6496 1.98187 44.3504 1.98188 46.291 5.22656L57.6992 24.2998C58.1335 25.0259 58.8541 25.5347 59.6836 25.7012L76.8877 29.1533C80.7982 29.9379 82.261 34.7602 79.4453 37.585L65.2158 51.8604C64.5093 52.5691 64.2028 53.584 64.3984 54.5654L67.6299 70.7773C68.4435 74.8591 64.2058 78.0896 60.4854 76.2236L43.3447 67.627C42.4984 67.2025 41.5016 67.2025 40.6553 67.627L23.5146 76.2236C19.7943 78.0896 15.5565 74.8591 16.3701 70.7773L19.6016 54.5654C19.7972 53.584 19.4907 52.5691 18.7842 51.8604L4.55469 37.585C1.73899 34.7602 3.20178 29.9379 7.1123 29.1533L24.3164 25.7012C25.1459 25.5347 25.8665 25.0259 26.3008 24.2998L33.2666 12.6533L37.709 5.22656Z" fill="#F7B307" stroke="#5B3303" stroke-width="2" stroke-linecap="round" stroke-linejoin="round"/>
<path d="M38 41L29 55" stroke="#FFC530" stroke-width="2" stroke-linecap="round" stroke-linejoin="round"/>
<path d="M78.7374 36.8796L66.6147 49.0408C65.3646 50.2948 63.439 50.5778 61.8811 49.7364L42 39L57.9277 26C58.3876 26.333 58.918 26.5679 59.4868 26.682L76.6913 30.1338C79.8198 30.7615 80.99 34.6198 78.7374 36.8796Z" fill="#FFC01D"/>
<path d="M50 36L66 34" stroke="#FFD363" stroke-width="2" stroke-linecap="round" stroke-linejoin="round"/>
<path d="M40.2066 66.7331L23.0666 75.3303C21.6157 76.0581 20.0662 75.8168 18.9346 75L42 39L79.9072 34C79.926 35.0163 79.5599 36.0545 78.7373 36.8796L64.5074 51.1547C63.5654 52.0997 63.1566 53.4522 63.4175 54.7608L66.6496 70.9728C67.3007 74.2383 63.9098 76.8232 60.9334 75.3303L43.7934 66.7331C42.6648 66.167 41.3352 66.167 40.2066 66.7331Z" fill="#CF9500"/>
<path d="M63.4176 54.7608L66.6497 70.9728C66.9834 72.6465 66.2554 74.1413 65.0656 75L42 39L64.5075 51.1548C63.5655 52.0998 63.1567 53.4523 63.4176 54.7608Z" fill="#B97D08"/>
<path d="M7.30866 30.1338L24.5132 26.682C25.6192 26.4601 26.5801 25.7815 27.1592 24.8133L38.5671 5.73978C39.3433 4.44194 40.6716 3.793 41.9998 3.79297V39L4.2373 33C4.61339 31.6289 5.70316 30.4559 7.30866 30.1338Z" fill="#FFD056"/>
<path d="M12 32L39.5 35.5L40 10" stroke="#FFE39A" stroke-width="2" stroke-linecap="round" stroke-linejoin="round"/>
<path d="M39.5 35.5001L33 34.6729" stroke="#FFFBF0" stroke-width="2" stroke-linecap="round" stroke-linejoin="round"/>
<circle cx="41.5" cy="46.5" r="1.5" fill="#BA8600"/>
<circle cx="45.5" cy="50.5" r="0.5" fill="#BA8600"/>
<circle cx="38.5" cy="54.5" r="0.5" fill="#BA8600"/>
<circle cx="44.5" cy="53.5" r="0.5" fill="#BA8600"/>
<circle cx="51.5" cy="57.5" r="0.5" fill="#BA8600"/>
<circle cx="44.5" cy="46.5" r="0.5" fill="#BA8600"/>
<circle cx="41.5" cy="42.5" r="0.5" fill="#BA8600"/>
<circle cx="46.5" cy="56.5" r="0.5" fill="#BA8600"/>
<circle cx="43" cy="50" r="1" fill="#BA8600"/>
<circle cx="42" cy="54" r="1" fill="#BA8600"/>
<circle cx="48" cy="54" r="1" fill="#BA8600"/>
<circle cx="39" cy="51" r="1" fill="#BA8600"/>
</svg>
