<svg width="96" height="96" viewBox="0 0 96 96" fill="none" xmlns="http://www.w3.org/2000/svg">
<path fill-rule="evenodd" clip-rule="evenodd" d="M23.2115 8C18.4193 8 15.561 13.3409 18.2192 17.3282L38.6671 48L16.1463 81.7812C14.3742 84.4394 16.2797 88 19.4745 88H76.5264C79.7211 88 81.6267 84.4394 79.8546 81.7812L57.3337 48L77.7816 17.3282C80.4398 13.3409 77.5815 8 72.7893 8H23.2115Z" fill="#D7FDFF"/>
<path fill-rule="evenodd" clip-rule="evenodd" d="M16.555 18.4376C13.0107 13.1212 16.8219 6 23.2114 6H72.7892C79.1788 6 82.9899 13.1212 79.4456 18.4376L59.7374 48L81.5186 80.6718C84.1768 84.6591 81.3185 90 76.5263 90H19.4744C14.6823 90 11.8239 84.6591 14.4821 80.6718L36.2633 48L16.555 18.4376ZM57.3337 48L77.7815 17.3282C80.4398 13.3409 77.5814 8 72.7892 8H23.2114C18.4193 8 15.5609 13.3409 18.2191 17.3282L38.667 48L16.1462 81.7812C14.3741 84.4394 16.2797 88 19.4744 88H76.5263C79.7211 88 81.6267 84.4394 79.8545 81.7812L57.3337 48Z" fill="#03265B"/>
<path d="M23.2115 8C18.4193 8 15.561 13.3409 18.2192 17.3282L38.6671 48L16.1463 81.7812C14.3742 84.4394 16.2797 88 19.4745 88H40.0004L48.0004 48L40.0004 8H23.2115Z" fill="#A4F3F8"/>
<path d="M23.2115 8C18.4193 8 15.561 13.3409 18.2192 17.3282L38.6671 48L16.1463 81.7812C14.3742 84.4394 16.2797 88 19.4745 88H32.0004L48.0004 48L32.0004 8H23.2115Z" fill="#F8FFFF"/>
<path d="M79.8541 81.7812C81.6263 84.4394 79.7207 88 76.5259 88H64L48 48L64 8H72.7889C77.5811 8 80.4394 13.3409 77.7812 17.3282L57.3333 48L79.8541 81.7812Z" fill="#A4F3F8"/>
<path fill-rule="evenodd" clip-rule="evenodd" d="M18.2192 17.3282C15.561 13.3409 18.4193 8 23.2115 8H29.2115C24.4193 8 21.561 13.3409 24.2192 17.3282L44.6671 48L22.1463 81.7812C20.3742 84.4394 22.2797 88 25.4745 88H19.4745C16.2797 88 14.3742 84.4394 16.1463 81.7812L38.6671 48L18.2192 17.3282Z" fill="#86F8FF"/>
<path fill-rule="evenodd" clip-rule="evenodd" d="M70.5261 88H76.5261C79.7208 88 81.6264 84.4394 79.8543 81.7812L57.3335 48L77.7813 17.3282C80.4395 13.3409 77.5812 8 72.789 8H66.789C71.5812 8 74.4396 13.3409 71.7813 17.3282L51.3335 48L73.8543 81.7812C75.6265 84.4394 73.7209 88 70.5261 88Z" fill="#15D6E2"/>
<path d="M19.4745 88C16.2797 88 14.3742 84.4395 16.1463 81.7812L27.4067 64.8906L33.0369 56.4454L62.964 56.4453L68.5942 64.8906L79.8546 81.7812C81.6267 84.4394 79.7211 88 76.5264 88H19.4745Z" fill="#C25FFF"/>
<path fill-rule="evenodd" clip-rule="evenodd" d="M33 57.5C33 56.9477 33.4477 56.5 34 56.5H62C62.5523 56.5 63 56.9477 63 57.5C63 58.0523 62.5523 58.5 62 58.5H34C33.4477 58.5 33 58.0523 33 57.5Z" fill="#8232B2"/>
<path d="M51.0573 73.3429C51.0573 74.1003 50.4433 74.7143 49.6859 74.7143C48.9285 74.7143 48.3145 74.1003 48.3145 73.3429C48.3145 72.5854 48.9285 71.9714 49.6859 71.9714C50.4433 71.9714 51.0573 72.5854 51.0573 73.3429Z" fill="#FD89FF"/>
<path d="M61.7429 72.3714C61.7429 73.1288 61.1288 73.7429 60.3714 73.7429C59.614 73.7429 59 73.1288 59 72.3714C59 71.614 59.614 71 60.3714 71C61.1288 71 61.7429 71.614 61.7429 72.3714Z" fill="#FD89FF"/>
<path d="M41.4572 67.8571C41.4572 68.6146 40.8432 69.2286 40.0858 69.2286C39.3284 69.2286 38.7144 68.6146 38.7144 67.8571C38.7144 67.0997 39.3284 66.4857 40.0858 66.4857C40.8432 66.4857 41.4572 67.0997 41.4572 67.8571Z" fill="#FD89FF"/>
<path d="M37.343 76.7142C37.343 77.4716 36.7289 78.0856 35.9715 78.0856C35.2141 78.0856 34.6001 77.4716 34.6001 76.7142C34.6001 75.9568 35.2141 75.3428 35.9715 75.3428C36.7289 75.3428 37.343 75.9568 37.343 76.7142Z" fill="#FD89FF"/>
<path d="M29.1144 70.5999C29.1144 71.3574 28.5004 71.9714 27.743 71.9714C26.9856 71.9714 26.3716 71.3574 26.3716 70.5999C26.3716 69.8425 26.9856 69.2285 27.743 69.2285C28.5004 69.2285 29.1144 69.8425 29.1144 70.5999Z" fill="#FD89FF"/>
<path d="M42.8288 81.8285C42.8288 82.5859 42.2148 83.1999 41.4574 83.1999C40.6999 83.1999 40.0859 82.5859 40.0859 81.8285C40.0859 81.071 40.6999 80.457 41.4574 80.457C42.2148 80.457 42.8288 81.071 42.8288 81.8285Z" fill="#FD89FF"/>
<path d="M51.7429 80.3714C51.7429 81.1288 51.1288 81.7429 50.3714 81.7429C49.614 81.7429 49 81.1288 49 80.3714C49 79.614 49.614 79 50.3714 79C51.1288 79 51.7429 79.614 51.7429 80.3714Z" fill="#FD89FF"/>
<path d="M63.4001 65.1142C63.4001 65.8716 62.7861 66.4857 62.0287 66.4857C61.2712 66.4857 60.6572 65.8716 60.6572 65.1142C60.6572 64.3568 61.2712 63.7428 62.0287 63.7428C62.7861 63.7428 63.4001 64.3568 63.4001 65.1142Z" fill="#FD89FF"/>
<path d="M66.7429 75.3714C66.7429 76.1288 66.1288 76.7429 65.3714 76.7429C64.614 76.7429 64 76.1288 64 75.3714C64 74.614 64.614 74 65.3714 74C66.1288 74 66.7429 74.614 66.7429 75.3714Z" fill="#FD89FF"/>
<path d="M73.0002 76.0857C73.0002 76.8431 72.3862 77.4571 71.6288 77.4571C70.8713 77.4571 70.2573 76.8431 70.2573 76.0857C70.2573 75.3282 70.8713 74.7142 71.6288 74.7142C72.3862 74.7142 73.0002 75.3282 73.0002 76.0857Z" fill="#FD89FF"/>
<path d="M31.486 78.0858C31.486 78.8432 30.872 79.4572 30.1146 79.4572C29.3572 79.4572 28.7432 78.8432 28.7432 78.0858C28.7432 77.3284 29.3572 76.7144 30.1146 76.7144C30.872 76.7144 31.486 77.3284 31.486 78.0858Z" fill="#FD89FF"/>
<path d="M43.7429 75.3714C43.7429 76.1288 43.1288 76.7429 42.3714 76.7429C41.614 76.7429 41 76.1288 41 75.3714C41 74.614 41.614 74 42.3714 74C43.1288 74 43.7429 74.614 43.7429 75.3714Z" fill="#FD89FF"/>
<path d="M55.1143 67.0571C55.1143 68.1933 54.1933 69.1143 53.0571 69.1143C51.921 69.1143 51 68.1933 51 67.0571C51 65.921 51.921 65 53.0571 65C54.1933 65 55.1143 65.921 55.1143 67.0571Z" fill="#FD89FF"/>
<path d="M48.3141 69.2286C48.3141 69.986 47.7001 70.6 46.9427 70.6C46.1853 70.6 45.5713 69.986 45.5713 69.2286C45.5713 68.4712 46.1853 67.8572 46.9427 67.8572C47.7001 67.8572 48.3141 68.4712 48.3141 69.2286Z" fill="#FD89FF"/>
<path d="M44.2 64.4285C44.2 64.8072 43.893 65.1142 43.5143 65.1142C43.1356 65.1142 42.8286 64.8072 42.8286 64.4285C42.8286 64.0498 43.1356 63.7428 43.5143 63.7428C43.893 63.7428 44.2 64.0498 44.2 64.4285Z" fill="#FD89FF"/>
<path d="M31.8573 65.8C31.8573 66.1787 31.5503 66.4857 31.1716 66.4857C30.7928 66.4857 30.4858 66.1787 30.4858 65.8C30.4858 65.4213 30.7928 65.1143 31.1716 65.1143C31.5503 65.1143 31.8573 65.4213 31.8573 65.8Z" fill="#FD89FF"/>
<path d="M37.343 70.5999C37.343 71.3574 36.7289 71.9714 35.9715 71.9714C35.2141 71.9714 34.6001 71.3574 34.6001 70.5999C34.6001 69.8425 35.2141 69.2285 35.9715 69.2285C36.7289 69.2285 37.343 69.8425 37.343 70.5999Z" fill="#FD89FF"/>
<path d="M31.8573 69.9142C31.8573 70.2929 31.5503 70.5999 31.1716 70.5999C30.7928 70.5999 30.4858 70.2929 30.4858 69.9142C30.4858 69.5355 30.7928 69.2285 31.1716 69.2285C31.5503 69.2285 31.8573 69.5355 31.8573 69.9142Z" fill="#FD89FF"/>
<path d="M37.3426 64.4285C37.3426 64.8072 37.0356 65.1142 36.6569 65.1142C36.2782 65.1142 35.9712 64.8072 35.9712 64.4285C35.9712 64.0498 36.2782 63.7428 36.6569 63.7428C37.0356 63.7428 37.3426 64.0498 37.3426 64.4285Z" fill="#FD89FF"/>
<path d="M49.6859 64.4285C49.6859 64.8072 49.3789 65.1142 49.0002 65.1142C48.6215 65.1142 48.3145 64.8072 48.3145 64.4285C48.3145 64.0498 48.6215 63.7428 49.0002 63.7428C49.3789 63.7428 49.6859 64.0498 49.6859 64.4285Z" fill="#FD89FF"/>
<path d="M52.4286 61.6857C52.4286 62.0644 52.1216 62.3714 51.7428 62.3714C51.3641 62.3714 51.0571 62.0644 51.0571 61.6857C51.0571 61.307 51.3641 61 51.7428 61C52.1216 61 52.4286 61.307 52.4286 61.6857Z" fill="#FD89FF"/>
<path d="M54.3714 77.6857C54.3714 78.0644 54.0644 78.3714 53.6857 78.3714C53.307 78.3714 53 78.0644 53 77.6857C53 77.307 53.307 77 53.6857 77C54.0644 77 54.3714 77.307 54.3714 77.6857Z" fill="#FD89FF"/>
<path d="M62.3714 78.6857C62.3714 79.0644 62.0644 79.3714 61.6857 79.3714C61.307 79.3714 61 79.0644 61 78.6857C61 78.307 61.307 78 61.6857 78C62.0644 78 62.3714 78.307 62.3714 78.6857Z" fill="#FD89FF"/>
<path d="M26.3714 75.3999C26.3714 75.7787 26.0644 76.0857 25.6857 76.0857C25.307 76.0857 25 75.7787 25 75.3999C25 75.0212 25.307 74.7142 25.6857 74.7142C26.0644 74.7142 26.3714 75.0212 26.3714 75.3999Z" fill="#FD89FF"/>
<path d="M33.5999 81.1427C33.5999 81.5215 33.2929 81.8285 32.9142 81.8285C32.5355 81.8285 32.2285 81.5215 32.2285 81.1427C32.2285 80.764 32.5355 80.457 32.9142 80.457C33.2929 80.457 33.5999 80.764 33.5999 81.1427Z" fill="#FD89FF"/>
<path d="M47.3714 77.6857C47.3714 78.0644 47.0644 78.3714 46.6857 78.3714C46.307 78.3714 46 78.0644 46 77.6857C46 77.307 46.307 77 46.6857 77C47.0644 77 47.3714 77.307 47.3714 77.6857Z" fill="#FD89FF"/>
<path d="M59.3714 80.6857C59.3714 81.0644 59.0644 81.3714 58.6857 81.3714C58.307 81.3714 58 81.0644 58 80.6857C58 80.307 58.307 80 58.6857 80C59.0644 80 59.3714 80.307 59.3714 80.6857Z" fill="#FD89FF"/>
<path d="M57.7429 75.3714C57.7429 76.1288 57.1288 76.7429 56.3714 76.7429C55.614 76.7429 55 76.1288 55 75.3714C55 74.614 55.614 74 56.3714 74C57.1288 74 57.7429 74.614 57.7429 75.3714Z" fill="#FD89FF"/>
<path d="M68.3714 79.6857C68.3714 80.0644 68.0644 80.3714 67.6857 80.3714C67.307 80.3714 67 80.0644 67 79.6857C67 79.307 67.307 79 67.6857 79C68.0644 79 68.3714 79.307 68.3714 79.6857Z" fill="#FD89FF"/>
<path d="M68.8856 72.6571C68.8856 73.0359 68.5786 73.3429 68.1999 73.3429C67.8212 73.3429 67.5142 73.0359 67.5142 72.6571C67.5142 72.2784 67.8212 71.9714 68.1999 71.9714C68.5786 71.9714 68.8856 72.2784 68.8856 72.6571Z" fill="#FD89FF"/>
<path d="M63.4002 68.5429C63.4002 68.9216 63.0932 69.2286 62.7145 69.2286C62.3358 69.2286 62.0288 68.9216 62.0288 68.5429C62.0288 68.1642 62.3358 67.8572 62.7145 67.8572C63.0932 67.8572 63.4002 68.1642 63.4002 68.5429Z" fill="#FD89FF"/>
<path d="M57.9144 64.4285C57.9144 64.8072 57.6074 65.1142 57.2287 65.1142C56.85 65.1142 56.543 64.8072 56.543 64.4285C56.543 64.0498 56.85 63.7428 57.2287 63.7428C57.6074 63.7428 57.9144 64.0498 57.9144 64.4285Z" fill="#FD89FF"/>
<path d="M55.1712 71.2857C55.1712 71.6644 54.8642 71.9714 54.4855 71.9714C54.1068 71.9714 53.7998 71.6644 53.7998 71.2857C53.7998 70.907 54.1068 70.6 54.4855 70.6C54.8642 70.6 55.1712 70.907 55.1712 71.2857Z" fill="#FD89FF"/>
<path fill-rule="evenodd" clip-rule="evenodd" d="M26.1468 75.7812C24.3746 78.4395 26.2802 82 29.475 82H79.9911C81.5221 84.6305 79.6342 88 76.5264 88H19.4745C16.2797 88 14.3742 84.4394 16.1463 81.7812L27.4067 64.8906L33.0369 56.4453L39.0374 56.4453L37.4072 58.8906L26.1468 75.7812Z" fill="#E56CEF"/>
<path fill-rule="evenodd" clip-rule="evenodd" d="M16.0098 82C14.4788 84.6305 16.3666 88 19.4745 88H76.5264C79.7211 88 81.6267 84.4394 79.8546 81.7812L68.5942 64.8906L62.964 56.4453L56.9645 56.4453L58.5947 58.8906L69.8551 75.7812C71.6272 78.4394 69.7216 82 66.5269 82H16.0098Z" fill="#A12CFD"/>
<path d="M36.0005 44L37.6256 46.4376C39.1093 48.6632 41.6071 50 44.282 50H51.719C54.3938 50 56.8917 48.6632 58.3754 46.4376L60.0005 44H36.0005Z" fill="#C25FFF"/>
<path fill-rule="evenodd" clip-rule="evenodd" d="M38 45C38 44.4477 38.4477 44 39 44H57C57.5523 44 58 44.4477 58 45C58 45.5523 57.5523 46 57 46H39C38.4477 46 38 45.5523 38 45Z" fill="#8232B2"/>
<path fill-rule="evenodd" clip-rule="evenodd" d="M51.7188 50C52.1367 50 52.5503 49.9674 52.9564 49.9038L51.7188 50ZM52.9564 49.9038C55.1494 49.5605 57.1233 48.3154 58.3752 46.4376L52.9564 49.9038ZM58.3752 46.4376L58.3752 46.4376L58.3752 46.4376ZM58.3752 46.4376L60.0002 44L58.3752 46.4376ZM52.3752 46.4376L54.0002 44H60.0002M52.3752 46.4376C50.8914 48.6632 48.3936 50 45.7188 50L52.3752 46.4376ZM45.7188 50H51.7188H45.7188Z" fill="#A12CFD"/>
<path fill-rule="evenodd" clip-rule="evenodd" d="M42.0005 44H36.0005L37.6256 46.4376C39.0165 48.5241 41.2989 49.8294 43.7827 49.9844C43.9483 49.9948 44.1148 50 44.282 50H50.282C47.6071 50 45.1093 48.6632 43.6256 46.4376L42.0005 44Z" fill="#E56CEF"/>
<path d="M51 50.5C51 52.433 49.433 54 47.5 54C45.567 54 44 52.433 44 50.5C44 48.567 45.567 47 47.5 47C49.433 47 51 48.567 51 50.5Z" fill="#C25FFF"/>
<path fill-rule="evenodd" clip-rule="evenodd" d="M18.9623 81.8431C19.4279 82.1401 20.0462 82.0034 20.3432 81.5378L38.8432 52.5378C39.1402 52.0722 39.0036 51.454 38.5379 51.1569C38.0723 50.8599 37.4541 50.9966 37.1571 51.4622L18.6571 80.4622C18.36 80.9278 18.4967 81.546 18.9623 81.8431Z" fill="#A8FFEF"/>
<path fill-rule="evenodd" clip-rule="evenodd" d="M23.5873 74.5931C24.0529 74.8901 24.6712 74.7534 24.9682 74.2878L29.5932 67.0378C29.8902 66.5722 29.7536 65.954 29.2879 65.6569C28.8223 65.3599 28.2041 65.4966 27.9071 65.9622L23.2821 73.2122C22.985 73.6778 23.1217 74.296 23.5873 74.5931Z" fill="white"/>
<path fill-rule="evenodd" clip-rule="evenodd" d="M18.9623 14.1569C19.4279 13.8599 20.0462 13.9966 20.3432 14.4622L38.8432 43.4622C39.1402 43.9278 39.0036 44.546 38.5379 44.8431C38.0723 45.1401 37.4541 45.0034 37.1571 44.5378L18.6571 15.5378C18.36 15.0722 18.4967 14.454 18.9623 14.1569Z" fill="#A8FFEF"/>
<path fill-rule="evenodd" clip-rule="evenodd" d="M23.5873 21.4069C24.0529 21.1099 24.6712 21.2466 24.9682 21.7122L29.5932 28.9622C29.8902 29.4278 29.7536 30.046 29.2879 30.3431C28.8223 30.6401 28.2041 30.5034 27.9071 30.0378L23.2821 22.7878C22.985 22.3222 23.1217 21.704 23.5873 21.4069Z" fill="white"/>
<path fill-rule="evenodd" clip-rule="evenodd" d="M20 11C20 10.4477 20.4477 10 21 10H75C75.5523 10 76 10.4477 76 11C76 11.5523 75.5523 12 75 12H21C20.4477 12 20 11.5523 20 11Z" fill="#15D6E2"/>
<path fill-rule="evenodd" clip-rule="evenodd" d="M18 85C18 84.4477 18.4477 84 19 84H77C77.5523 84 78 84.4477 78 85C78 85.5523 77.5523 86 77 86H19C18.4477 86 18 85.5523 18 85Z" fill="#C25FFF"/>
</svg>
