<svg width="324" height="160" viewBox="0 0 324 160" fill="none" xmlns="http://www.w3.org/2000/svg">
<path d="M101.122 75.085C94.7219 10.285 164.622 -4.41496 196.622 6.08504C233.022 22.085 226.455 59.2517 218.622 75.585C195.122 115.585 107.522 139.885 101.122 75.085Z" fill="#DCA054" stroke="#BA7E38" stroke-width="6"/>
<path d="M212.211 22C219.711 56.5 121.712 94.5006 110.711 44.9999C105.71 22.5 180.21 -18 212.211 22Z" fill="#F0BA6D" stroke="#F0BA6D"/>
<path d="M199.711 23.4997C198.711 32.5 164.844 33.6001 163.711 19.9997C162.711 7.99997 199.71 11 199.711 23.4997Z" fill="#FEFEFE" stroke="#FEFEFE"/>
<path d="M20.7927 156.5H303.103C306.527 156.5 326.099 152.312 319.738 136.958C305.349 102.226 243.411 79.7278 221.394 77.4014C199.377 75.0749 201.823 75.5374 191.059 75.5374C172.71 75.5374 162.71 87 147.025 87.6348L134.793 87.6377C129.21 86.9443 118.158 78.3319 90.2693 80.1931C46.1698 83.1361 -0.245849 127.187 3.17885 142.541C5.23508 151.76 9.53948 156.5 20.7927 156.5Z" fill="#613418" stroke="#552C14" stroke-width="6"/>
</svg>
