<svg width="96" height="96" viewBox="0 0 96 96" fill="none" xmlns="http://www.w3.org/2000/svg">
<path fill-rule="evenodd" clip-rule="evenodd" d="M23.2115 8C18.4193 8 15.561 13.3409 18.2192 17.3282L38.6671 48L16.1463 81.7812C14.3742 84.4394 16.2797 88 19.4745 88H76.5264C79.7211 88 81.6267 84.4394 79.8546 81.7812L57.3337 48L77.7816 17.3282C80.4398 13.3409 77.5815 8 72.7893 8H23.2115Z" fill="#D7FDFF"/>
<path fill-rule="evenodd" clip-rule="evenodd" d="M16.555 18.4376C13.0107 13.1212 16.8219 6 23.2114 6H72.7892C79.1788 6 82.9899 13.1212 79.4456 18.4376L59.7374 48L81.5186 80.6718C84.1768 84.6591 81.3185 90 76.5263 90H19.4744C14.6823 90 11.8239 84.6591 14.4821 80.6718L36.2633 48L16.555 18.4376ZM57.3337 48L77.7815 17.3282C80.4398 13.3409 77.5814 8 72.7892 8H23.2114C18.4193 8 15.5609 13.3409 18.2191 17.3282L38.667 48L16.1462 81.7812C14.3741 84.4394 16.2797 88 19.4744 88H76.5263C79.7211 88 81.6267 84.4394 79.8545 81.7812L57.3337 48Z" fill="#03265B"/>
<path d="M23.2115 8C18.4193 8 15.561 13.3409 18.2192 17.3282L38.6671 48L16.1463 81.7812C14.3742 84.4394 16.2797 88 19.4745 88H40.0004L48.0004 48L40.0004 8H23.2115Z" fill="#A4F3F8"/>
<path d="M23.2115 8C18.4193 8 15.561 13.3409 18.2192 17.3282L38.6671 48L16.1463 81.7812C14.3742 84.4394 16.2797 88 19.4745 88H32.0004L48.0004 48L32.0004 8H23.2115Z" fill="#F8FFFF"/>
<path d="M79.8541 81.7812C81.6263 84.4394 79.7207 88 76.5259 88H64L48 48L64 8H72.7889C77.5811 8 80.4394 13.3409 77.7812 17.3282L57.3333 48L79.8541 81.7812Z" fill="#A4F3F8"/>
<path fill-rule="evenodd" clip-rule="evenodd" d="M18.2192 17.3282C15.561 13.3409 18.4193 8 23.2115 8H29.2115C24.4193 8 21.561 13.3409 24.2192 17.3282L44.6671 48L22.1463 81.7812C20.3742 84.4394 22.2797 88 25.4745 88H19.4745C16.2797 88 14.3742 84.4394 16.1463 81.7812L38.6671 48L18.2192 17.3282Z" fill="#86F8FF"/>
<path fill-rule="evenodd" clip-rule="evenodd" d="M70.5261 88H76.5261C79.7208 88 81.6264 84.4394 79.8543 81.7812L57.3335 48L77.7813 17.3282C80.4395 13.3409 77.5812 8 72.789 8H66.789C71.5812 8 74.4396 13.3409 71.7813 17.3282L51.3335 48L73.8543 81.7812C75.6265 84.4394 73.7209 88 70.5261 88Z" fill="#15D6E2"/>
<path fill-rule="evenodd" clip-rule="evenodd" d="M27.3338 65L16.1463 81.7812C14.3742 84.4394 16.2797 88 19.4745 88H76.5264C79.7211 88 81.6267 84.4394 79.8546 81.7812L68.6671 65H27.3338Z" fill="#C25FFF"/>
<path fill-rule="evenodd" clip-rule="evenodd" d="M30 66C30 65.4477 30.4477 65 31 65H65C65.5523 65 66 65.4477 66 66C66 66.5523 65.5523 67 65 67H31C30.4477 67 30 66.5523 30 66Z" fill="#8232B2"/>
<path d="M51.0573 79.3429C51.0573 80.1003 50.4433 80.7143 49.6859 80.7143C48.9285 80.7143 48.3145 80.1003 48.3145 79.3429C48.3145 78.5854 48.9285 77.9714 49.6859 77.9714C50.4433 77.9714 51.0573 78.5854 51.0573 79.3429Z" fill="#FD89FF"/>
<path d="M60.6569 77.9714C60.6569 78.7288 60.0429 79.3428 59.2855 79.3428C58.5281 79.3428 57.9141 78.7288 57.9141 77.9714C57.9141 77.214 58.5281 76.6 59.2855 76.6C60.0429 76.6 60.6569 77.214 60.6569 77.9714Z" fill="#FD89FF"/>
<path d="M41.4572 73.8571C41.4572 74.6146 40.8432 75.2286 40.0858 75.2286C39.3284 75.2286 38.7144 74.6146 38.7144 73.8571C38.7144 73.0997 39.3284 72.4857 40.0858 72.4857C40.8432 72.4857 41.4572 73.0997 41.4572 73.8571Z" fill="#FD89FF"/>
<path d="M37.343 80.7143C37.343 81.4717 36.7289 82.0858 35.9715 82.0858C35.2141 82.0858 34.6001 81.4717 34.6001 80.7143C34.6001 79.9569 35.2141 79.3429 35.9715 79.3429C36.7289 79.3429 37.343 79.9569 37.343 80.7143Z" fill="#FD89FF"/>
<path d="M29.1144 76.5999C29.1144 77.3574 28.5004 77.9714 27.743 77.9714C26.9856 77.9714 26.3716 77.3574 26.3716 76.5999C26.3716 75.8425 26.9856 75.2285 27.743 75.2285C28.5004 75.2285 29.1144 75.8425 29.1144 76.5999Z" fill="#FD89FF"/>
<path d="M42.8288 84.8286C42.8288 85.586 42.2148 86.2 41.4574 86.2C40.6999 86.2 40.0859 85.586 40.0859 84.8286C40.0859 84.0712 40.6999 83.4572 41.4574 83.4572C42.2148 83.4572 42.8288 84.0712 42.8288 84.8286Z" fill="#FD89FF"/>
<path d="M51.0573 84.8286C51.0573 85.586 50.4433 86.2 49.6859 86.2C48.9285 86.2 48.3145 85.586 48.3145 84.8286C48.3145 84.0712 48.9285 83.4572 49.6859 83.4572C50.4433 83.4572 51.0573 84.0712 51.0573 84.8286Z" fill="#FD89FF"/>
<path d="M63.4001 71.1142C63.4001 71.8716 62.7861 72.4857 62.0287 72.4857C61.2712 72.4857 60.6572 71.8716 60.6572 71.1142C60.6572 70.3568 61.2712 69.7428 62.0287 69.7428C62.7861 69.7428 63.4001 70.3568 63.4001 71.1142Z" fill="#FD89FF"/>
<path d="M66.1428 80.7143C66.1428 81.4717 65.5287 82.0858 64.7713 82.0858C64.0139 82.0858 63.3999 81.4717 63.3999 80.7143C63.3999 79.9569 64.0139 79.3429 64.7713 79.3429C65.5287 79.3429 66.1428 79.9569 66.1428 80.7143Z" fill="#FD89FF"/>
<path d="M73.0002 82.0857C73.0002 82.8431 72.3862 83.4571 71.6288 83.4571C70.8713 83.4571 70.2573 82.8431 70.2573 82.0857C70.2573 81.3282 70.8713 80.7142 71.6288 80.7142C72.3862 80.7142 73.0002 81.3282 73.0002 82.0857Z" fill="#FD89FF"/>
<path d="M30.4855 82.0857C30.4855 82.8431 29.8715 83.4571 29.1141 83.4571C28.3567 83.4571 27.7427 82.8431 27.7427 82.0857C27.7427 81.3282 28.3567 80.7142 29.1141 80.7142C29.8715 80.7142 30.4855 81.3282 30.4855 82.0857Z" fill="#FD89FF"/>
<path d="M42.8288 80.7143C42.8288 81.4717 42.2148 82.0858 41.4574 82.0858C40.6999 82.0858 40.0859 81.4717 40.0859 80.7143C40.0859 79.9569 40.6999 79.3429 41.4574 79.3429C42.2148 79.3429 42.8288 79.9569 42.8288 80.7143Z" fill="#FD89FF"/>
<path d="M55.1714 73.1714C55.1714 74.3075 54.2504 75.2285 53.1143 75.2285C51.9781 75.2285 51.0571 74.3075 51.0571 73.1714C51.0571 72.0353 51.9781 71.1143 53.1143 71.1143C54.2504 71.1143 55.1714 72.0353 55.1714 73.1714Z" fill="#FD89FF"/>
<path d="M48.3141 75.2286C48.3141 75.986 47.7001 76.6 46.9427 76.6C46.1853 76.6 45.5713 75.986 45.5713 75.2286C45.5713 74.4712 46.1853 73.8572 46.9427 73.8572C47.7001 73.8572 48.3141 74.4712 48.3141 75.2286Z" fill="#FD89FF"/>
<path d="M44.2 70.4285C44.2 70.8072 43.893 71.1142 43.5143 71.1142C43.1356 71.1142 42.8286 70.8072 42.8286 70.4285C42.8286 70.0498 43.1356 69.7428 43.5143 69.7428C43.893 69.7428 44.2 70.0498 44.2 70.4285Z" fill="#FD89FF"/>
<path d="M31.8573 71.8C31.8573 72.1787 31.5503 72.4857 31.1716 72.4857C30.7928 72.4857 30.4858 72.1787 30.4858 71.8C30.4858 71.4213 30.7928 71.1143 31.1716 71.1143C31.5503 71.1143 31.8573 71.4213 31.8573 71.8Z" fill="#FD89FF"/>
<path d="M37.343 76.5999C37.343 77.3574 36.7289 77.9714 35.9715 77.9714C35.2141 77.9714 34.6001 77.3574 34.6001 76.5999C34.6001 75.8425 35.2141 75.2285 35.9715 75.2285C36.7289 75.2285 37.343 75.8425 37.343 76.5999Z" fill="#FD89FF"/>
<path d="M31.8573 75.9142C31.8573 76.2929 31.5503 76.5999 31.1716 76.5999C30.7928 76.5999 30.4858 76.2929 30.4858 75.9142C30.4858 75.5355 30.7928 75.2285 31.1716 75.2285C31.5503 75.2285 31.8573 75.5355 31.8573 75.9142Z" fill="#FD89FF"/>
<path d="M37.3426 70.4285C37.3426 70.8072 37.0356 71.1142 36.6569 71.1142C36.2782 71.1142 35.9712 70.8072 35.9712 70.4285C35.9712 70.0498 36.2782 69.7428 36.6569 69.7428C37.0356 69.7428 37.3426 70.0498 37.3426 70.4285Z" fill="#FD89FF"/>
<path d="M49.6859 70.4285C49.6859 70.8072 49.3789 71.1142 49.0002 71.1142C48.6215 71.1142 48.3145 70.8072 48.3145 70.4285C48.3145 70.0498 48.6215 69.7428 49.0002 69.7428C49.3789 69.7428 49.6859 70.0498 49.6859 70.4285Z" fill="#FD89FF"/>
<path d="M52.4286 67.6857C52.4286 68.0644 52.1216 68.3714 51.7428 68.3714C51.3641 68.3714 51.0571 68.0644 51.0571 67.6857C51.0571 67.307 51.3641 67 51.7428 67C52.1216 67 52.4286 67.307 52.4286 67.6857Z" fill="#FD89FF"/>
<path d="M53.8001 82.7714C53.8001 83.1501 53.4931 83.4571 53.1144 83.4571C52.7357 83.4571 52.4287 83.1501 52.4287 82.7714C52.4287 82.3927 52.7357 82.0857 53.1144 82.0857C53.4931 82.0857 53.8001 82.3927 53.8001 82.7714Z" fill="#FD89FF"/>
<path d="M62.0287 81.3999C62.0287 81.7787 61.7217 82.0857 61.3429 82.0857C60.9642 82.0857 60.6572 81.7787 60.6572 81.3999C60.6572 81.0212 60.9642 80.7142 61.3429 80.7142C61.7217 80.7142 62.0287 81.0212 62.0287 81.3999Z" fill="#FD89FF"/>
<path d="M26.3714 81.3999C26.3714 81.7787 26.0644 82.0857 25.6857 82.0857C25.307 82.0857 25 81.7787 25 81.3999C25 81.0212 25.307 80.7142 25.6857 80.7142C26.0644 80.7142 26.3714 81.0212 26.3714 81.3999Z" fill="#FD89FF"/>
<path d="M34.5999 84.1429C34.5999 84.5216 34.2929 84.8286 33.9142 84.8286C33.5355 84.8286 33.2285 84.5216 33.2285 84.1429C33.2285 83.7642 33.5355 83.4572 33.9142 83.4572C34.2929 83.4572 34.5999 83.7642 34.5999 84.1429Z" fill="#FD89FF"/>
<path d="M46.9427 82.7714C46.9427 83.1501 46.6357 83.4571 46.257 83.4571C45.8783 83.4571 45.5713 83.1501 45.5713 82.7714C45.5713 82.3927 45.8783 82.0857 46.257 82.0857C46.6357 82.0857 46.9427 82.3927 46.9427 82.7714Z" fill="#FD89FF"/>
<path d="M60.6571 85.5143C60.6571 85.893 60.3501 86.2 59.9714 86.2C59.5926 86.2 59.2856 85.893 59.2856 85.5143C59.2856 85.1356 59.5926 84.8286 59.9714 84.8286C60.3501 84.8286 60.6571 85.1356 60.6571 85.5143Z" fill="#FD89FF"/>
<path d="M57.9142 80.7143C57.9142 81.4717 57.3002 82.0858 56.5428 82.0858C55.7854 82.0858 55.1714 81.4717 55.1714 80.7143C55.1714 79.9569 55.7854 79.3429 56.5428 79.3429C57.3002 79.3429 57.9142 79.9569 57.9142 80.7143Z" fill="#FD89FF"/>
<path d="M66.1429 84.1429C66.1429 84.5216 65.8359 84.8286 65.4572 84.8286C65.0785 84.8286 64.7715 84.5216 64.7715 84.1429C64.7715 83.7642 65.0785 83.4572 65.4572 83.4572C65.8359 83.4572 66.1429 83.7642 66.1429 84.1429Z" fill="#FD89FF"/>
<path d="M68.8856 78.6571C68.8856 79.0359 68.5786 79.3429 68.1999 79.3429C67.8212 79.3429 67.5142 79.0359 67.5142 78.6571C67.5142 78.2784 67.8212 77.9714 68.1999 77.9714C68.5786 77.9714 68.8856 78.2784 68.8856 78.6571Z" fill="#FD89FF"/>
<path d="M63.4002 74.5429C63.4002 74.9216 63.0932 75.2286 62.7145 75.2286C62.3358 75.2286 62.0288 74.9216 62.0288 74.5429C62.0288 74.1642 62.3358 73.8572 62.7145 73.8572C63.0932 73.8572 63.4002 74.1642 63.4002 74.5429Z" fill="#FD89FF"/>
<path d="M57.9144 70.4285C57.9144 70.8072 57.6074 71.1142 57.2287 71.1142C56.85 71.1142 56.543 70.8072 56.543 70.4285C56.543 70.0498 56.85 69.7428 57.2287 69.7428C57.6074 69.7428 57.9144 70.0498 57.9144 70.4285Z" fill="#FD89FF"/>
<path d="M55.1712 77.2857C55.1712 77.6644 54.8642 77.9714 54.4855 77.9714C54.1068 77.9714 53.7998 77.6644 53.7998 77.2857C53.7998 76.907 54.1068 76.6 54.4855 76.6C54.8642 76.6 55.1712 76.907 55.1712 77.2857Z" fill="#FD89FF"/>
<path fill-rule="evenodd" clip-rule="evenodd" d="M27.3338 65L16.1463 81.7812C14.3742 84.4394 16.2797 88 19.4745 88H76.5264C79.6343 88 81.5221 84.6305 79.9911 82H29.4745C26.2797 82 24.3742 78.4394 26.1463 75.7812L33.3338 65H27.3338Z" fill="#E56CEF"/>
<path fill-rule="evenodd" clip-rule="evenodd" d="M62.6672 65L69.8547 75.7812C71.6268 78.4394 69.7212 82 66.5265 82H16.0098C14.4788 84.6305 16.3666 88 19.4745 88H76.5264C79.7211 88 81.6267 84.4394 79.8546 81.7812L68.6671 65H62.6672Z" fill="#A12CFD"/>
<path d="M28.0005 32H68.0005L60.0005 44L58.3754 46.4376C56.8917 48.6632 54.3938 50 51.719 50H44.282C41.6071 50 39.1093 48.6632 37.6256 46.4376L36.0005 44L28.0005 32Z" fill="#C25FFF"/>
<path fill-rule="evenodd" clip-rule="evenodd" d="M30 33C30 32.4477 30.4477 32 31 32H65C65.5523 32 66 32.4477 66 33C66 33.5523 65.5523 34 65 34H31C30.4477 34 30 33.5523 30 33Z" fill="#8232B3"/>
<path fill-rule="evenodd" clip-rule="evenodd" d="M45.7188 50H51.7187C54.3935 50 56.8914 48.6632 58.3751 46.4376L68.0002 32H62.0002L52.3752 46.4376C50.8914 48.6632 48.3936 50 45.7188 50Z" fill="#8B3ACA"/>
<path fill-rule="evenodd" clip-rule="evenodd" d="M34.0005 32H28.0005L37.6256 46.4376C39.1093 48.6632 41.6071 50 44.282 50H50.282C47.6071 50 45.1093 48.6632 43.6256 46.4376L34.0005 32Z" fill="#E56CEF"/>
<path d="M50 59C50 60.1046 49.1046 61 48 61C46.8954 61 46 60.1046 46 59C46 57.8954 46.8954 57 48 57C49.1046 57 50 57.8954 50 59Z" fill="#8B3ACA"/>
<path d="M51 48.5C51 50.433 49.433 52 47.5 52C45.567 52 44 50.433 44 48.5C44 46.567 45.567 45 47.5 45C49.433 45 51 46.567 51 48.5Z" fill="#C25FFF"/>
<path d="M47 41C47 41.5523 46.5523 42 46 42C45.4477 42 45 41.5523 45 41C45 40.4477 45.4477 40 46 40C46.5523 40 47 40.4477 47 41Z" fill="#FD89FF"/>
<path d="M46 45C46 45.5523 45.5523 46 45 46C44.4477 46 44 45.5523 44 45C44 44.4477 44.4477 44 45 44C45.5523 44 46 44.4477 46 45Z" fill="#FD89FF"/>
<path d="M50 46.5C50 47.3284 49.3284 48 48.5 48C47.6716 48 47 47.3284 47 46.5C47 45.6716 47.6716 45 48.5 45C49.3284 45 50 45.6716 50 46.5Z" fill="#FD89FF"/>
<path d="M53 44C53 44.5523 52.5523 45 52 45C51.4477 45 51 44.5523 51 44C51 43.4477 51.4477 43 52 43C52.5523 43 53 43.4477 53 44Z" fill="#FD89FF"/>
<path d="M48 43.5C48 43.7761 47.7761 44 47.5 44C47.2239 44 47 43.7761 47 43.5C47 43.2239 47.2239 43 47.5 43C47.7761 43 48 43.2239 48 43.5Z" fill="#FD89FF"/>
<path d="M43 41.5C43 41.7761 42.7761 42 42.5 42C42.2239 42 42 41.7761 42 41.5C42 41.2239 42.2239 41 42.5 41C42.7761 41 43 41.2239 43 41.5Z" fill="#FD89FF"/>
<path d="M53 37C53 37.5523 52.5523 38 52 38C51.4477 38 51 37.5523 51 37C51 36.4477 51.4477 36 52 36C52.5523 36 53 36.4477 53 37Z" fill="#FD89FF"/>
<path d="M51 41C51 41.5523 50.5523 42 50 42C49.4477 42 49 41.5523 49 41C49 40.4477 49.4477 40 50 40C50.5523 40 51 40.4477 51 41Z" fill="#FD89FF"/>
<path d="M44 37.5C44 37.7761 43.7761 38 43.5 38C43.2239 38 43 37.7761 43 37.5C43 37.2239 43.2239 37 43.5 37C43.7761 37 44 37.2239 44 37.5Z" fill="#FD89FF"/>
<path d="M49 38.5C49 38.7761 48.7761 39 48.5 39C48.2239 39 48 38.7761 48 38.5C48 38.2239 48.2239 38 48.5 38C48.7761 38 49 38.2239 49 38.5Z" fill="#FD89FF"/>
<path d="M54 39.5C54 39.7761 53.7761 40 53.5 40C53.2239 40 53 39.7761 53 39.5C53 39.2239 53.2239 39 53.5 39C53.7761 39 54 39.2239 54 39.5Z" fill="#FD89FF"/>
<path fill-rule="evenodd" clip-rule="evenodd" d="M18.9623 81.8431C19.4279 82.1401 20.0462 82.0034 20.3432 81.5378L38.8432 52.5378C39.1402 52.0722 39.0036 51.454 38.5379 51.1569C38.0723 50.8599 37.4541 50.9966 37.1571 51.4622L18.6571 80.4622C18.36 80.9278 18.4967 81.546 18.9623 81.8431Z" fill="#A8FFEF"/>
<path fill-rule="evenodd" clip-rule="evenodd" d="M23.5873 74.5931C24.0529 74.8901 24.6712 74.7534 24.9682 74.2878L29.5932 67.0378C29.8902 66.5722 29.7536 65.954 29.2879 65.6569C28.8223 65.3599 28.2041 65.4966 27.9071 65.9622L23.2821 73.2122C22.985 73.6778 23.1217 74.296 23.5873 74.5931Z" fill="white"/>
<path fill-rule="evenodd" clip-rule="evenodd" d="M18.9623 14.1569C19.4279 13.8599 20.0462 13.9966 20.3432 14.4622L38.8432 43.4622C39.1402 43.9278 39.0036 44.546 38.5379 44.8431C38.0723 45.1401 37.4541 45.0034 37.1571 44.5378L18.6571 15.5378C18.36 15.0722 18.4967 14.454 18.9623 14.1569Z" fill="#A8FFEF"/>
<path fill-rule="evenodd" clip-rule="evenodd" d="M23.5873 21.4069C24.0529 21.1099 24.6712 21.2466 24.9682 21.7122L29.5932 28.9622C29.8902 29.4278 29.7536 30.046 29.2879 30.3431C28.8223 30.6401 28.2041 30.5034 27.9071 30.0378L23.2821 22.7878C22.985 22.3222 23.1217 21.704 23.5873 21.4069Z" fill="white"/>
<path fill-rule="evenodd" clip-rule="evenodd" d="M20 11C20 10.4477 20.4477 10 21 10H75C75.5523 10 76 10.4477 76 11C76 11.5523 75.5523 12 75 12H21C20.4477 12 20 11.5523 20 11Z" fill="#15D6E2"/>
<path fill-rule="evenodd" clip-rule="evenodd" d="M18 85C18 84.4477 18.4477 84 19 84H77C77.5523 84 78 84.4477 78 85C78 85.5523 77.5523 86 77 86H19C18.4477 86 18 85.5523 18 85Z" fill="#C25FFF"/>
</svg>
