<svg width="154" height="190" viewBox="0 0 154 190" fill="none" xmlns="http://www.w3.org/2000/svg">
<path d="M92.8562 156.514C90.7802 159.867 92.7618 181.094 92.8634 188.447L86.715 188.447L80.2222 188.447C80.1184 180.144 79.9058 154.54 79.9058 154.54C82.8949 148.115 81.9935 123.99 81.9935 123.99C84.4193 110.716 83.9949 92.7369 83.9949 92.7369C86.5594 85.6504 83.9801 63.8038 85.715 63.9472C87.4499 64.0906 100.715 64.4472 100.715 64.4472C100.715 68.4472 99.215 94.4472 99.215 94.4472C100.215 107.447 98.715 124.947 98.715 124.947C102.072 128.633 92.8562 156.514 92.8562 156.514Z" fill="url(#paint0_linear_20_41)"/>
<path d="M92.8562 156.514C90.7802 159.867 92.7618 181.094 92.8634 188.447L86.715 188.447L80.2222 188.447C80.1184 180.144 79.9058 154.54 79.9058 154.54M92.8562 156.514C92.8562 156.514 102.072 128.633 98.715 124.947M92.8562 156.514L79.9058 154.54M98.715 124.947C98.715 124.947 100.215 107.447 99.215 94.4472M98.715 124.947L81.9935 123.99M99.215 94.4472C99.215 94.4472 100.715 68.4472 100.715 64.4472C100.715 64.4472 87.4499 64.0906 85.715 63.9472C83.9801 63.8038 86.5594 85.6504 83.9949 92.7369M99.215 94.4472L83.9949 92.7369M83.9949 92.7369C83.9949 92.7369 84.4193 110.716 81.9935 123.99M81.9935 123.99C81.9935 123.99 82.8949 148.115 79.9058 154.54" stroke="#1A440D" stroke-width="2"/>
<path d="M55.5452 67.0386C55.5452 67.0386 55.23 59.8615 50.715 34.4472C54.5342 31.4413 65.2151 31.4472 65.2151 31.4472C65.749 45.1643 68.4501 64.9208 68.4501 64.9208C68.4229 85.0395 71.61 100.133 72.8993 101.891C72.8993 101.891 73.4956 133.161 77.3335 139.288C78.9837 150.048 81.0166 174.434 79.0996 175.737C79.0996 175.737 71.7808 176.052 69.3195 175.395C69.8421 160.431 64.4286 141.406 64.4286 141.406C61.2151 125.947 60.3851 112.156 59.9794 104.436C59.9794 104.436 61.2599 96.7755 55.5452 67.0386Z" fill="url(#paint1_linear_20_41)"/>
<path d="M55.5452 67.0386C55.5452 67.0386 55.23 59.8615 50.715 34.4472C54.5342 31.4413 65.2151 31.4472 65.2151 31.4472C65.749 45.1643 68.4501 64.9208 68.4501 64.9208M55.5452 67.0386C61.2599 96.7755 59.9794 104.436 59.9794 104.436M55.5452 67.0386L68.4501 64.9208M59.9794 104.436C60.3851 112.156 61.2151 125.947 64.4286 141.406M59.9794 104.436L72.8993 101.891M64.4286 141.406C64.4286 141.406 69.8421 160.431 69.3195 175.395C71.7808 176.052 79.0996 175.737 79.0996 175.737C81.0166 174.434 78.9837 150.048 77.3335 139.288M64.4286 141.406L77.3335 139.288M77.3335 139.288C73.4956 133.161 72.8993 101.891 72.8993 101.891M72.8993 101.891C71.61 100.133 68.4229 85.0395 68.4501 64.9208" stroke="#1A440D" stroke-width="2"/>
<path d="M86.766 86.8898C85.7659 81.3898 99.7659 68.8898 103.284 68.9474C107.091 69.0097 88.766 94.8898 86.766 86.8898Z" fill="url(#paint2_linear_20_41)" stroke="#153719" stroke-width="2"/>
<path d="M45.9592 150.208C41.8249 153.971 23.8054 148.722 21.9902 145.709C20.0254 142.447 51.6838 144.273 45.9592 150.208Z" fill="url(#paint3_linear_20_41)" stroke="#153719" stroke-width="2"/>
<path d="M44.7062 145.651C38.556 147.919 21.4298 130.671 20.8155 125.819C20.1507 120.567 53.5464 141.6 44.7062 145.651Z" fill="url(#paint4_linear_20_41)" stroke="#153719" stroke-width="2"/>
<path d="M32.1128 83.1351C25.0919 82.8195 11.7019 67.5456 12.3286 64.4115C13.0069 61.0193 42.4111 83.1063 32.1128 83.1351Z" fill="url(#paint5_linear_20_41)" stroke="#153719" stroke-width="2"/>
<path d="M34.6331 81.9701C30.948 88.2323 5.01947 86.6595 1.27486 83.1876C-2.7781 79.4297 39.405 72.3318 34.6331 81.9701Z" fill="url(#paint6_linear_20_41)" stroke="#153719" stroke-width="2"/>
<path d="M35.9028 83.5494C35.5872 90.5703 20.3133 103.96 17.1792 103.334C13.787 102.655 35.874 73.251 35.9028 83.5494Z" fill="url(#paint7_linear_20_41)" stroke="#153719" stroke-width="2"/>
<path d="M117.952 97.6922C117.922 91.282 142.802 82.934 148.18 84.3418C154 85.8654 118.833 107.224 117.952 97.6922Z" fill="url(#paint8_linear_20_41)" stroke="#153719" stroke-width="2"/>
<path d="M115.829 100.501C118.102 94.8386 146.932 101.826 152.008 106.164C157.503 110.86 113.316 109.403 115.829 100.501Z" fill="url(#paint9_linear_20_41)" stroke="#153719" stroke-width="2"/>
<path d="M113.313 97.297C118.536 94.1428 137.356 117.073 138.799 123.593C140.361 130.65 105.949 102.894 113.313 97.297Z" fill="url(#paint10_linear_20_41)" stroke="#153719" stroke-width="2"/>
<path d="M85.0953 44.1931C82.2187 38.812 106.102 21.2183 112.689 20.1185C119.818 18.9281 90.2988 51.8403 85.0953 44.1931Z" fill="url(#paint11_linear_20_41)" stroke="#153719" stroke-width="2"/>
<path d="M85.949 43.2268C80.7673 40.0049 92.6544 12.8264 97.8087 8.58058C103.388 3.98515 94.279 47.2477 85.949 43.2268Z" fill="url(#paint12_linear_20_41)" stroke="#153719" stroke-width="2"/>
<path d="M80.0567 48.2795C79.4637 43.1012 104.483 36.9369 110.172 38.199C116.33 39.5651 81.8028 55.9994 80.0567 48.2795Z" fill="url(#paint13_linear_20_41)" stroke="#153719" stroke-width="2"/>
<path d="M128.419 61.2876C127.03 56.8932 146.475 46.906 151.361 46.952C156.65 47.0018 131.197 67.6794 128.419 61.2876Z" fill="url(#paint14_linear_20_41)" stroke="#153719" stroke-width="2"/>
<path d="M111.215 150.447C107.593 154.793 103.382 178.114 102.215 188.447H87.7148C89.0482 176.781 92.7148 145.447 92.7148 145.447C98.2148 136.947 101.215 102.947 101.215 102.947C107.119 84.743 109.715 59.4472 109.715 59.4472C114.715 49.9472 117.215 20.4472 119.715 20.9472C122.215 21.4472 135.715 24.9472 135.715 24.9472C132.715 29.9472 129.215 64.4472 129.215 64.4472C122.715 76.4472 119.715 106.947 119.715 106.947C115.715 109.447 111.215 150.447 111.215 150.447Z" fill="url(#paint15_linear_20_41)"/>
<path d="M111.215 150.447C107.593 154.793 103.382 178.114 102.215 188.447H87.7148C89.0482 176.781 92.7148 145.447 92.7148 145.447M111.215 150.447C111.215 150.447 115.715 109.447 119.715 106.947M111.215 150.447L92.7148 145.447M119.715 106.947C119.715 106.947 122.715 76.4472 129.215 64.4472M119.715 106.947L101.215 102.947M129.215 64.4472C129.215 64.4472 132.715 29.9472 135.715 24.9472C135.715 24.9472 122.215 21.4472 119.715 20.9472C117.215 20.4472 114.715 49.9472 109.715 59.4472M129.215 64.4472L109.715 59.4472M109.715 59.4472C109.715 59.4472 107.119 84.743 101.215 102.947M101.215 102.947C101.215 102.947 98.2148 136.947 92.7148 145.447" stroke="#1A440D" stroke-width="2"/>
<path d="M87.715 146.447L86.215 188.447H69.715C69.5089 185.047 69.2487 180.425 68.9993 175.447C68.4419 164.321 67.9386 151.422 68.215 146.447C68.715 137.447 71.715 110.447 68.715 96.9472C68.715 96.9472 70.715 63.4472 69.215 48.9472C68.6372 43.3627 69.3816 14.9472 69.215 1.44721C75.5483 0.947209 88.015 0.447209 87.215 2.44721C83.715 11.1972 87.715 48.9472 87.715 48.9472C84.215 58.4472 87.715 86.9472 87.715 96.9472C87.715 104.42 83.715 126.447 87.715 146.447Z" fill="url(#paint16_linear_20_41)"/>
<path d="M87.715 146.447L86.215 188.447H69.715C69.5089 185.047 69.2487 180.425 68.9993 175.447C68.4419 164.321 67.9386 151.422 68.215 146.447M87.715 146.447C83.715 126.447 87.715 104.42 87.715 96.9472M87.715 146.447L68.215 146.447M87.715 96.9472C87.715 86.9472 84.215 58.4472 87.715 48.9472M87.715 96.9472H68.715M87.715 48.9472C87.715 48.9472 83.715 11.1972 87.215 2.44721C88.015 0.447209 75.5483 0.947209 69.215 1.44721C69.3816 14.9472 68.6372 43.3627 69.215 48.9472M87.715 48.9472H69.215M69.215 48.9472C70.715 63.4472 68.715 96.9472 68.715 96.9472M68.715 96.9472C71.715 110.447 68.715 137.447 68.215 146.447" stroke="#1A440D" stroke-width="2"/>
<path d="M28.215 62.4472C28.215 62.4472 28.715 54.4472 20.715 24.9472C26.215 21.2805 37.215 20.4472 37.215 20.4472C38.715 36.4472 47.215 59.4472 47.215 59.4472C48.215 82.9472 53.715 100.447 55.715 102.447C55.715 102.447 58.215 138.947 64.215 145.947C67.215 158.447 71.9863 186.847 69.215 188.447C69.215 188.447 57.8936 189.114 54.215 188.447C54.215 170.947 45.215 148.947 45.215 148.947C44.5529 124.451 37.715 114.947 36.715 105.947C36.715 105.947 38.215 96.9472 28.215 62.4472Z" fill="url(#paint17_linear_20_41)"/>
<path d="M28.215 62.4472C28.215 62.4472 28.715 54.4472 20.715 24.9472C26.215 21.2805 37.215 20.4472 37.215 20.4472C38.715 36.4472 47.215 59.4472 47.215 59.4472M28.215 62.4472C38.215 96.9472 36.715 105.947 36.715 105.947M28.215 62.4472L47.215 59.4472M36.715 105.947C37.715 114.947 44.5529 124.451 45.215 148.947M36.715 105.947L55.715 102.447M45.215 148.947C45.215 148.947 54.215 170.947 54.215 188.447C57.8936 189.114 69.215 188.447 69.215 188.447C71.9863 186.847 67.215 158.447 64.215 145.947M45.215 148.947L64.215 145.947M64.215 145.947C58.215 138.947 55.715 102.447 55.715 102.447M55.715 102.447C53.715 100.447 48.215 82.9472 47.215 59.4472" stroke="#1A440D" stroke-width="2"/>
<defs>
<linearGradient id="paint0_linear_20_41" x1="91.2438" y1="140.585" x2="87.2555" y2="108.103" gradientUnits="userSpaceOnUse">
<stop offset="0.432692" stop-color="#0C5331"/>
<stop offset="1" stop-color="#408D32"/>
</linearGradient>
<linearGradient id="paint1_linear_20_41" x1="127.089" y1="97.1706" x2="49.5225" y2="94.4619" gradientUnits="userSpaceOnUse">
<stop stop-color="#347D31"/>
<stop offset="0.9999" stop-color="#489933"/>
</linearGradient>
<linearGradient id="paint2_linear_20_41" x1="103.803" y1="78.6858" x2="86.715" y2="78.6858" gradientUnits="userSpaceOnUse">
<stop stop-color="#47923F"/>
<stop offset="1" stop-color="#90CA4B"/>
</linearGradient>
<linearGradient id="paint3_linear_20_41" x1="42.4654" y1="141.721" x2="25.4451" y2="150.978" gradientUnits="userSpaceOnUse">
<stop stop-color="#8ACA48"/>
<stop offset="1" stop-color="#446424"/>
</linearGradient>
<linearGradient id="paint4_linear_20_41" x1="31.9474" y1="123.526" x2="35.2536" y2="147.051" gradientUnits="userSpaceOnUse">
<stop stop-color="#8ACA48"/>
<stop offset="1" stop-color="#446424"/>
</linearGradient>
<linearGradient id="paint5_linear_20_41" x1="24.5626" y1="66.09" x2="21.8673" y2="81.3756" gradientUnits="userSpaceOnUse">
<stop stop-color="#8ACA48"/>
<stop offset="1" stop-color="#446424"/>
</linearGradient>
<linearGradient id="paint6_linear_20_41" x1="26.8013" y1="72.2453" x2="9.93088" y2="90.9818" gradientUnits="userSpaceOnUse">
<stop stop-color="#8ACA48"/>
<stop offset="1" stop-color="#446424"/>
</linearGradient>
<linearGradient id="paint7_linear_20_41" x1="28.6433" y1="80.2948" x2="24.3577" y2="104.6" gradientUnits="userSpaceOnUse">
<stop stop-color="#446424"/>
<stop offset="0.9999" stop-color="#8ACA48"/>
</linearGradient>
<linearGradient id="paint8_linear_20_41" x1="135.876" y1="81.274" x2="130.554" y2="102.62" gradientUnits="userSpaceOnUse">
<stop stop-color="#8ACA48"/>
<stop offset="1" stop-color="#446424"/>
</linearGradient>
<linearGradient id="paint9_linear_20_41" x1="140.339" y1="96.3723" x2="127.139" y2="112.103" gradientUnits="userSpaceOnUse">
<stop offset="0.115385" stop-color="#446424"/>
<stop offset="1" stop-color="#8ACA48"/>
</linearGradient>
<linearGradient id="paint10_linear_20_41" x1="121.719" y1="95.2569" x2="129.016" y2="126.863" gradientUnits="userSpaceOnUse">
<stop offset="0.197115" stop-color="#8ACA48"/>
<stop offset="0.846154" stop-color="#446424"/>
</linearGradient>
<linearGradient id="paint11_linear_20_41" x1="97.6871" y1="22.7635" x2="101.253" y2="42.987" gradientUnits="userSpaceOnUse">
<stop stop-color="#8ACA48"/>
<stop offset="1" stop-color="#446424"/>
</linearGradient>
<linearGradient id="paint12_linear_20_41" x1="86.1391" y1="18.3723" x2="99.339" y2="34.1033" gradientUnits="userSpaceOnUse">
<stop stop-color="#8ACA48"/>
<stop offset="0.442308" stop-color="#72A73C"/>
<stop offset="1" stop-color="#446424"/>
</linearGradient>
<linearGradient id="paint13_linear_20_41" x1="94.827" y1="52.8286" x2="101.512" y2="37.6415" gradientUnits="userSpaceOnUse">
<stop stop-color="#8ACA48"/>
<stop offset="1" stop-color="#446424"/>
</linearGradient>
<linearGradient id="paint14_linear_20_41" x1="140.215" y1="46.9519" x2="140.215" y2="62.5137" gradientUnits="userSpaceOnUse">
<stop stop-color="#8ACA48"/>
<stop offset="0.298077" stop-color="#6EA139"/>
<stop offset="0.788462" stop-color="#446424"/>
</linearGradient>
<linearGradient id="paint15_linear_20_41" x1="135.715" y1="104.694" x2="87.7148" y2="104.694" gradientUnits="userSpaceOnUse">
<stop stop-color="#116038"/>
<stop offset="1" stop-color="#59A133"/>
</linearGradient>
<linearGradient id="paint16_linear_20_41" x1="135.715" y1="94.7236" x2="20.715" y2="94.7236" gradientUnits="userSpaceOnUse">
<stop stop-color="#126C3F"/>
<stop offset="0.9999" stop-color="#8CB228"/>
</linearGradient>
<linearGradient id="paint17_linear_20_41" x1="135.715" y1="94.7236" x2="20.715" y2="94.7236" gradientUnits="userSpaceOnUse">
<stop stop-color="#126C3F"/>
<stop offset="0.9999" stop-color="#8CB228"/>
</linearGradient>
</defs>
</svg>
