<svg width="96" height="96" viewBox="0 0 96 96" fill="none" xmlns="http://www.w3.org/2000/svg">
<path d="M86.9782 25.515C87.5307 20.9111 84.0658 16.8034 79.4347 16.5718L17.7427 13.4872C12.7018 13.2352 8.68988 17.6569 9.42954 22.6496L14.9885 60.1725C15.5696 64.0951 18.9366 67.0001 22.9021 67.0001H74.9026C78.9522 67.0001 82.3631 63.974 82.8456 59.9532L86.9782 25.515Z" fill="#D9802E"/>
<path fill-rule="evenodd" clip-rule="evenodd" d="M79.5348 14.5743L17.8428 11.4897C11.5417 11.1746 6.52681 16.7018 7.45139 22.9427L13.0103 60.4655C13.7367 65.3688 17.9455 69 22.9024 69H74.9028C79.9648 69 84.2285 65.2174 84.8316 60.1915L88.9642 25.7532C89.6548 19.9984 85.3237 14.8637 79.5348 14.5743ZM79.4349 16.5718C84.066 16.8033 87.5309 20.911 86.9784 25.5149L82.8458 59.9532C82.3634 63.9739 78.9524 67 74.9028 67H22.9024C18.9369 67 15.5699 64.0951 14.9887 60.1724L9.42979 22.6496C8.69013 17.6569 12.702 13.2351 17.7429 13.4872L79.4349 16.5718Z" fill="#8F3400"/>
<path d="M52.5 69.5L70 62L72 65L69 78.0592C68.5 80.3191 67.863 81.3553 66.1931 81.8772L63.5 83C61.5847 83.5985 59.8442 81.3204 59 79.5L52.5 69.5Z" fill="#D9802E"/>
<path fill-rule="evenodd" clip-rule="evenodd" d="M50.5863 68.9189C50.7577 68.3543 51.1698 67.8941 51.7122 67.6617L69.2122 60.1617C70.0983 59.7819 71.1293 60.0884 71.6641 60.8906L73.6641 63.8906C73.9693 64.3483 74.0724 64.9116 73.9493 65.4477L70.951 78.4994C70.687 79.6908 70.3346 80.8354 69.6665 81.7772C68.9549 82.7801 68.0094 83.3879 66.8842 83.7559L64.2697 84.8459C64.213 84.8696 64.1552 84.8906 64.0966 84.9089C62.1434 85.5193 60.501 84.5611 59.4896 83.6246C58.5006 82.7089 57.7421 81.5048 57.2492 80.4762L50.8231 70.5899C50.5015 70.0952 50.4148 69.4836 50.5863 68.9189ZM59 79.5C59.8442 81.3204 61.5847 83.5985 63.5 83L66.1931 81.8771C67.863 81.3553 68.5 80.3191 69 78.0592L72 65L70 62L52.5 69.5L59 79.5Z" fill="#8F3400"/>
<path fill-rule="evenodd" clip-rule="evenodd" d="M49.75 64.9997L60.1201 81.5918C60.6676 82.4678 61.6278 83 62.6609 83C64.0357 83 65.2341 82.0643 65.5676 80.7305L69.6494 64.4033C68.7116 64.7882 67.6862 64.9997 66.6147 64.9997H49.75Z" fill="#D79F11"/>
<path fill-rule="evenodd" clip-rule="evenodd" d="M48.0007 64.0302C48.3532 63.3943 49.023 62.9997 49.75 62.9997H66.6147C67.4212 62.9997 68.1889 62.8408 68.8901 62.5531C69.5879 62.2667 70.3874 62.3973 70.9579 62.8908C71.5283 63.3843 71.7726 64.1567 71.5897 64.8884L67.5079 81.2156C66.9518 83.4397 64.9534 85 62.6609 85C60.9382 85 59.3371 84.1126 58.4241 82.6518L48.054 66.0597C47.6687 65.4432 47.6483 64.6661 48.0007 64.0302ZM65.5676 80.7305C65.2341 82.0643 64.0357 83 62.6609 83C61.6278 83 60.6676 82.4679 60.1201 81.5918L49.75 64.9997H66.6147C66.8964 64.9997 67.1749 64.9851 67.4495 64.9565C68.2193 64.8765 68.9581 64.687 69.6494 64.4034L65.5676 80.7305Z" fill="#8F3400"/>
<path fill-rule="evenodd" clip-rule="evenodd" d="M52.4944 65.6373C52.9709 65.358 53.5836 65.5179 53.8629 65.9943L62.3629 80.4943C62.6422 80.9708 62.4823 81.5834 62.0059 81.8627C61.5294 82.142 60.9168 81.9822 60.6375 81.5058L52.1375 67.0058C51.8582 66.5293 52.018 65.9166 52.4944 65.6373Z" fill="#FFD232"/>
<path d="M15.019 62.1312L9.40791 22.8532C8.685 17.7929 12.8284 13.3619 17.9258 13.7442L79.9829 16.3985C81.7784 16.5332 83.2304 17.9801 83.3632 19.7757C83.3932 20.1817 83.3926 20.5953 83.3591 21.0139L78.5892 57.6376C78.2566 61.7952 74.7856 64.9997 70.6147 64.9997H18.9386C18.5375 64.9997 18.1408 64.9661 17.7519 64.9036C16.3306 64.6752 15.2226 63.5563 15.019 62.1312Z" fill="#FFD232"/>
<path fill-rule="evenodd" clip-rule="evenodd" d="M80.0684 14.4004C80.0898 14.4013 80.1111 14.4026 80.1325 14.4042C82.9105 14.6125 85.1515 16.8404 85.3577 19.6281C85.3953 20.1361 85.3944 20.6523 85.3527 21.1734C85.3501 21.2065 85.3466 21.2394 85.3423 21.2722L80.5785 57.8495C80.1379 63.021 75.8107 66.9997 70.6146 66.9997H18.9386C18.4259 66.9997 17.923 66.9568 17.4345 66.8783L17.7519 64.9037C18.1407 64.9662 18.5374 64.9997 18.9386 64.9997H70.6146C74.7855 64.9997 78.2566 61.7953 78.5892 57.6377L83.3591 21.0139C83.3926 20.5954 83.3932 20.1818 83.3632 19.7757C83.2303 17.9802 81.7783 16.5332 79.9829 16.3986L17.9258 13.7443C12.8284 13.362 8.68497 17.7929 9.40787 22.8532L15.019 62.1312C15.2226 63.5563 16.3306 64.6752 17.7519 64.9037L17.4345 66.8783C15.1556 66.512 13.3676 64.7136 13.0391 62.4141L7.42797 23.1361C6.52594 16.8218 11.6854 11.2916 18.0416 11.7474L80.0684 14.4004Z" fill="#8F3400"/>
<path fill-rule="evenodd" clip-rule="evenodd" d="M15.1719 62.756C15.5656 63.8751 16.546 64.71 17.752 64.9038C18.1408 64.9663 18.5375 64.9998 18.9387 64.9998H70.6148C74.7856 64.9998 78.2567 61.7954 78.5893 57.6378L83.3592 21.0141C83.3927 20.5955 83.3933 20.1819 83.3633 19.7758C83.2594 18.3723 82.3496 17.1818 81.0998 16.6646C81.2432 17.0119 81.3344 17.3857 81.3633 17.7758C81.3933 18.1819 81.3927 18.5955 81.3592 19.0141L76.5893 55.6378C76.2567 59.7954 72.7856 62.9998 68.6148 62.9998H16.9387C16.5375 62.9998 16.1408 62.9663 15.752 62.9038C15.5519 62.8716 15.3579 62.8218 15.1719 62.756Z" fill="#D79F11"/>
<path d="M9.40791 22.8532C8.685 17.7929 12.8284 13.3619 17.9258 13.7442L48.9544 15.0714C44.1177 37.1285 22.4452 42.5424 12.2135 42.4922L9.40791 22.8532Z" fill="#FFDB5B"/>
<path fill-rule="evenodd" clip-rule="evenodd" d="M18.5414 14.0222C13.4399 13.6394 9.37102 18.2028 10.0813 23.3289L11.3017 32.1372C11.3775 32.6843 11.8824 33.0663 12.4295 32.9905C12.9766 32.9147 13.3586 32.4098 13.2828 31.8627L12.0623 23.0544C11.5155 19.108 14.6458 15.727 18.4055 16.0177C18.4173 16.0186 18.4291 16.0193 18.4409 16.0198L31.9586 16.583C32.5104 16.606 32.9764 16.1773 32.9994 15.6255C33.0224 15.0737 32.5937 14.6077 32.0419 14.5848L18.5414 14.0222Z" fill="#FFEBA6"/>
<path fill-rule="evenodd" clip-rule="evenodd" d="M10.0813 23.3289C9.37017 18.1967 13.4496 13.6285 18.5597 14.0236C19.1103 14.0662 19.5222 14.5471 19.4796 15.0978C19.437 15.6484 18.9561 16.0603 18.4055 16.0177C14.6458 15.727 11.5155 19.108 12.0623 23.0544C12.1381 23.6015 11.7561 24.1064 11.209 24.1822C10.662 24.258 10.1571 23.8759 10.0813 23.3289Z" fill="#F3FCFF"/>
<path d="M68 56.5C68 57.3284 67.3284 58 66.5 58C65.6716 58 65 57.3284 65 56.5C65 55.6716 65.6716 55 66.5 55C67.3284 55 68 55.6716 68 56.5Z" fill="#EFAF09"/>
<path d="M74 56.5C74 57.3284 73.3284 58 72.5 58C71.6716 58 71 57.3284 71 56.5C71 55.6716 71.6716 55 72.5 55C73.3284 55 74 55.6716 74 56.5Z" fill="#EFAF09"/>
<path d="M61 58.5C61 59.3284 60.3284 60 59.5 60C58.6716 60 58 59.3284 58 58.5C58 57.6716 58.6716 57 59.5 57C60.3284 57 61 57.6716 61 58.5Z" fill="#EFAF09"/>
<path d="M70 42.5C70 43.3284 69.3284 44 68.5 44C67.6716 44 67 43.3284 67 42.5C67 41.6716 67.6716 41 68.5 41C69.3284 41 70 41.6716 70 42.5Z" fill="#EFAF09"/>
<path d="M74 52C74 52.5523 73.5523 53 73 53C72.4477 53 72 52.5523 72 52C72 51.4477 72.4477 51 73 51C73.5523 51 74 51.4477 74 52Z" fill="#EFAF09"/>
<path d="M67 51C67 51.5523 66.5523 52 66 52C65.4477 52 65 51.5523 65 51C65 50.4477 65.4477 50 66 50C66.5523 50 67 50.4477 67 51Z" fill="#EFAF09"/>
<path d="M73 47C73 47.5523 72.5523 48 72 48C71.4477 48 71 47.5523 71 47C71 46.4477 71.4477 46 72 46C72.5523 46 73 46.4477 73 47Z" fill="#EFAF09"/>
<path d="M63 53C63 53.5523 62.5523 54 62 54C61.4477 54 61 53.5523 61 53C61 52.4477 61.4477 52 62 52C62.5523 52 63 52.4477 63 53Z" fill="#EFAF09"/>
<path d="M55 57C55 57.5523 54.5523 58 54 58C53.4477 58 53 57.5523 53 57C53 56.4477 53.4477 56 54 56C54.5523 56 55 56.4477 55 57Z" fill="#EFAF09"/>
<path d="M48 59.5C48 59.7761 47.7761 60 47.5 60C47.2239 60 47 59.7761 47 59.5C47 59.2239 47.2239 59 47.5 59C47.7761 59 48 59.2239 48 59.5Z" fill="#EFAF09"/>
<path d="M52 59.5C52 59.7761 51.7761 60 51.5 60C51.2239 60 51 59.7761 51 59.5C51 59.2239 51.2239 59 51.5 59C51.7761 59 52 59.2239 52 59.5Z" fill="#EFAF09"/>
<path d="M56 60.5C56 60.7761 55.7761 61 55.5 61C55.2239 61 55 60.7761 55 60.5C55 60.2239 55.2239 60 55.5 60C55.7761 60 56 60.2239 56 60.5Z" fill="#EFAF09"/>
<path d="M63 56.5C63 56.7761 62.7761 57 62.5 57C62.2239 57 62 56.7761 62 56.5C62 56.2239 62.2239 56 62.5 56C62.7761 56 63 56.2239 63 56.5Z" fill="#EFAF09"/>
<path d="M65 60.5C65 60.7761 64.7761 61 64.5 61C64.2239 61 64 60.7761 64 60.5C64 60.2239 64.2239 60 64.5 60C64.7761 60 65 60.2239 65 60.5Z" fill="#EFAF09"/>
<path d="M70 59.5C70 59.7761 69.7761 60 69.5 60C69.2239 60 69 59.7761 69 59.5C69 59.2239 69.2239 59 69.5 59C69.7761 59 70 59.2239 70 59.5Z" fill="#EFAF09"/>
<path d="M71 53.5C71 53.7761 70.7761 54 70.5 54C70.2239 54 70 53.7761 70 53.5C70 53.2239 70.2239 53 70.5 53C70.7761 53 71 53.2239 71 53.5Z" fill="#EFAF09"/>
<path d="M75 48.5C75 48.7761 74.7761 49 74.5 49C74.2239 49 74 48.7761 74 48.5C74 48.2239 74.2239 48 74.5 48C74.7761 48 75 48.2239 75 48.5Z" fill="#EFAF09"/>
<path d="M72 39.5C72 39.7761 71.7761 40 71.5 40C71.2239 40 71 39.7761 71 39.5C71 39.2239 71.2239 39 71.5 39C71.7761 39 72 39.2239 72 39.5Z" fill="#EFAF09"/>
<path d="M70 49.5C70 49.7761 69.7761 50 69.5 50C69.2239 50 69 49.7761 69 49.5C69 49.2239 69.2239 49 69.5 49C69.7761 49 70 49.2239 70 49.5Z" fill="#EFAF09"/>
<path d="M65 48.5C65 48.7761 64.7761 49 64.5 49C64.2239 49 64 48.7761 64 48.5C64 48.2239 64.2239 48 64.5 48C64.7761 48 65 48.2239 65 48.5Z" fill="#EFAF09"/>
<path d="M68 46.5C68 46.7761 67.7761 47 67.5 47C67.2239 47 67 46.7761 67 46.5C67 46.2239 67.2239 46 67.5 46C67.7761 46 68 46.2239 68 46.5Z" fill="#EFAF09"/>
<path d="M72 43.5C72 43.7761 71.7761 44 71.5 44C71.2239 44 71 43.7761 71 43.5C71 43.2239 71.2239 43 71.5 43C71.7761 43 72 43.2239 72 43.5Z" fill="#EFAF09"/>
<path d="M68 37.5C68 37.7761 67.7761 38 67.5 38C67.2239 38 67 37.7761 67 37.5C67 37.2239 67.2239 37 67.5 37C67.7761 37 68 37.2239 68 37.5Z" fill="#EFAF09"/>
<path d="M58 54.5C58 54.7761 57.7761 55 57.5 55C57.2239 55 57 54.7761 57 54.5C57 54.2239 57.2239 54 57.5 54C57.7761 54 58 54.2239 58 54.5Z" fill="#EFAF09"/>
<path d="M31 38C31 40.7614 28.7614 43 26 43C23.2386 43 21 40.7614 21 38C21 35.2386 23.2386 33 26 33C28.7614 33 31 35.2386 31 38Z" fill="#FFE6A5"/>
<path fill-rule="evenodd" clip-rule="evenodd" d="M33 38C33 41.866 29.866 45 26 45C22.134 45 19 41.866 19 38C19 34.134 22.134 31 26 31C29.866 31 33 34.134 33 38ZM26 43C28.7614 43 31 40.7614 31 38C31 35.2386 28.7614 33 26 33C23.2386 33 21 35.2386 21 38C21 40.7614 23.2386 43 26 43Z" fill="#8F3400"/>
<path fill-rule="evenodd" clip-rule="evenodd" d="M30.6918 36.2677C29.8619 35.376 28.6779 34.8182 27.3636 34.8182C24.8533 34.8182 22.8182 36.8533 22.8182 39.3636C22.8182 40.6779 23.376 41.8619 24.2677 42.6918C22.3601 41.9872 21 40.1525 21 38C21 35.2386 23.2386 33 26 33C28.1525 33 29.9872 34.3601 30.6918 36.2677Z" fill="#EA9F2F"/>
<path fill-rule="evenodd" clip-rule="evenodd" d="M25.0048 40.0467C26.3721 40.4131 27.8482 39.5676 28.2502 38.0673C28.3931 37.5339 28.9415 37.2173 29.4749 37.3602C30.0084 37.5032 30.325 38.0515 30.182 38.585C29.5114 41.0877 26.9848 42.6478 24.4871 41.9785C23.9537 41.8356 23.6371 41.2873 23.78 40.7538C23.923 40.2203 24.4713 39.9037 25.0048 40.0467Z" fill="#FFF7E3"/>
<path d="M53 38C53 41.866 49.866 45 46 45C42.134 45 39 41.866 39 38C39 34.134 42.134 31 46 31C49.866 31 53 34.134 53 38Z" fill="#FFE6A5"/>
<path fill-rule="evenodd" clip-rule="evenodd" d="M55 38C55 42.9706 50.9706 47 46 47C41.0294 47 37 42.9706 37 38C37 33.0294 41.0294 29 46 29C50.9706 29 55 33.0294 55 38ZM46 45C49.866 45 53 41.866 53 38C53 34.134 49.866 31 46 31C42.134 31 39 34.134 39 38C39 41.866 42.134 45 46 45Z" fill="#8F3400"/>
<path fill-rule="evenodd" clip-rule="evenodd" d="M52.5685 35.5749C51.4067 34.3264 49.7491 33.5455 47.9091 33.5455C44.3945 33.5455 41.5454 36.3946 41.5454 39.9091C41.5454 41.7491 42.3263 43.4066 43.5748 44.5685C40.9041 43.5821 39 41.0134 39 38C39 34.134 42.134 31 46 31C49.0134 31 51.5821 32.9041 52.5685 35.5749Z" fill="#EA9F2F"/>
<path fill-rule="evenodd" clip-rule="evenodd" d="M44.5036 41.2517C46.6439 41.8252 48.9205 40.4987 49.537 38.1978C49.68 37.6643 50.2283 37.3477 50.7618 37.4907C51.2952 37.6336 51.6118 38.182 51.4689 38.7154C50.5838 42.0188 47.2566 44.0599 43.986 43.1836C43.4525 43.0406 43.1359 42.4923 43.2789 41.9588C43.4218 41.4254 43.9701 41.1088 44.5036 41.2517Z" fill="#FFF7E3"/>
<path d="M70 39C70 41.7614 67.7614 44 65 44C62.2386 44 60 41.7614 60 39C60 36.2386 62.2386 34 65 34C67.7614 34 70 36.2386 70 39Z" fill="#FFE6A5"/>
<path fill-rule="evenodd" clip-rule="evenodd" d="M72 39C72 42.866 68.866 46 65 46C61.134 46 58 42.866 58 39C58 35.134 61.134 32 65 32C68.866 32 72 35.134 72 39ZM65 44C67.7614 44 70 41.7614 70 39C70 36.2386 67.7614 34 65 34C62.2386 34 60 36.2386 60 39C60 41.7614 62.2386 44 65 44Z" fill="#8F3400"/>
<path fill-rule="evenodd" clip-rule="evenodd" d="M69.6918 37.2677C68.8619 36.376 67.6779 35.8182 66.3636 35.8182C63.8533 35.8182 61.8182 37.8533 61.8182 40.3636C61.8182 41.6779 62.376 42.8619 63.2677 43.6918C61.3601 42.9872 60 41.1525 60 39C60 36.2386 62.2386 34 65 34C67.1525 34 68.9872 35.3601 69.6918 37.2677Z" fill="#EA9F2F"/>
<path fill-rule="evenodd" clip-rule="evenodd" d="M64.0048 41.0467C65.3721 41.4131 66.8482 40.5676 67.2502 39.0673C67.3931 38.5339 67.9415 38.2173 68.4749 38.3602C69.0084 38.5032 69.325 39.0515 69.182 39.585C68.5114 42.0877 65.9848 43.6478 63.4871 42.9785C62.9537 42.8356 62.6371 42.2873 62.78 41.7538C62.923 41.2203 63.4713 40.9037 64.0048 41.0467Z" fill="#FFF7E3"/>
</svg>
