<svg width="239" height="217" viewBox="0 0 239 217" fill="none" xmlns="http://www.w3.org/2000/svg">
<path d="M30.9974 178.295L35.9974 179.795L54.4974 185.295L57.9974 198.795L75.9974 194.795L82.4974 205.295L97.9974 201.795L121.497 215.795L142.997 198.795L156.997 205.295L163.997 194.295L181.497 198.795L185.997 178.295L204.497 179.795V153.795H217.997L209.997 131.795L221.497 124.795L209.997 111.295L213.997 100.795L204.497 92.7947L213.997 73.2947L192.497 59.2947L200.997 41.2947L181.497 35.7947V23.7947L163.997 27.7947V8.7947L142.997 15.2947L136.997 0.794701L117.997 15.2947L99.4974 0.794701L91.9974 18.2947L72.9974 8.7947L67.9974 27.7947L54.4974 23.7947V35.7947L33.9974 41.2947L42.9974 59.2947L21.4974 73.2947L28.9974 105.295L14.9974 124.795L28.9974 131.795L20.4974 153.795L33.9974 158.295L30.9974 178.295Z" fill="#917466" stroke="#927463"/>
<path d="M194.5 125.795V84.7947C201.5 81.7947 233.185 67.9401 237 75.7947C245.5 93.2947 205.5 125.795 194.5 125.795Z" fill="#D69368" stroke="#D49267"/>
<path d="M43.5 86.7947C41.7415 106.795 39.9593 103.295 41.4974 124.795C27.8316 119.961 0.5 103.695 0.5 77.2947C2.7801 67.9512 44.0108 80.9862 43.5 86.7947Z" fill="#D59466" stroke="#D49267"/>
<path d="M59.4973 65.7947C44.4974 55.2947 61.4973 29.7947 75.9973 50.2947C92.7575 41.8947 111.647 56.128 118.997 64.2947C135.497 42.2947 154.497 50.2947 161.497 50.2947C177.497 30.7947 192.997 55.7947 178.497 66.2947C211.997 149.295 148.497 190.795 118.497 187.295C43.9974 185.295 41.9974 100.295 59.4973 65.7947Z" fill="#F8B789" stroke="#F5B484"/>
<path d="M124.582 146.795H145.582C142.082 164.295 121.497 151.295 124.582 146.795Z" fill="#D69567" stroke="#D59265"/>
<path d="M107.497 162.295H129.497C125.997 179.795 106.497 167.795 107.497 162.295Z" fill="#D68D5B" stroke="#D59265"/>
<path d="M91.9974 146.295H112.997C109.497 163.795 90.4974 150.795 91.9974 146.295Z" fill="#D59265" stroke="#D59265"/>
<path d="M61.9975 203.795C67.4974 196.462 50.4254 169.108 36.4975 181.295C24.4974 191.795 52.9974 215.795 61.9975 203.795Z" fill="#DC9551" stroke="#E29657"/>
<path d="M173.908 201.752C179.329 210.065 209.512 192.058 198.408 177.252C190.908 167.252 166.408 190.252 173.908 201.752Z" fill="#DF934E" stroke="#E29657"/>
<path d="M117.997 132.795C103.497 132.295 103.951 111.922 102.997 100.795C101.497 83.2947 118.507 85.1533 119.497 85.2947C122.997 85.7947 134.497 83.2947 134.497 103.295C134.497 127.841 127.479 133.122 117.997 132.795Z" fill="#DD893E" stroke="#DC8B44"/>
<path d="M72.4974 83.7366C74.9974 70.9947 93.4974 68.9559 96.4974 86.7947" stroke="#75421C" stroke-width="4" stroke-linecap="round"/>
<path d="M140.497 85.7366C143.206 72.9947 163.247 70.9559 166.497 88.7947" stroke="#75421C" stroke-width="4" stroke-linecap="round"/>
<path d="M126.497 86.7947C127.997 95.7947 114.497 104.295 111.997 86.7947C114.997 81.7947 124.497 82.7947 126.497 86.7947Z" fill="#693B21" stroke="#6D3B19"/>
<path d="M109.497 118.295C108.697 119.095 102.612 99.4996 107.997 101.295C110.997 102.295 126.997 101.795 129.497 101.295C131.718 100.851 127.233 116.974 126.903 119.183C126.935 119.22 126.967 119.258 126.997 119.295C126.886 119.518 126.861 119.461 126.903 119.183C124.465 116.364 116.998 112.768 109.497 118.295Z" fill="#A53C05"/>
<path d="M107.997 101.295C102.612 99.4996 108.697 119.095 109.497 118.295C117.097 112.695 124.664 116.461 126.997 119.295C125.997 121.295 131.997 100.795 129.497 101.295C126.997 101.795 110.997 102.295 107.997 101.295Z" stroke="#A43E00"/>
<path d="M127.497 117.545C127.855 112.545 109.997 112.545 108.997 117.545C107.104 127.014 126.497 131.545 127.497 117.545Z" fill="#FF4643" stroke="#FF4643"/>
</svg>
