<svg width="96" height="96" viewBox="0 0 96 96" fill="none" xmlns="http://www.w3.org/2000/svg">
<path fill-rule="evenodd" clip-rule="evenodd" d="M62.1652 15.0422L67.4358 17.947L73.8709 21.4936C74.8382 22.0267 75.1902 23.2432 74.6571 24.2105L71.498 29.9425C70.9649 30.9099 69.7485 31.2619 68.7811 30.7287L63.9977 28.0925C63.0366 27.5628 61.8281 27.9065 61.2897 28.8628L46.9406 54.3472C46.4846 55.1571 46.6557 56.1667 47.2832 56.8524C50.2127 60.054 52 64.3183 52 68.9999C52 78.941 43.9411 86.9999 34 86.9999C24.0589 86.9999 16 78.941 16 68.9999C16 59.0588 24.0589 50.9999 34 50.9999C35.254 50.9999 36.4781 51.1282 37.6598 51.3722C38.5773 51.5617 39.54 51.1858 39.9997 50.3695L59.4571 15.8126C59.9955 14.8563 61.204 14.5125 62.1652 15.0422ZM34 78C38.9706 78 43 73.9706 43 69C43 64.0294 38.9706 60 34 60C29.0294 60 25 64.0294 25 69C25 73.9706 29.0294 78 34 78Z" fill="#F7B307"/>
<path fill-rule="evenodd" clip-rule="evenodd" d="M63.1305 13.2906L74.8362 19.742C76.771 20.8083 77.475 23.2411 76.4087 25.1759L73.2496 30.9078C72.1833 32.8426 69.7505 33.5466 67.8157 32.4803L63.0324 29.8441L48.6837 55.3278C48.6837 55.3277 48.6837 55.3278 48.6837 55.3278C48.6833 55.33 48.682 55.3397 48.6846 55.3571C48.6901 55.3953 48.7116 55.4508 48.7587 55.5023C52.0123 59.0581 54 63.7992 54 68.9999C54 80.0456 45.0457 88.9999 34 88.9999C22.9543 88.9999 14 80.0456 14 68.9999C14 57.9542 22.9543 48.9999 34 48.9999C35.3907 48.9999 36.7503 49.1422 38.0644 49.4136C38.1342 49.428 38.1944 49.4177 38.231 49.4024C38.2477 49.3954 38.2555 49.3892 38.2572 49.3876C38.2572 49.3877 38.2573 49.3876 38.2572 49.3876L57.7143 14.8313C58.7912 12.9187 61.2082 12.2312 63.1305 13.2906ZM34 76C37.866 76 41 72.866 41 69C41 65.134 37.866 62 34 62C30.134 62 27 65.134 27 69C27 72.866 30.134 76 34 76ZM62.1652 15.0422C61.204 14.5125 59.9955 14.8562 59.4571 15.8125L39.9997 50.3695C39.54 51.1858 38.5773 51.5617 37.6598 51.3722C36.4781 51.1281 35.254 50.9999 34 50.9999C24.0589 50.9999 16 59.0588 16 68.9999C16 78.941 24.0589 86.9999 34 86.9999C43.9411 86.9999 52 78.941 52 68.9999C52 64.3182 50.2127 60.054 47.2832 56.8524C46.6557 56.1667 46.4846 55.1571 46.9406 54.3472L61.2897 28.8628C61.8281 27.9065 63.0366 27.5627 63.9977 28.0925L68.7811 30.7287C69.7485 31.2619 70.9649 30.9099 71.498 29.9425L74.6571 24.2105C75.1902 23.2431 74.8382 22.0267 73.8709 21.4936L62.1652 15.0422ZM43 69C43 73.9706 38.9706 78 34 78C29.0294 78 25 73.9706 25 69C25 64.0294 29.0294 60 34 60C38.9706 60 43 64.0294 43 69Z" fill="#5B3303"/>
<path fill-rule="evenodd" clip-rule="evenodd" d="M20.3115 80.6889C23.613 84.5514 28.5206 86.9997 34 86.9997C43.9412 86.9997 52 78.9409 52 68.9997C52 64.3181 50.2127 60.0539 47.2832 56.8522C46.6558 56.1665 46.4846 55.1569 46.9406 54.3471L61.2897 28.8626C61.8281 27.9063 63.0366 27.5626 63.9978 28.0923L68.7811 30.7285C69.7485 31.2617 70.9649 30.9097 71.4981 29.9423L74.6571 24.2104C75.1903 23.243 74.8383 22.0266 73.8709 21.4934L72.8835 20.9492C72.9465 21.3683 72.8773 21.8106 72.657 22.2103L69.4979 27.9423C68.9648 28.9097 67.7483 29.2617 66.781 28.7285L61.9976 26.0923C61.0365 25.5625 59.828 25.9063 59.2895 26.8626L44.9405 52.347C44.4845 53.1569 44.6556 54.1665 45.283 54.8522C48.2126 58.0538 49.9999 62.318 49.9999 66.9997C49.9999 76.9408 41.941 84.9997 31.9999 84.9997C27.5386 84.9997 23.4564 83.3767 20.3115 80.6889ZM26.7148 74.2853C25.6362 72.8012 25 70.9748 25 68.9998C25 64.0293 29.0295 59.9998 34 59.9998C35.9748 59.9998 37.8011 60.6359 39.2851 61.7143C37.6492 59.4633 34.9954 57.9998 31.9999 57.9998C27.0293 57.9998 22.9999 62.0292 22.9999 66.9998C22.9999 69.9955 24.4636 72.6494 26.7148 74.2853Z" fill="#DC9E00"/>
<path fill-rule="evenodd" clip-rule="evenodd" d="M20.7812 81.2171C24.0695 84.7732 28.7748 86.9998 34.0002 86.9998C43.9413 86.9998 52.0002 78.9409 52.0002 68.9998C52.0002 64.3181 50.2129 60.0539 47.2833 56.8523C46.6559 56.1666 46.4847 55.157 46.9407 54.3471L61.2898 28.8627C61.8283 27.9064 63.0368 27.5626 63.9979 28.0924L68.7813 30.7286C69.7486 31.2617 70.9651 30.9097 71.4982 29.9424L74.6573 24.2104C75.1904 23.243 74.8384 22.0266 73.871 21.4934L73.7243 21.4126C73.9783 21.9687 73.9749 22.6337 73.6572 23.2102L70.4981 28.9421C69.965 29.9095 68.7485 30.2615 67.7812 29.7284L62.9978 27.0921C62.0367 26.5624 60.8282 26.9062 60.2897 27.8625L45.9407 53.3469C45.4846 54.1568 45.6558 55.1664 46.2832 55.8521C49.2128 59.0537 51.0001 63.3179 51.0001 67.9996C51.0001 77.9407 42.9412 85.9996 33.0001 85.9996C28.2836 85.9996 23.9907 84.1855 20.7812 81.2171ZM27.1554 74.8438C25.8116 73.2714 25.0002 71.2304 25.0002 68.9999C25.0002 64.0293 29.0296 59.9999 34.0002 59.9999C36.2311 59.9999 38.2724 60.8116 39.8449 62.1557C38.1942 60.2241 35.7401 58.9997 33.0001 58.9997C28.0295 58.9997 24.0001 63.0291 24.0001 67.9997C24.0001 70.7393 25.2242 73.1931 27.1554 74.8438Z" fill="#B97D08"/>
<path d="M46.6633 72.6937C46.7021 73.3656 46.1918 73.9417 45.5235 73.9803C44.8552 74.0189 44.282 73.5055 44.2431 72.8335C44.2043 72.1615 44.7146 71.5855 45.3829 71.5469C46.0512 71.5082 46.6245 72.0217 46.6633 72.6937Z" fill="#D99D03"/>
<path d="M47.8612 69.0011C47.8836 69.3903 47.5881 69.7239 47.2011 69.7462C46.8141 69.7686 46.4821 69.4712 46.4597 69.0821C46.4372 68.693 46.7327 68.3594 47.1197 68.337C47.5067 68.3147 47.8387 68.612 47.8612 69.0011Z" fill="#D99D03"/>
<path d="M49.0174 72.5011C49.0399 72.8903 48.7444 73.2239 48.3574 73.2462C47.9703 73.2686 47.6384 72.9712 47.6159 72.5821C47.5934 72.193 47.8889 71.8594 48.2759 71.837C48.663 71.8147 48.9949 72.112 49.0174 72.5011Z" fill="#D99D03"/>
<path d="M42.7987 75.7511C42.8211 76.1403 42.5256 76.4739 42.1386 76.4962C41.7516 76.5186 41.4196 76.2212 41.3972 75.8321C41.3747 75.443 41.6702 75.1094 42.0572 75.087C42.4442 75.0647 42.7762 75.362 42.7987 75.7511Z" fill="#D99D03"/>
<path d="M43.1805 79.9989C43.194 80.234 43.0155 80.4356 42.7817 80.4491C42.5478 80.4626 42.3473 80.283 42.3337 80.0478C42.3201 79.8127 42.4986 79.6112 42.7325 79.5977C42.9663 79.5842 43.1669 79.7638 43.1805 79.9989Z" fill="#D99D03"/>
<path d="M40.8714 79.4257C40.885 79.6608 40.7064 79.8623 40.4726 79.8759C40.2387 79.8894 40.0382 79.7097 40.0246 79.4746C40.011 79.2395 40.1896 79.0379 40.4234 79.0244C40.6572 79.0109 40.8578 79.1906 40.8714 79.4257Z" fill="#D99D03"/>
<path d="M47.8714 75.4257C47.885 75.6608 47.7064 75.8623 47.4726 75.8759C47.2387 75.8894 47.0382 75.7097 47.0246 75.4746C47.011 75.2395 47.1896 75.0379 47.4234 75.0244C47.6572 75.0109 47.8578 75.1906 47.8714 75.4257Z" fill="#D99D03"/>
<path d="M45.8714 75.4257C45.885 75.6608 45.7064 75.8623 45.4726 75.8759C45.2387 75.8894 45.0382 75.7097 45.0246 75.4746C45.011 75.2395 45.1896 75.0379 45.4234 75.0244C45.6572 75.0109 45.8578 75.1906 45.8714 75.4257Z" fill="#D99D03"/>
<path d="M35.8714 81.4257C35.885 81.6608 35.7064 81.8623 35.4726 81.8759C35.2387 81.8894 35.0382 81.7097 35.0246 81.4746C35.011 81.2395 35.1896 81.0379 35.4234 81.0244C35.6572 81.0109 35.8578 81.1906 35.8714 81.4257Z" fill="#D99D03"/>
<path d="M49.8714 69.4257C49.885 69.6608 49.7064 69.8623 49.4726 69.8759C49.2387 69.8894 49.0382 69.7097 49.0246 69.4746C49.011 69.2395 49.1896 69.0379 49.4234 69.0244C49.6572 69.0109 49.8578 69.1906 49.8714 69.4257Z" fill="#D99D03"/>
<path d="M46.8714 66.4257C46.885 66.6608 46.7064 66.8623 46.4726 66.8759C46.2387 66.8894 46.0382 66.7097 46.0246 66.4746C46.011 66.2395 46.1896 66.0379 46.4234 66.0244C46.6572 66.0109 46.8578 66.1906 46.8714 66.4257Z" fill="#D99D03"/>
<path d="M45.2049 77.5636C45.2274 77.9528 44.9319 78.2864 44.5449 78.3087C44.1578 78.3311 43.8259 78.0337 43.8034 77.6446C43.7809 77.2555 44.0764 76.9219 44.4634 76.8995C44.8505 76.8772 45.1824 77.1745 45.2049 77.5636Z" fill="#D99D03"/>
<path d="M39.3924 81.6574C39.4149 82.0465 39.1194 82.3801 38.7324 82.4025C38.3453 82.4248 38.0134 82.1275 37.9909 81.7384C37.9684 81.3492 38.2639 81.0156 38.6509 80.9933C39.038 80.9709 39.3699 81.2682 39.3924 81.6574Z" fill="#D99D03"/>
<path fill-rule="evenodd" clip-rule="evenodd" d="M44.9062 67.9531C45.4585 67.9531 45.9062 68.4008 45.9062 68.9531C45.9062 75.5547 40.5547 80.9062 33.9531 80.9062C33.4008 80.9062 32.9531 80.4585 32.9531 79.9062C32.9531 79.354 33.4008 78.9062 33.9531 78.9062C39.4501 78.9062 43.9062 74.4501 43.9062 68.9531C43.9062 68.4008 44.354 67.9531 44.9062 67.9531Z" fill="#FFE195"/>
<path fill-rule="evenodd" clip-rule="evenodd" d="M33.5 54C25.4919 54 19 60.4919 19 68.5C19 69.0523 18.5523 69.5 18 69.5C17.4477 69.5 17 69.0523 17 68.5C17 59.3873 24.3873 52 33.5 52C34.0523 52 34.5 52.4477 34.5 53C34.5 53.5523 34.0523 54 33.5 54Z" fill="#FFE195"/>
<path fill-rule="evenodd" clip-rule="evenodd" d="M24.4623 55.8665C24.8121 56.2939 24.7493 56.9239 24.3219 57.2738C22.6312 58.6577 21.2593 60.4155 20.3322 62.4198C20.1003 62.9211 19.506 63.1394 19.0047 62.9076C18.5035 62.6757 18.2851 62.0814 18.517 61.5801C19.5725 59.2983 21.1332 57.2994 23.055 55.7262C23.4824 55.3763 24.1124 55.4392 24.4623 55.8665Z" fill="#FFF6E0"/>
<path fill-rule="evenodd" clip-rule="evenodd" d="M61.4963 16.1317C61.9758 16.4058 62.1424 17.0166 61.8684 17.4961L43.8684 48.9961C43.5944 49.4756 42.9835 49.6422 42.504 49.3682C42.0245 49.0942 41.8579 48.4834 42.1319 48.0038L60.1319 16.5038C60.4059 16.0243 61.0168 15.8577 61.4963 16.1317Z" fill="#FFE195"/>
<path fill-rule="evenodd" clip-rule="evenodd" d="M57.9963 22.2567C58.4758 22.5308 58.6424 23.1416 58.3684 23.6211L54.8684 29.7461C54.5944 30.2256 53.9835 30.3922 53.504 30.1182C53.0245 29.8442 52.8579 29.2334 53.1319 28.7538L56.6319 22.6288C56.9059 22.1493 57.5168 21.9827 57.9963 22.2567Z" fill="#FFF6E0"/>
<path fill-rule="evenodd" clip-rule="evenodd" d="M65.1364 24.4961C65.4147 24.0191 66.027 23.8579 66.504 24.1362L72.504 27.6362C72.9811 27.9145 73.1422 28.5268 72.8639 29.0039C72.5857 29.4809 71.9733 29.642 71.4963 29.3638L65.4963 25.8638C65.0192 25.5855 64.8581 24.9732 65.1364 24.4961Z" fill="#5B3303"/>
<path fill-rule="evenodd" clip-rule="evenodd" d="M69.126 22.5144C69.3942 22.0316 70.003 21.8576 70.4858 22.1258L74.9858 24.6258C75.4686 24.8941 75.6426 25.5029 75.3743 25.9856C75.1061 26.4684 74.4973 26.6424 74.0145 26.3742L69.5145 23.8742C69.0318 23.6059 68.8578 22.9971 69.126 22.5144Z" fill="#5B3303"/>
</svg>
