<svg width="228" height="177" viewBox="0 0 228 177" fill="none" xmlns="http://www.w3.org/2000/svg">
<path d="M45.0019 137.989L79.0019 123.489L25.5 127.489C9.5 73.4893 269.5 92.9893 179.5 138.989L158.002 138.489C158.002 138.489 156 139.989 138.502 147.489C138.502 147.489 59.5001 150.489 45.0019 137.989Z" fill="url(#paint0_radial_20_113)" stroke="#0C452A" stroke-width="2"/>
<ellipse cx="112" cy="116.489" rx="5" ry="3" fill="url(#paint1_linear_20_113)"/>
<ellipse cx="112" cy="116.489" rx="5" ry="3" fill="url(#paint2_linear_20_113)"/>
<ellipse cx="112" cy="99.4893" rx="5" ry="3" fill="url(#paint3_linear_20_113)"/>
<rect x="107" y="99.4893" width="10" height="17" fill="url(#paint4_linear_20_113)"/>
<path d="M97.5001 69.4893C59 46.9893 83 5.48935 83 5.48935C114.5 27.9893 110 58.9893 97.5001 69.4893Z" fill="url(#paint5_linear_20_113)" stroke="#A00353"/>
<path d="M111.412 67.6421C73 35.9893 110.535 2.02592 110.535 2.02592C141 25.4894 125.822 59.9704 111.412 67.6421Z" fill="url(#paint6_linear_20_113)" stroke="#A00353"/>
<path d="M121.204 68.2188C104.5 22.9894 139.55 5.21341 139.55 5.21341C154 37.4893 137.228 65.0954 121.204 68.2188Z" fill="url(#paint7_linear_20_113)" stroke="#A00353"/>
<path d="M133.671 71.1612C127.569 23.3333 165.72 13.8975 165.72 13.8975C172.539 48.5967 149.987 71.7223 133.671 71.1612Z" fill="url(#paint8_linear_20_113)" stroke="#A00353"/>
<path d="M87.7089 72.7592C44.6972 60.9904 57.1385 14.6929 57.1385 14.6929C93.3886 28.2734 97.0653 59.3818 87.7089 72.7592Z" fill="url(#paint9_linear_20_113)" stroke="#A00353"/>
<path d="M110.002 78.9894C146.001 36.4894 181.5 32.9894 181.5 32.9894C178.5 75.4894 127.5 88.9894 110.002 78.9894Z" fill="url(#paint10_linear_20_113)" stroke="#A00353"/>
<path d="M112 81.9894C43.5 84.4893 41.9997 33.9895 41.9997 33.9895C70.5 37.4894 113.413 67.2045 112 81.9894Z" fill="url(#paint11_linear_20_113)" stroke="#A00353"/>
<path d="M129 88.9893L114 81.9893C120.8 83.5893 142.833 78.4893 152 75.4893C165.333 77.156 176 87.9893 176 87.9893C164.167 96.656 133 107.489 129 88.9893Z" fill="url(#paint12_linear_20_113)"/>
<path d="M129 88.9893L114 81.9893C120.8 83.5893 142.833 78.4893 152 75.4893C165.333 77.156 176 87.9893 176 87.9893M129 88.9893C138.667 91.156 162.4 93.9893 176 87.9893M129 88.9893C133 107.489 164.167 96.656 176 87.9893" stroke="#A00353"/>
<path d="M108 81.9893L92.5 89.4893V95.4893C87.8333 99.656 72.1 103.989 46.5 87.9893C46.5 87.9893 57 77.656 71 75.9893C83.4 81.1893 101.333 81.9893 108 81.9893Z" fill="url(#paint13_linear_20_113)"/>
<path d="M92.5 89.4893L108 81.9893C101.333 81.9893 83.4 81.1893 71 75.9893C57 77.656 46.5 87.9893 46.5 87.9893M92.5 89.4893C84.5 91.656 63.5 94.4893 46.5 87.9893M92.5 89.4893V95.4893C87.8333 99.656 72.1 103.989 46.5 87.9893" stroke="#A00353"/>
<path d="M129 89.9893C129 89.5893 118.95 84.656 114 82.4893H111.5H108.5L93.5 89.9893V92.4893V95.9893C97 102.989 111.5 109.989 111.5 109.989C128 102.489 129 96.9893 129.5 95.9893C130 94.9893 129 90.4893 129 89.9893Z" fill="url(#paint14_linear_20_113)" stroke="#A00353"/>
<path d="M111 80.9894C121.5 28.4893 151.5 22.9893 151.5 22.9893C167 64.9894 125.256 88.2531 111 80.9894Z" fill="url(#paint15_linear_20_113)" stroke="#A00353"/>
<path d="M113.12 82.3688C56.5328 76.5839 70.1197 23.3688 70.1197 23.3688C100.12 34.3688 114.533 67.5839 113.12 82.3688Z" fill="url(#paint16_linear_20_113)" stroke="#A00353"/>
<path d="M111.501 81.4893C65.5 63.4893 111.001 19.4893 111.001 19.4893C145.501 45.9893 127.5 81.4893 111.501 81.4893Z" fill="url(#paint17_linear_20_113)" stroke="#A00353"/>
<path d="M23.4999 137.989C17.8332 132.489 10.1999 119.289 24.9999 110.489C24.9999 110.489 -9.5 123.989 23.4999 137.989Z" fill="url(#paint18_linear_20_113)"/>
<path d="M7.99998 113.489C9.49981 112.989 22 99.4893 53.9999 96.4894C53.9999 96.4894 18.5 93.9893 7.99998 113.489Z" fill="url(#paint19_linear_20_113)"/>
<path d="M47.5134 147.496C48.6062 147.815 106.241 159.373 159.501 150.99C97.5776 173.778 48.415 147.974 47.5134 147.496C47.4982 147.492 47.494 147.49 47.5008 147.49C47.5008 147.49 47.505 147.492 47.5134 147.496Z" fill="url(#paint20_linear_20_113)"/>
<path d="M190.961 149.268C169 160.489 142.5 161.989 120 162.489C120 162.489 170.5 173.489 190.961 149.268Z" fill="url(#paint21_linear_20_113)"/>
<path d="M222 122.989C218.5 130.989 221 133.489 205 145.989C205 145.989 229.5 140.489 222 122.989Z" fill="url(#paint22_linear_20_113)"/>
<path d="M199 110.489C201 116.489 222.5 129.489 180 145.989C180 145.989 242 132.489 199 110.489Z" fill="url(#paint23_linear_20_113)"/>
<path d="M175 97.4893C198.5 102.489 201.5 103.489 219 111.989C219 111.989 199 91.4893 175 97.4893Z" fill="url(#paint24_linear_20_113)"/>
<path d="M71 159.989C64.5002 160.489 4.5 158.989 0 130.489C0 130.489 23.5 152.294 71 159.989Z" fill="url(#paint25_linear_20_113)"/>
<defs>
<radialGradient id="paint0_radial_20_113" cx="0" cy="0" r="1" gradientUnits="userSpaceOnUse" gradientTransform="translate(111.639 121.332) scale(86.8509 26.4726)">
<stop stop-color="#21794B"/>
<stop offset="1" stop-color="#53AB42"/>
</radialGradient>
<linearGradient id="paint1_linear_20_113" x1="112" y1="113.489" x2="112" y2="119.489" gradientUnits="userSpaceOnUse">
<stop stop-color="#D9D9D9"/>
<stop offset="1" stop-color="#737373"/>
</linearGradient>
<linearGradient id="paint2_linear_20_113" x1="117" y1="116.489" x2="107" y2="116.489" gradientUnits="userSpaceOnUse">
<stop stop-color="#136E42"/>
<stop offset="1" stop-color="#6BB862"/>
</linearGradient>
<linearGradient id="paint3_linear_20_113" x1="117" y1="99.4893" x2="107" y2="99.4893" gradientUnits="userSpaceOnUse">
<stop stop-color="#136E42"/>
<stop offset="1" stop-color="#6BB862"/>
</linearGradient>
<linearGradient id="paint4_linear_20_113" x1="117" y1="107.989" x2="107" y2="107.989" gradientUnits="userSpaceOnUse">
<stop stop-color="#136E42"/>
<stop offset="1" stop-color="#6BB862"/>
</linearGradient>
<linearGradient id="paint5_linear_20_113" x1="108.8" y1="39.4893" x2="69" y2="39.4893" gradientUnits="userSpaceOnUse">
<stop stop-color="#FA4D9D"/>
<stop offset="1" stop-color="#FD9EC8"/>
</linearGradient>
<linearGradient id="paint6_linear_20_113" x1="128.702" y1="40.647" x2="89.7721" y2="32.3721" gradientUnits="userSpaceOnUse">
<stop stop-color="#FA4D9D"/>
<stop offset="1" stop-color="#FD9EC8"/>
</linearGradient>
<linearGradient id="paint7_linear_20_113" x1="145.632" y1="47.4583" x2="110.822" y2="28.163" gradientUnits="userSpaceOnUse">
<stop stop-color="#FA4D9D"/>
<stop offset="1" stop-color="#FD9EC8"/>
</linearGradient>
<linearGradient id="paint8_linear_20_113" x1="162.142" y1="56.4277" x2="132.565" y2="29.7964" gradientUnits="userSpaceOnUse">
<stop stop-color="#FA4D9D"/>
<stop offset="1" stop-color="#FD9EC8"/>
</linearGradient>
<linearGradient id="paint9_linear_20_113" x1="90.859" y1="40.8568" x2="52.4153" y2="51.1578" gradientUnits="userSpaceOnUse">
<stop stop-color="#FA4D9D"/>
<stop offset="1" stop-color="#FD9EC8"/>
</linearGradient>
<linearGradient id="paint10_linear_20_113" x1="179.408" y1="73.2208" x2="145.656" y2="52.1301" gradientUnits="userSpaceOnUse">
<stop stop-color="#FA4D9D"/>
<stop offset="1" stop-color="#FD9EC8"/>
</linearGradient>
<linearGradient id="paint11_linear_20_113" x1="91.8827" y1="55.3675" x2="58.5037" y2="77.0441" gradientUnits="userSpaceOnUse">
<stop stop-color="#FA4D9D"/>
<stop offset="1" stop-color="#FD9EC8"/>
</linearGradient>
<linearGradient id="paint12_linear_20_113" x1="146" y1="75.4893" x2="146" y2="99.1256" gradientUnits="userSpaceOnUse">
<stop stop-color="#FB52A1"/>
<stop offset="1" stop-color="#FEA3CD"/>
</linearGradient>
<linearGradient id="paint13_linear_20_113" x1="76.5" y1="75.9893" x2="76.5" y2="99.3498" gradientUnits="userSpaceOnUse">
<stop stop-color="#F94899"/>
<stop offset="1" stop-color="#FCA3CC"/>
</linearGradient>
<linearGradient id="paint14_linear_20_113" x1="111.64" y1="82.4893" x2="111.64" y2="109.989" gradientUnits="userSpaceOnUse">
<stop stop-color="#FA4A9D"/>
<stop offset="0.774038" stop-color="#FDA0CC"/>
</linearGradient>
<linearGradient id="paint15_linear_20_113" x1="153.536" y1="62.1793" x2="118.074" y2="44.1105" gradientUnits="userSpaceOnUse">
<stop stop-color="#FA4D9D"/>
<stop offset="1" stop-color="#FD9EC8"/>
</linearGradient>
<linearGradient id="paint16_linear_20_113" x1="105.883" y1="47.3675" x2="72.5036" y2="69.0441" gradientUnits="userSpaceOnUse">
<stop stop-color="#FA4D9D"/>
<stop offset="1" stop-color="#FD9EC8"/>
</linearGradient>
<linearGradient id="paint17_linear_20_113" x1="130.725" y1="50.4893" x2="90.9254" y2="50.4893" gradientUnits="userSpaceOnUse">
<stop stop-color="#FA4D9D"/>
<stop offset="1" stop-color="#FD9EC8"/>
</linearGradient>
<linearGradient id="paint18_linear_20_113" x1="17.1061" y1="110.489" x2="17.1061" y2="137.989" gradientUnits="userSpaceOnUse">
<stop stop-color="#D3F8FF"/>
<stop offset="1" stop-color="#3896CC"/>
</linearGradient>
<linearGradient id="paint19_linear_20_113" x1="46.1745" y1="99.3399" x2="18.8251" y2="102.214" gradientUnits="userSpaceOnUse">
<stop stop-color="#D3F8FF"/>
<stop offset="1" stop-color="#3896CC"/>
</linearGradient>
<linearGradient id="paint20_linear_20_113" x1="70.1623" y1="148.485" x2="128.309" y2="162.983" gradientUnits="userSpaceOnUse">
<stop stop-color="#D3F8FF"/>
<stop offset="1" stop-color="#3896CC"/>
</linearGradient>
<linearGradient id="paint21_linear_20_113" x1="135.376" y1="160.259" x2="173.656" y2="159.591" gradientUnits="userSpaceOnUse">
<stop stop-color="#D3F8FF"/>
<stop offset="1" stop-color="#3896CC"/>
</linearGradient>
<linearGradient id="paint22_linear_20_113" x1="208.993" y1="141.036" x2="221.021" y2="137.128" gradientUnits="userSpaceOnUse">
<stop stop-color="#D3F8FF"/>
<stop offset="1" stop-color="#3896CC"/>
</linearGradient>
<linearGradient id="paint23_linear_20_113" x1="199.129" y1="136.562" x2="211.157" y2="132.654" gradientUnits="userSpaceOnUse">
<stop stop-color="#D3F8FF"/>
<stop offset="1" stop-color="#3896CC"/>
</linearGradient>
<linearGradient id="paint24_linear_20_113" x1="200.895" y1="100.778" x2="197.622" y2="88.5623" gradientUnits="userSpaceOnUse">
<stop stop-color="#D3F8FF"/>
<stop offset="1" stop-color="#3896CC"/>
</linearGradient>
<linearGradient id="paint25_linear_20_113" x1="20.2876" y1="132.989" x2="20.2876" y2="159.989" gradientUnits="userSpaceOnUse">
<stop stop-color="#D3F8FF"/>
<stop offset="1" stop-color="#3896CC"/>
</linearGradient>
</defs>
</svg>
