<svg width="270" height="327" viewBox="0 0 270 327" fill="none" xmlns="http://www.w3.org/2000/svg">
<path d="M123.87 311.712V325.212H143.87V313.212C142.87 302.712 167.37 278.712 167.37 278.712C202.785 315.288 246.87 271.075 260.87 244.712C148.37 214.212 164.37 271.212 164.37 271.212C159.528 273.149 147.87 283.045 142.87 289.212V237.212H123.37L123.87 287.212C110.87 267.212 94.3701 266.712 94.3701 266.712C49.3704 221.712 20.3701 286.712 21.3702 314.212C103.87 307.712 101.87 278.712 101.87 278.712C114.545 285.754 122.037 303.212 123.87 311.712Z" fill="url(#paint0_linear_29_350)" stroke="#114A12" stroke-width="3"/>
<path d="M188.45 8.9864C165.598 18.5157 126.803 47.8744 154.434 89.0749C154.434 89.0749 209.62 86.8265 188.45 8.9864Z" fill="url(#paint1_linear_29_350)" stroke="#9C5900" stroke-width="3"/>
<path d="M230.648 43.3569C206.042 40.6128 157.877 47.4822 162.07 96.9128C162.07 96.9128 211.426 121.701 230.648 43.3569Z" fill="url(#paint2_linear_29_350)" stroke="#9C5900" stroke-width="3"/>
<path d="M259.44 85.7245C237.067 75.1188 189.29 65.9331 177.161 114.036C177.161 114.036 215.759 153.542 259.44 85.7245Z" fill="url(#paint3_linear_29_350)" stroke="#9C5900" stroke-width="3"/>
<path d="M267.26 133.321C249.559 116.009 207.376 91.7694 180.247 133.302C180.247 133.302 203.879 183.222 267.26 133.321Z" fill="url(#paint4_linear_29_350)" stroke="#9C5900" stroke-width="3"/>
<path d="M258.175 182.708C249.449 159.538 221.462 119.742 179.323 145.918C179.323 145.918 179.644 201.148 258.175 182.708Z" fill="url(#paint5_linear_29_350)" stroke="#9C5900" stroke-width="3"/>
<path d="M129.761 264.874C148.828 249.08 177.344 209.661 138.874 178.34C138.874 178.34 86.7576 196.625 129.761 264.874Z" fill="url(#paint6_linear_29_350)" stroke="#9C5900" stroke-width="3"/>
<path d="M184.361 259.37C195.356 237.186 205.374 189.577 157.49 176.61C157.49 176.61 117.316 214.512 184.361 259.37Z" fill="url(#paint7_linear_29_350)" stroke="#9C5900" stroke-width="3"/>
<path d="M228.223 225.149C228.812 200.397 217.771 153.015 168.894 161.499C168.894 161.499 148.502 212.828 228.223 225.149Z" fill="url(#paint8_linear_29_350)" stroke="#9C5900" stroke-width="3"/>
<path d="M81.8817 251.901C105.201 243.581 145.479 216.293 120.042 173.703C120.042 173.703 64.8148 173.06 81.8817 251.901Z" fill="url(#paint9_linear_29_350)" stroke="#9C5900" stroke-width="3"/>
<path d="M133.87 4.71196C116.87 22.712 93.3704 65.312 135.37 91.712C135.37 91.712 184.87 67.212 133.87 4.71196Z" fill="url(#paint10_linear_29_350)" stroke="#9C5900" stroke-width="3"/>
<path d="M41.7711 44.2429C41.6141 69.0013 53.4804 116.184 102.202 106.848C102.202 106.848 121.695 55.1706 41.7711 44.2429Z" fill="url(#paint11_linear_29_350)" stroke="#9C5900" stroke-width="3"/>
<path d="M2.27286 132.289C20.5668 148.972 63.5704 171.725 89.2334 129.271C89.2334 129.271 63.8733 80.206 2.27286 132.289Z" fill="url(#paint12_linear_29_350)" stroke="#9C5900" stroke-width="3"/>
<path d="M10.5096 182.686C33.5672 191.705 81.8685 197.535 90.6127 148.704C90.6127 148.704 49.3537 111.986 10.5096 182.686Z" fill="url(#paint13_linear_29_350)" stroke="#9C5900" stroke-width="3"/>
<path d="M34.7496 221.488C59.3559 224.232 107.52 217.363 103.328 167.932C103.328 167.932 53.9718 143.144 34.7496 221.488Z" fill="url(#paint14_linear_29_350)" stroke="#9C5900" stroke-width="3"/>
<path d="M11.9008 82.2605C20.2211 105.579 47.5092 145.858 90.0993 120.421C90.0993 120.421 90.7422 65.1936 11.9008 82.2605Z" fill="url(#paint15_linear_29_350)" stroke="#9C5900" stroke-width="3"/>
<path d="M84.4968 12.9767C75.0765 35.8734 68.4039 84.0656 117.075 93.6607C117.075 93.6607 154.507 53.0487 84.4968 12.9767Z" fill="url(#paint16_linear_29_350)" stroke="#9C5900" stroke-width="3"/>
<ellipse cx="133.87" cy="129.212" rx="62" ry="59.5" fill="url(#paint17_radial_29_350)"/>
<defs>
<linearGradient id="paint0_linear_29_350" x1="30.8704" y1="282.712" x2="261.87" y2="245.712" gradientUnits="userSpaceOnUse">
<stop stop-color="#5A9636"/>
<stop offset="0.288462" stop-color="#457D32"/>
<stop offset="0.447115" stop-color="#629E3E"/>
<stop offset="0.567308" stop-color="#3D762F"/>
<stop offset="1" stop-color="#5F9933"/>
</linearGradient>
<linearGradient id="paint1_linear_29_350" x1="188.892" y1="9.18332" x2="153.506" y2="88.6618" gradientUnits="userSpaceOnUse">
<stop stop-color="#FCD410"/>
<stop offset="1" stop-color="#DF8A0B"/>
</linearGradient>
<linearGradient id="paint2_linear_29_350" x1="230.939" y1="43.7436" x2="161.458" y2="96.1015" gradientUnits="userSpaceOnUse">
<stop stop-color="#FCD410"/>
<stop offset="1" stop-color="#DF8A0B"/>
</linearGradient>
<linearGradient id="paint3_linear_29_350" x1="259.589" y1="86.185" x2="176.847" y2="113.069" gradientUnits="userSpaceOnUse">
<stop stop-color="#FCD410"/>
<stop offset="1" stop-color="#DF8A0B"/>
</linearGradient>
<linearGradient id="paint4_linear_29_350" x1="267.251" y1="133.805" x2="180.264" y2="132.287" gradientUnits="userSpaceOnUse">
<stop stop-color="#FCD410"/>
<stop offset="1" stop-color="#DF8A0B"/>
</linearGradient>
<linearGradient id="paint5_linear_29_350" x1="257.963" y1="183.143" x2="179.768" y2="145.005" gradientUnits="userSpaceOnUse">
<stop stop-color="#FCD410"/>
<stop offset="1" stop-color="#DF8A0B"/>
</linearGradient>
<linearGradient id="paint6_linear_29_350" x1="129.28" y1="264.815" x2="139.883" y2="178.464" gradientUnits="userSpaceOnUse">
<stop stop-color="#FCD410"/>
<stop offset="1" stop-color="#DF8A0B"/>
</linearGradient>
<linearGradient id="paint7_linear_29_350" x1="183.898" y1="259.512" x2="158.462" y2="176.313" gradientUnits="userSpaceOnUse">
<stop stop-color="#FCD410"/>
<stop offset="1" stop-color="#DF8A0B"/>
</linearGradient>
<linearGradient id="paint8_linear_29_350" x1="227.863" y1="225.473" x2="169.649" y2="160.82" gradientUnits="userSpaceOnUse">
<stop stop-color="#FCD410"/>
<stop offset="1" stop-color="#DF8A0B"/>
</linearGradient>
<linearGradient id="paint9_linear_29_350" x1="81.4503" y1="251.681" x2="120.947" y2="174.164" gradientUnits="userSpaceOnUse">
<stop stop-color="#FCD410"/>
<stop offset="1" stop-color="#DF8A0B"/>
</linearGradient>
<linearGradient id="paint10_linear_29_350" x1="134.355" y1="4.71196" x2="134.355" y2="91.712" gradientUnits="userSpaceOnUse">
<stop stop-color="#FCD410"/>
<stop offset="1" stop-color="#DF8A0B"/>
</linearGradient>
<linearGradient id="paint11_linear_29_350" x1="42.1252" y1="43.9127" x2="101.459" y2="107.541" gradientUnits="userSpaceOnUse">
<stop stop-color="#FCD410"/>
<stop offset="1" stop-color="#DF8A0B"/>
</linearGradient>
<linearGradient id="paint12_linear_29_350" x1="2.26441" y1="131.805" x2="89.2512" y2="130.287" gradientUnits="userSpaceOnUse">
<stop stop-color="#FCD410"/>
<stop offset="1" stop-color="#DF8A0B"/>
</linearGradient>
<linearGradient id="paint13_linear_29_350" x1="10.3283" y1="182.237" x2="90.9932" y2="149.646" gradientUnits="userSpaceOnUse">
<stop stop-color="#FCD410"/>
<stop offset="1" stop-color="#DF8A0B"/>
</linearGradient>
<linearGradient id="paint14_linear_29_350" x1="34.4582" y1="221.101" x2="103.939" y2="168.744" gradientUnits="userSpaceOnUse">
<stop stop-color="#FCD410"/>
<stop offset="1" stop-color="#DF8A0B"/>
</linearGradient>
<linearGradient id="paint15_linear_29_350" x1="12.1206" y1="81.8291" x2="89.6381" y2="121.326" gradientUnits="userSpaceOnUse">
<stop stop-color="#FCD410"/>
<stop offset="1" stop-color="#DF8A0B"/>
</linearGradient>
<linearGradient id="paint16_linear_29_350" x1="84.9488" y1="12.8032" x2="116.127" y2="94.0247" gradientUnits="userSpaceOnUse">
<stop stop-color="#FCD410"/>
<stop offset="1" stop-color="#DF8A0B"/>
</linearGradient>
<radialGradient id="paint17_radial_29_350" cx="0" cy="0" r="1" gradientUnits="userSpaceOnUse" gradientTransform="translate(133.87 129.212) rotate(90) scale(59.5 62)">
<stop stop-color="#412710"/>
<stop offset="1" stop-color="#733F18"/>
</radialGradient>
</defs>
</svg>
