<svg width="96" height="96" viewBox="0 0 96 96" fill="none" xmlns="http://www.w3.org/2000/svg">
<g clip-path="url(#clip0_201_8347)">
<path d="M61.3115 7.58254C63.5154 7.07109 65.4708 9.09032 64.8888 11.2766L56.7513 41.8337C56.5573 42.5625 57.2097 43.2351 57.9443 43.0645L71.5732 39.901C74.2836 39.2719 76.3161 42.3518 74.6721 44.5963L42.9834 87.8473C41.2995 90.1455 37.6602 89.0223 37.5645 86.1748L36.6479 58.8773C36.6266 58.2479 36.0355 57.7944 35.422 57.9367L20.3006 61.4467C18.3632 61.8964 16.5321 60.3707 16.6252 58.384L18.4344 19.7788C18.4973 18.4371 19.4447 17.3007 20.7531 16.9969L61.3115 7.58254Z" fill="#FFB547" stroke="#604104" stroke-width="2" stroke-linecap="round" stroke-linejoin="round"/>
<path d="M19.4334 19.8259C19.4753 18.9314 20.1067 18.1738 20.979 17.9713L37.1332 14.2216L35.9837 44.0404L18.1133 47.9948L19.4334 19.8259Z" fill="#FFC369"/>
<path d="M40.0002 85.6541L39.5276 58.6278" stroke="#FFE7A9" stroke-width="2" stroke-linecap="round" stroke-linejoin="round"/>
<path d="M73.8651 44.0058L42.1766 87.2562L63.8804 44.6267L62.1538 43.1504L71.7996 40.8756C73.6066 40.4561 74.9615 42.5094 73.8651 44.0058Z" fill="#C87719"/>
<path d="M63.9225 11.0195L55.7854 41.5763C55.3989 43.028 56.6905 44.3693 58.1525 44.0432L48.2778 46.2906L53.6762 10.3814L61.5376 8.55661C63.007 8.21555 64.3107 9.56185 63.9225 11.0195Z" fill="#C87719"/>
<path d="M18.4349 19.7792C18.4978 18.4374 19.4444 17.3008 20.7528 16.9971L50.5829 10.0733C52.646 9.5948 54.5424 11.3469 54.2277 13.4413L49.4837 44.9936L60.2909 42.5588C62.7625 42.0022 64.7687 44.5709 63.6302 46.8342L43.07 87.7056C43.0451 87.7551 43.0164 87.8026 42.9837 87.8473C41.2999 90.1454 37.6608 89.0227 37.5647 86.1755L36.6479 58.8773C36.6266 58.2481 36.0355 57.7946 35.4222 57.9368L20.3005 61.4466C18.3631 61.8963 16.5321 60.371 16.6252 58.3843L18.4349 19.7792Z" stroke="#604104" stroke-width="2" stroke-linecap="round" stroke-linejoin="round"/>
<path d="M48.2779 46.2908L53.2387 13.293C53.4486 11.8966 52.1843 10.7282 50.8087 11.0475L47.2483 11.8739L44.6654 46.7377L48.2779 46.2908Z" fill="#E78F28"/>
<path d="M21.1854 20.8544L19.3514 57.4828" stroke="#FFE7A9" stroke-width="2" stroke-linecap="round" stroke-linejoin="round"/>
<path d="M19.3513 57.4828L19.8671 47.1811" stroke="#FFF5DB" stroke-width="2" stroke-linecap="round" stroke-linejoin="round"/>
<ellipse cx="56.9576" cy="26.4298" rx="0.75" ry="0.890625" transform="rotate(1.27366 56.9576 26.4298)" fill="#AD6209"/>
<ellipse cx="56.4297" cy="32.352" rx="0.75" ry="0.890625" transform="rotate(1.27366 56.4297 32.352)" fill="#AD6209"/>
<ellipse cx="55.4689" cy="29.2761" rx="1.02347" ry="1.21537" transform="rotate(1.27366 55.4689 29.2761)" fill="#AD6209"/>
<ellipse cx="58.8875" cy="21.2991" rx="0.75" ry="0.890625" transform="rotate(1.27366 58.8875 21.2991)" fill="#AD6209"/>
<ellipse cx="56.9767" cy="22.9358" rx="0.536682" ry="0.63731" transform="rotate(1.27366 56.9767 22.9358)" fill="#AD6209"/>
<ellipse cx="58.818" cy="24.7693" rx="0.536682" ry="0.63731" transform="rotate(1.27366 58.818 24.7693)" fill="#AD6209"/>
<ellipse cx="57.6159" cy="29.7609" rx="0.536682" ry="0.63731" transform="rotate(1.27366 57.6159 29.7609)" fill="#AD6209"/>
<ellipse cx="54.5151" cy="34.7727" rx="0.536682" ry="0.63731" transform="rotate(1.27366 54.5151 34.7727)" fill="#AD6209"/>
<ellipse cx="55.2358" cy="24.1538" rx="0.536682" ry="0.63731" transform="rotate(1.27366 55.2358 24.1538)" fill="#AD6209"/>
<ellipse cx="56.0961" cy="18.3568" rx="0.536682" ry="0.63731" transform="rotate(1.27366 56.0961 18.3568)" fill="#AD6209"/>
<ellipse cx="59.9074" cy="17.418" rx="0.536682" ry="0.63731" transform="rotate(1.27366 59.9074 17.418)" fill="#AD6209"/>
<path d="M49.3929 69.0722L60.3883 45.8689" stroke="#F0A637" stroke-width="2" stroke-linecap="round" stroke-linejoin="round"/>
<path d="M42.9665 44.3354L44.9342 14.1006" stroke="#F0A637" stroke-width="2" stroke-linecap="round" stroke-linejoin="round"/>
<ellipse cx="53.4698" cy="48.8054" rx="0.875" ry="1" transform="rotate(-7.58808 53.4698 48.8054)" fill="#FFC670"/>
<ellipse cx="52.3616" cy="53.434" rx="0.595117" ry="0.680133" transform="rotate(-7.58808 52.3616 53.434)" fill="#FFC670"/>
<ellipse cx="49.4383" cy="56.696" rx="0.595117" ry="0.680133" transform="rotate(-7.58808 49.4383 56.696)" fill="#FFC670"/>
<ellipse cx="50.8784" cy="49.9399" rx="0.595117" ry="0.680133" transform="rotate(-7.58808 50.8784 49.9399)" fill="#FFC670"/>
<ellipse cx="56.6912" cy="46.6784" rx="0.595117" ry="0.680133" transform="rotate(-7.58808 56.6912 46.6784)" fill="#FFC670"/>
<ellipse cx="55.3006" cy="50.279" rx="0.416839" ry="0.476388" transform="rotate(-7.58808 55.3006 50.279)" fill="#FFC670"/>
<ellipse cx="51.8174" cy="57.1892" rx="0.416839" ry="0.476388" transform="rotate(-7.58808 51.8174 57.1892)" fill="#FFC670"/>
<ellipse cx="49.0576" cy="48.2859" rx="0.416839" ry="0.476388" transform="rotate(-7.58808 49.0576 48.2859)" fill="#FFC670"/>
<ellipse cx="54.6397" cy="46.6654" rx="0.416839" ry="0.476388" transform="rotate(-7.58808 54.6397 46.6654)" fill="#FFC670"/>
<ellipse cx="54.054" cy="51.6684" rx="0.416839" ry="0.476388" transform="rotate(-7.58808 54.054 51.6684)" fill="#FFC670"/>
<ellipse cx="49.3218" cy="51.3098" rx="0.416839" ry="0.476388" transform="rotate(-7.58808 49.3218 51.3098)" fill="#FFC670"/>
<ellipse cx="50.5811" cy="52.523" rx="0.416839" ry="0.476388" transform="rotate(-7.58808 50.5811 52.523)" fill="#FFC670"/>
<ellipse cx="49.7022" cy="60.908" rx="0.416839" ry="0.476388" transform="rotate(-7.58808 49.7022 60.908)" fill="#FFC670"/>
</g>
<defs>
<clipPath id="clip0_201_8347">
<rect width="96" height="96" fill="white"/>
</clipPath>
</defs>
</svg>
