<svg width="290" height="264" viewBox="0 0 290 264" fill="none" xmlns="http://www.w3.org/2000/svg">
<path d="M64.3811 158.632L97.4108 165.678L158.173 113.117L156.69 99.079L143.613 70.6905L135.613 58.1905L130.613 62.6905L113.613 42.6464L109.613 49.6905L86.6135 32.6905L85.1134 42.6464L59.2128 26.9017L57.6134 39.1905L23.2948 26.9017L28.5905 61.0546L20.7982 61.4148L31.1151 87.7941L21.6188 89.698L35.3439 112.99L29.1127 116.154L48.6266 134.946L39.8979 140.124L68.817 153.87L64.3811 158.632Z" fill="url(#paint0_linear_29_251)" stroke="#031A08" stroke-width="3"/>
<path d="M144.113 69.1905V102.925L207.303 152.542L220.8 148.407L246.171 130.154L256.915 119.916L251.544 115.866L267.976 95.354L260.298 92.7716L272.597 66.9504L262.538 67.3777L273.113 37.6905L263.613 37.1905L268.613 2.19052L232.613 14.1905L231.613 6.19052L204.113 24.1905L201.613 15.4057L179.613 36.1905L174.613 30.1905L160.113 52.1905L154.613 46.6905L147.613 59.6905L144.113 69.1905Z" fill="url(#paint1_linear_29_251)" stroke="#031A08" stroke-width="3"/>
<path d="M209.147 127.53L175.542 130.47L131.621 197.743L136.916 210.828L157.311 234.513L168.446 244.323L172.012 238.62L193.879 253.201L195.782 245.328L222.577 255.329L221.275 245.346L251.77 253.294L251.441 243.786L286.743 245.717L271.651 210.9L279.534 209.206L259.205 183.38L267.739 180.123L245.116 160.019L250.657 154.515L227.477 141.987L232.477 136.029L218.916 130.189L209.147 127.53Z" fill="url(#paint2_linear_29_251)" stroke="#031A08" stroke-width="3"/>
<path d="M186.613 153.191L174.113 160.191L127.613 129.691L131.113 114.691L134.113 116.691L141.613 101.191L145.113 104.691L157.113 91.1905L161.113 95.1905L175.113 85.1905L176.113 90.1905L197.113 82.6905L194.613 102.691L199.113 103.691L194.613 120.191L199.113 120.691L190.613 136.191L194.613 139.191L182.613 149.691L186.613 153.191Z" fill="url(#paint3_linear_29_251)" stroke="#031A08" stroke-width="3"/>
<path d="M161.113 201.691L161.613 177.191L110.113 141.191L99.1135 144.191L102.113 148.191L82.6135 157.691L86.6135 161.691L70.1135 175.191L76.1135 179.191L63.6135 196.191L69.6135 199.191L59.1135 220.191L67.6135 221.691L62.1135 249.191L88.6135 240.691L90.1135 246.191L109.613 235.191L112.613 241.691L129.113 228.691L132.613 232.691L144.613 216.191L150.113 221.691L156.613 199.191L161.113 201.691Z" fill="url(#paint4_linear_29_251)" stroke="#031A08" stroke-width="3"/>
<path d="M142.614 152.191C147.447 142.524 147.866 126.232 111.114 124.191C111.114 124.191 115.113 175.191 142.614 152.191Z" fill="url(#paint5_linear_29_251)" stroke="#031A08" stroke-width="3"/>
<path d="M140.7 154.582C138.165 165.089 141.422 181.057 177.691 174.779C177.691 174.779 162.321 125.986 140.7 154.582Z" fill="url(#paint6_linear_29_251)" stroke="#031A08" stroke-width="3"/>
<defs>
<linearGradient id="paint0_linear_29_251" x1="26.6134" y1="31.6905" x2="127.113" y2="134.191" gradientUnits="userSpaceOnUse">
<stop stop-color="#40AE35"/>
<stop offset="0.97655" stop-color="#1A4816"/>
</linearGradient>
<linearGradient id="paint1_linear_29_251" x1="263.613" y1="11.6905" x2="173.113" y2="126.691" gradientUnits="userSpaceOnUse">
<stop stop-color="#40AE35"/>
<stop offset="0.990336" stop-color="#1A4816"/>
</linearGradient>
<linearGradient id="paint2_linear_29_251" x1="281.613" y1="241.191" x2="170.113" y2="160.191" gradientUnits="userSpaceOnUse">
<stop stop-color="#40AE35"/>
<stop offset="1" stop-color="#1A4816"/>
</linearGradient>
<linearGradient id="paint3_linear_29_251" x1="150.613" y1="145.191" x2="196.113" y2="91.6905" gradientUnits="userSpaceOnUse">
<stop stop-color="#1B7337"/>
<stop offset="1" stop-color="#29934A"/>
</linearGradient>
<linearGradient id="paint4_linear_29_251" x1="67.1135" y1="244.191" x2="138.113" y2="157.691" gradientUnits="userSpaceOnUse">
<stop stop-color="#40AE35"/>
<stop offset="1" stop-color="#1A4816"/>
</linearGradient>
<linearGradient id="paint5_linear_29_251" x1="113.613" y1="126.691" x2="142.113" y2="152.191" gradientUnits="userSpaceOnUse">
<stop stop-color="#135B20"/>
<stop offset="1" stop-color="#197029"/>
</linearGradient>
<linearGradient id="paint6_linear_29_251" x1="176.613" y1="176.691" x2="150.613" y2="141.691" gradientUnits="userSpaceOnUse">
<stop stop-color="#238B36"/>
<stop offset="1" stop-color="#155020"/>
</linearGradient>
</defs>
</svg>
