<svg width="96" height="96" viewBox="0 0 96 96" fill="none" xmlns="http://www.w3.org/2000/svg">
<path d="M10 30C10 25.5817 13.5817 22 18 22H78C82.4183 22 86 25.5817 86 30V42V82C86 83.1046 85.1046 84 84 84H12C10.8954 84 10 83.1046 10 82V42V30Z" fill="#CA693F"/>
<path fill-rule="evenodd" clip-rule="evenodd" d="M18 20H78C83.5228 20 88 24.4772 88 30V82C88 84.2091 86.2091 86 84 86H12C9.79086 86 8 84.2091 8 82V30C8 24.4772 12.4772 20 18 20ZM18 22C13.5817 22 10 25.5817 10 30V82C10 83.1046 10.8954 84 12 84H84C85.1046 84 86 83.1046 86 82V30C86 25.5817 82.4183 22 78 22H18Z" fill="#5B3303"/>
<path d="M10 46H86V50H10V46Z" fill="#9A4A28"/>
<path d="M79 81.5C79 82.3284 78.3284 83 77.5 83C76.6716 83 76 82.3284 76 81.5C76 80.6716 76.6716 80 77.5 80C78.3284 80 79 80.6716 79 81.5Z" fill="#AE5129"/>
<path d="M84 71C84 72.1046 83.1046 73 82 73C80.8954 73 80 72.1046 80 71C80 69.8954 80.8954 69 82 69C83.1046 69 84 69.8954 84 71Z" fill="#AE5129"/>
<path d="M82 76C82 76.5523 81.5523 77 81 77C80.4477 77 80 76.5523 80 76C80 75.4477 80.4477 75 81 75C81.5523 75 82 75.4477 82 76Z" fill="#AE5129"/>
<path d="M78 70.5C78 71.3284 77.3284 72 76.5 72C75.6716 72 75 71.3284 75 70.5C75 69.6716 75.6716 69 76.5 69C77.3284 69 78 69.6716 78 70.5Z" fill="#AE5129"/>
<path d="M71 70.5C71 71.3284 70.3284 72 69.5 72C68.6716 72 68 71.3284 68 70.5C68 69.6716 68.6716 69 69.5 69C70.3284 69 71 69.6716 71 70.5Z" fill="#AE5129"/>
<path d="M79 64C79 64.5523 78.5523 65 78 65C77.4477 65 77 64.5523 77 64C77 63.4477 77.4477 63 78 63C78.5523 63 79 63.4477 79 64Z" fill="#AE5129"/>
<path d="M83 66C83 66.5523 82.5523 67 82 67C81.4477 67 81 66.5523 81 66C81 65.4477 81.4477 65 82 65C82.5523 65 83 65.4477 83 66Z" fill="#AE5129"/>
<path d="M85 59C85 59.5523 84.5523 60 84 60C83.4477 60 83 59.5523 83 59C83 58.4477 83.4477 58 84 58C84.5523 58 85 58.4477 85 59Z" fill="#AE5129"/>
<path d="M84 80C84 80.5523 83.5523 81 83 81C82.4477 81 82 80.5523 82 80C82 79.4477 82.4477 79 83 79C83.5523 79 84 79.4477 84 80Z" fill="#AE5129"/>
<path d="M71 65C71 65.5523 70.5523 66 70 66C69.4477 66 69 65.5523 69 65C69 64.4477 69.4477 64 70 64C70.5523 64 71 64.4477 71 65Z" fill="#AE5129"/>
<path d="M71 80.5C71 81.3284 70.3284 82 69.5 82C68.6716 82 68 81.3284 68 80.5C68 79.6716 68.6716 79 69.5 79C70.3284 79 71 79.6716 71 80.5Z" fill="#AE5129"/>
<path d="M68 77C68 77.5523 67.5523 78 67 78C66.4477 78 66 77.5523 66 77C66 76.4477 66.4477 76 67 76C67.5523 76 68 76.4477 68 77Z" fill="#AE5129"/>
<path d="M64 80C64 80.5523 63.5523 81 63 81C62.4477 81 62 80.5523 62 80C62 79.4477 62.4477 79 63 79C63.5523 79 64 79.4477 64 80Z" fill="#AE5129"/>
<path d="M68 75C68 75.5523 67.5523 76 67 76C66.4477 76 66 75.5523 66 75C66 74.4477 66.4477 74 67 74C67.5523 74 68 74.4477 68 75Z" fill="#AE5129"/>
<path d="M64 73C64 73.5523 63.5523 74 63 74C62.4477 74 62 73.5523 62 73C62 72.4477 62.4477 72 63 72C63.5523 72 64 72.4477 64 73Z" fill="#AE5129"/>
<path d="M59 82C59 82.5523 58.5523 83 58 83C57.4477 83 57 82.5523 57 82C57 81.4477 57.4477 81 58 81C58.5523 81 59 81.4477 59 82Z" fill="#AE5129"/>
<path d="M79 74C79 74.5523 78.5523 75 78 75C77.4477 75 77 74.5523 77 74C77 73.4477 77.4477 73 78 73C78.5523 73 79 73.4477 79 74Z" fill="#AE5129"/>
<path fill-rule="evenodd" clip-rule="evenodd" d="M15.606 30C15.606 29.4477 16.0537 29 16.606 29H79.3938C79.9461 29 80.3938 29.4477 80.3938 30C80.3938 30.5523 79.9461 31 79.3938 31H16.606C16.0537 31 15.606 30.5523 15.606 30Z" fill="#AE5129"/>
<path fill-rule="evenodd" clip-rule="evenodd" d="M12.2422 37C12.2422 36.4477 12.6899 36 13.2422 36H82.7573C83.3096 36 83.7573 36.4477 83.7573 37C83.7573 37.5523 83.3096 38 82.7573 38H13.2422C12.6899 38 12.2422 37.5523 12.2422 37Z" fill="#AE5129"/>
<path fill-rule="evenodd" clip-rule="evenodd" d="M10 53C10 52.4477 10.4477 52 11 52H85C85.5523 52 86 52.4477 86 53C86 53.5523 85.5523 54 85 54H11C10.4477 54 10 53.5523 10 53Z" fill="#AE5129"/>
<path fill-rule="evenodd" clip-rule="evenodd" d="M10 61C10 60.4477 10.4477 60 11 60H85C85.5523 60 86 60.4477 86 61C86 61.5523 85.5523 62 85 62H11C10.4477 62 10 61.5523 10 61Z" fill="#AE5129"/>
<path fill-rule="evenodd" clip-rule="evenodd" d="M10 69C10 68.4477 10.4477 68 11 68H85C85.5523 68 86 68.4477 86 69C86 69.5523 85.5523 70 85 70H11C10.4477 70 10 69.5523 10 69Z" fill="#AE5129"/>
<path fill-rule="evenodd" clip-rule="evenodd" d="M10 77C10 76.4477 10.4477 76 11 76H85C85.5523 76 86 76.4477 86 77C86 77.5523 85.5523 78 85 78H11C10.4477 78 10 77.5523 10 77Z" fill="#AE5129"/>
<path fill-rule="evenodd" clip-rule="evenodd" d="M11 46.5C11.5523 46.5 12 46.9477 12 47.5V76C12 76.5523 11.5523 77 11 77C10.4477 77 10 76.5523 10 76V47.5C10 46.9477 10.4477 46.5 11 46.5Z" fill="#FF8754"/>
<path fill-rule="evenodd" clip-rule="evenodd" d="M12.1679 24.1679C13.6716 22.6642 15.8459 22 18.5 22H76C76.5523 22 77 22.4477 77 23C77 23.5523 76.5523 24 76 24H18.5C16.1541 24 14.5784 24.5858 13.5821 25.5821C12.5858 26.5784 12 28.1541 12 30.5V42H84C84.5523 42 85 42.4477 85 43C85 43.5523 84.5523 44 84 44H11C10.4477 44 10 43.5523 10 43V30.5C10 27.8459 10.6642 25.6716 12.1679 24.1679Z" fill="#FF8754"/>
<path fill-rule="evenodd" clip-rule="evenodd" d="M12.1679 24.1679C13.6716 22.6642 15.8459 22 18.5 22C19.0523 22 19.5 22.4477 19.5 23C19.5 23.5523 19.0523 24 18.5 24C16.1541 24 14.5784 24.5858 13.5821 25.5821C12.5858 26.5784 12 28.1541 12 30.5C12 31.0523 11.5523 31.5 11 31.5C10.4477 31.5 10 31.0523 10 30.5C10 27.8459 10.6642 25.6716 12.1679 24.1679Z" fill="#FFBDA0"/>
<path fill-rule="evenodd" clip-rule="evenodd" d="M8 45C8 44.4477 8.44772 44 9 44H87C87.5523 44 88 44.4477 88 45C88 45.5523 87.5523 46 87 46H9C8.44772 46 8 45.5523 8 45Z" fill="#5B3303"/>
<path d="M40 39C40 38.4477 40.4477 38 41 38H55C55.5523 38 56 38.4477 56 39V52L48 58L40 52V39Z" fill="#DF8D12"/>
<path fill-rule="evenodd" clip-rule="evenodd" d="M58 52C58 52.6295 57.7036 53.2223 57.2 53.6L49.2 59.6C48.4889 60.1333 47.5111 60.1333 46.8 59.6L38.8 53.6C38.2964 53.2223 38 52.6295 38 52V39C38 37.3431 39.3431 36 41 36H55C56.6569 36 58 37.3431 58 39V52ZM40 52L48 58L56 52V39C56 38.4477 55.5523 38 55 38H41C40.4477 38 40 38.4477 40 39V52Z" fill="#652A11"/>
<path d="M51 46C51 47.6569 49.6569 49 48 49C46.3431 49 45 47.6569 45 46C45 44.3431 46.3431 43 48 43C49.6569 43 51 44.3431 51 46Z" fill="#FFB341"/>
<path fill-rule="evenodd" clip-rule="evenodd" d="M53 46C53 48.7614 50.7614 51 48 51C45.2386 51 43 48.7614 43 46C43 43.2386 45.2386 41 48 41C50.7614 41 53 43.2386 53 46ZM48 49C49.6569 49 51 47.6569 51 46C51 44.3431 49.6569 43 48 43C46.3431 43 45 44.3431 45 46C45 47.6569 46.3431 49 48 49Z" fill="#944320"/>
<path fill-rule="evenodd" clip-rule="evenodd" d="M40 39C40 38.4477 40.4477 38 41 38H53C53.5523 38 54 38.4477 54 39C54 39.5523 53.5523 40 53 40H42V50C42 50.5523 41.5523 51 41 51C40.4477 51 40 50.5523 40 50V39Z" fill="#FFB341"/>
<path d="M48 45C48 45.5523 47.5523 46 47 46C46.4477 46 46 45.5523 46 45C46 44.4477 46.4477 44 47 44C47.5523 44 48 44.4477 48 45Z" fill="#FFEACA"/>
<path d="M70 46H76V84H70V46Z" fill="#DF9422"/>
<path d="M76 42H73H70V22H76V42Z" fill="#FBB750"/>
<path d="M20 42H23H26V22H20V42Z" fill="#FBB750"/>
<path fill-rule="evenodd" clip-rule="evenodd" d="M21 22C21.5523 22 22 22.4477 22 23V33.5C22 34.0523 21.5523 34.5 21 34.5C20.4477 34.5 20 34.0523 20 33.5V23C20 22.4477 20.4477 22 21 22Z" fill="#FFDCA7"/>
<path fill-rule="evenodd" clip-rule="evenodd" d="M71 22C71.5523 22 72 22.4477 72 23V33.5C72 34.0523 71.5523 34.5 71 34.5C70.4477 34.5 70 34.0523 70 33.5V23C70 22.4477 70.4477 22 71 22Z" fill="#FFDCA7"/>
<path d="M20 46H23H26V84H20V46Z" fill="#DF9422"/>
</svg>
